<svg width="112" height="100" viewBox="0 0 112 100" fill="none" xmlns="http://www.w3.org/2000/svg">
<rect x="1" y="1" width="110" height="98" rx="6" fill="white" stroke="black" stroke-width="2"/>
<g clip-path="url(#clip0_258_1430)">
<g clip-path="url(#clip1_258_1430)">
<path d="M116.658 46.1269L78.5103 47.3862L100.087 22.4964L116.658 46.1269Z" fill="#018057" fill-opacity="0.2"/>
<path d="M116.658 46.1269L78.5103 47.3862L100.087 22.4964L116.658 46.1269Z" fill="#018057" fill-opacity="0.2"/>
<path d="M54.0831 11.9786L88.4915 17.3233L62.2903 47.5475L54.0831 11.9786Z" fill="#FFC013" fill-opacity="0.2"/>
<path d="M106.322 2.28952L97.5713 22.7501L83 1.74638L106.322 2.28952Z" fill="#0065A1" fill-opacity="0.2"/>
</g>
<g filter="url(#filter0_d_258_1430)">
<path d="M-6 68.8876L0.406593 54L33.6044 58.1685L47 77.2247L37.6813 101.64L17.8791 107L-6 92.7079V68.8876Z" fill="#28282A"/>
<g filter="url(#filter1_d_258_1430)">
<path d="M0.457031 54L33.6548 58.1685L36.5669 62.3371L15.5999 61.1461L0.457031 54Z" fill="black"/>
</g>
<g filter="url(#filter2_d_258_1430)">
<path d="M-6 92.8789L20.0073 96.1799L37.5846 101.682L17.8549 107L-6 92.8789Z" fill="#28282A"/>
</g>
<g filter="url(#filter3_d_258_1430)">
<path d="M19.5985 86.8362H15.0985L14.4145 88.9062H10.7065L15.3325 76.2162H19.4005L24.0085 88.9062H20.2825L19.5985 86.8362ZM18.7165 84.1362L17.3485 80.0322L15.9985 84.1362H18.7165ZM24.4744 79.0602V75.7482H30.0184V88.9062H26.3284V79.0602H24.4744ZM31.8133 82.1382C31.8133 80.0742 32.2333 78.4482 33.0733 77.2602C33.9133 76.0722 35.2333 75.4782 37.0333 75.4782C38.8333 75.4782 40.1533 76.0722 40.9933 77.2602C41.8453 78.4482 42.2713 80.0742 42.2713 82.1382C42.2713 84.2262 41.8513 85.8642 41.0113 87.0522C40.1713 88.2402 38.8453 88.8342 37.0333 88.8342C35.2213 88.8342 33.8953 88.2402 33.0553 87.0522C32.2273 85.8642 31.8133 84.2262 31.8133 82.1382ZM38.7793 82.1382C38.7793 81.0582 38.6653 80.2362 38.4373 79.6722C38.2093 79.0962 37.7413 78.8082 37.0333 78.8082C36.3253 78.8082 35.8573 79.0962 35.6293 79.6722C35.4013 80.2362 35.2873 81.0582 35.2873 82.1382C35.2873 83.2422 35.3953 84.0822 35.6113 84.6582C35.8393 85.2222 36.3133 85.5042 37.0333 85.5042C37.7533 85.5042 38.2213 85.2222 38.4373 84.6582C38.6653 84.0822 38.7793 83.2422 38.7793 82.1382Z" fill="white"/>
</g>
</g>
</g>
<defs>
<filter id="filter0_d_258_1430" x="-8" y="52" width="61" height="61" filterUnits="userSpaceOnUse" color-interpolation-filters="sRGB">
<feFlood flood-opacity="0" result="BackgroundImageFix"/>
<feColorMatrix in="SourceAlpha" type="matrix" values="0 0 0 0 0 0 0 0 0 0 0 0 0 0 0 0 0 0 127 0" result="hardAlpha"/>
<feOffset dx="2" dy="2"/>
<feGaussianBlur stdDeviation="2"/>
<feComposite in2="hardAlpha" operator="out"/>
<feColorMatrix type="matrix" values="0 0 0 0 0 0 0 0 0 0.396078 0 0 0 0 0.631373 0 0 0 0.2 0"/>
<feBlend mode="normal" in2="BackgroundImageFix" result="effect1_dropShadow_258_1430"/>
<feBlend mode="normal" in="SourceGraphic" in2="effect1_dropShadow_258_1430" result="shape"/>
</filter>
<filter id="filter1_d_258_1430" x="0.457031" y="54" width="48.1099" height="29.3369" filterUnits="userSpaceOnUse" color-interpolation-filters="sRGB">
<feFlood flood-opacity="0" result="BackgroundImageFix"/>
<feColorMatrix in="SourceAlpha" type="matrix" values="0 0 0 0 0 0 0 0 0 0 0 0 0 0 0 0 0 0 127 0" result="hardAlpha"/>
<feOffset dx="8" dy="17"/>
<feGaussianBlur stdDeviation="2"/>
<feComposite in2="hardAlpha" operator="out"/>
<feColorMatrix type="matrix" values="0 0 0 0 0 0 0 0 0 0.396078 0 0 0 0 0.631373 0 0 0 0.2 0"/>
<feBlend mode="normal" in2="BackgroundImageFix" result="effect1_dropShadow_258_1430"/>
<feBlend mode="normal" in="SourceGraphic" in2="effect1_dropShadow_258_1430" result="shape"/>
</filter>
<filter id="filter2_d_258_1430" x="-6" y="92.8789" width="55.5845" height="35.1211" filterUnits="userSpaceOnUse" color-interpolation-filters="sRGB">
<feFlood flood-opacity="0" result="BackgroundImageFix"/>
<feColorMatrix in="SourceAlpha" type="matrix" values="0 0 0 0 0 0 0 0 0 0 0 0 0 0 0 0 0 0 127 0" result="hardAlpha"/>
<feOffset dx="8" dy="17"/>
<feGaussianBlur stdDeviation="2"/>
<feComposite in2="hardAlpha" operator="out"/>
<feColorMatrix type="matrix" values="0 0 0 0 0 0 0 0 0 0.396078 0 0 0 0 0.631373 0 0 0 0.2 0"/>
<feBlend mode="normal" in2="BackgroundImageFix" result="effect1_dropShadow_258_1430"/>
<feBlend mode="normal" in="SourceGraphic" in2="effect1_dropShadow_258_1430" result="shape"/>
</filter>
<filter id="filter3_d_258_1430" x="10.7065" y="75.478" width="43.5649" height="34.4282" filterUnits="userSpaceOnUse" color-interpolation-filters="sRGB">
<feFlood flood-opacity="0" result="BackgroundImageFix"/>
<feColorMatrix in="SourceAlpha" type="matrix" values="0 0 0 0 0 0 0 0 0 0 0 0 0 0 0 0 0 0 127 0" result="hardAlpha"/>
<feOffset dx="8" dy="17"/>
<feGaussianBlur stdDeviation="2"/>
<feComposite in2="hardAlpha" operator="out"/>
<feColorMatrix type="matrix" values="0 0 0 0 0 0 0 0 0 0.396078 0 0 0 0 0.631373 0 0 0 0.2 0"/>
<feBlend mode="normal" in2="BackgroundImageFix" result="effect1_dropShadow_258_1430"/>
<feBlend mode="normal" in="SourceGraphic" in2="effect1_dropShadow_258_1430" result="shape"/>
</filter>
<clipPath id="clip0_258_1430">
<rect width="108" height="96" fill="white" transform="translate(2 2)"/>
</clipPath>
<clipPath id="clip1_258_1430">
<rect width="81.2168" height="74.7355" fill="white" transform="translate(40 -9)"/>
</clipPath>
</defs>
</svg>
