<svg width="112" height="100" viewBox="0 0 112 100" fill="none" xmlns="http://www.w3.org/2000/svg">
<rect x="1" y="1" width="110" height="98" rx="6" fill="white" stroke="#C3451E" stroke-width="2"/>
<g clip-path="url(#clip0_258_1148)">
<g clip-path="url(#clip1_258_1148)">
<path d="M116.658 46.1269L78.5103 47.3862L100.087 22.4964L116.658 46.1269Z" fill="#018057" fill-opacity="0.2"/>
<path d="M116.658 46.1269L78.5103 47.3862L100.087 22.4964L116.658 46.1269Z" fill="#018057" fill-opacity="0.2"/>
<path d="M54.0831 11.9786L88.4915 17.3233L62.2903 47.5475L54.0831 11.9786Z" fill="#FFC013" fill-opacity="0.2"/>
<path d="M106.322 2.28952L97.5713 22.7501L83 1.74638L106.322 2.28952Z" fill="#0065A1" fill-opacity="0.2"/>
</g>
<g filter="url(#filter0_d_258_1148)">
<path d="M-6 68.8876L0.406593 54L33.6044 58.1685L47 77.2247L37.6813 101.64L17.8791 107L-6 92.7079V68.8876Z" fill="#F4522C"/>
<g filter="url(#filter1_d_258_1148)">
<path d="M0.457031 54L33.6548 58.1685L36.5669 62.3371L15.5999 61.1461L0.457031 54Z" fill="#B8431A"/>
</g>
<g filter="url(#filter2_d_258_1148)">
<path d="M-6 92.8789L20.0073 96.1799L37.5846 101.682L17.8549 107L-6 92.8789Z" fill="#F4522C"/>
</g>
<g filter="url(#filter3_d_258_1148)">
<path d="M20.5425 88.4262H15.3025L14.4625 90.9062H10.8825L15.9625 76.8662H19.9225L25.0025 90.9062H21.3825L20.5425 88.4262ZM19.6625 85.7862L17.9225 80.6462L16.2025 85.7862H19.6625ZM26.0886 88.1662C26.5419 87.8062 26.7486 87.6396 26.7086 87.6662C28.0153 86.5862 29.0419 85.6996 29.7886 85.0062C30.5486 84.3129 31.1886 83.5862 31.7086 82.8262C32.2286 82.0662 32.4886 81.3262 32.4886 80.6062C32.4886 80.0596 32.3619 79.6329 32.1086 79.3262C31.8553 79.0196 31.4753 78.8662 30.9686 78.8662C30.4619 78.8662 30.0619 79.0596 29.7686 79.4462C29.4886 79.8196 29.3486 80.3529 29.3486 81.0462H26.0486C26.0753 79.9129 26.3153 78.9662 26.7686 78.2062C27.2353 77.4462 27.8419 76.8862 28.5886 76.5262C29.3486 76.1662 30.1886 75.9862 31.1086 75.9862C32.6953 75.9862 33.8886 76.3929 34.6886 77.2062C35.5019 78.0196 35.9086 79.0796 35.9086 80.3862C35.9086 81.8129 35.4219 83.1396 34.4486 84.3662C33.4753 85.5796 32.2353 86.7662 30.7286 87.9262H36.1286V90.7062H26.0886V88.1662Z" fill="#28282A"/>
</g>
</g>
</g>
<defs>
<filter id="filter0_d_258_1148" x="-8" y="52" width="61" height="61" filterUnits="userSpaceOnUse" color-interpolation-filters="sRGB">
<feFlood flood-opacity="0" result="BackgroundImageFix"/>
<feColorMatrix in="SourceAlpha" type="matrix" values="0 0 0 0 0 0 0 0 0 0 0 0 0 0 0 0 0 0 127 0" result="hardAlpha"/>
<feOffset dx="2" dy="2"/>
<feGaussianBlur stdDeviation="2"/>
<feComposite in2="hardAlpha" operator="out"/>
<feColorMatrix type="matrix" values="0 0 0 0 0 0 0 0 0 0.396078 0 0 0 0 0.631373 0 0 0 0.2 0"/>
<feBlend mode="normal" in2="BackgroundImageFix" result="effect1_dropShadow_258_1148"/>
<feBlend mode="normal" in="SourceGraphic" in2="effect1_dropShadow_258_1148" result="shape"/>
</filter>
<filter id="filter1_d_258_1148" x="0.457031" y="54" width="48.1099" height="29.3369" filterUnits="userSpaceOnUse" color-interpolation-filters="sRGB">
<feFlood flood-opacity="0" result="BackgroundImageFix"/>
<feColorMatrix in="SourceAlpha" type="matrix" values="0 0 0 0 0 0 0 0 0 0 0 0 0 0 0 0 0 0 127 0" result="hardAlpha"/>
<feOffset dx="8" dy="17"/>
<feGaussianBlur stdDeviation="2"/>
<feComposite in2="hardAlpha" operator="out"/>
<feColorMatrix type="matrix" values="0 0 0 0 0 0 0 0 0 0.396078 0 0 0 0 0.631373 0 0 0 0.2 0"/>
<feBlend mode="normal" in2="BackgroundImageFix" result="effect1_dropShadow_258_1148"/>
<feBlend mode="normal" in="SourceGraphic" in2="effect1_dropShadow_258_1148" result="shape"/>
</filter>
<filter id="filter2_d_258_1148" x="-6" y="92.8789" width="55.5845" height="35.1211" filterUnits="userSpaceOnUse" color-interpolation-filters="sRGB">
<feFlood flood-opacity="0" result="BackgroundImageFix"/>
<feColorMatrix in="SourceAlpha" type="matrix" values="0 0 0 0 0 0 0 0 0 0 0 0 0 0 0 0 0 0 127 0" result="hardAlpha"/>
<feOffset dx="8" dy="17"/>
<feGaussianBlur stdDeviation="2"/>
<feComposite in2="hardAlpha" operator="out"/>
<feColorMatrix type="matrix" values="0 0 0 0 0 0 0 0 0 0.396078 0 0 0 0 0.631373 0 0 0 0.2 0"/>
<feBlend mode="normal" in2="BackgroundImageFix" result="effect1_dropShadow_258_1148"/>
<feBlend mode="normal" in="SourceGraphic" in2="effect1_dropShadow_258_1148" result="shape"/>
</filter>
<filter id="filter3_d_258_1148" x="10.8823" y="75.9863" width="37.2461" height="35.9199" filterUnits="userSpaceOnUse" color-interpolation-filters="sRGB">
<feFlood flood-opacity="0" result="BackgroundImageFix"/>
<feColorMatrix in="SourceAlpha" type="matrix" values="0 0 0 0 0 0 0 0 0 0 0 0 0 0 0 0 0 0 127 0" result="hardAlpha"/>
<feOffset dx="8" dy="17"/>
<feGaussianBlur stdDeviation="2"/>
<feComposite in2="hardAlpha" operator="out"/>
<feColorMatrix type="matrix" values="0 0 0 0 0 0 0 0 0 0.396078 0 0 0 0 0.631373 0 0 0 0.2 0"/>
<feBlend mode="normal" in2="BackgroundImageFix" result="effect1_dropShadow_258_1148"/>
<feBlend mode="normal" in="SourceGraphic" in2="effect1_dropShadow_258_1148" result="shape"/>
</filter>
<clipPath id="clip0_258_1148">
<rect width="108" height="96" fill="white" transform="translate(2 2)"/>
</clipPath>
<clipPath id="clip1_258_1148">
<rect width="81.2168" height="74.7355" fill="white" transform="translate(40 -9)"/>
</clipPath>
</defs>
</svg>
