<svg width="112" height="100" viewBox="0 0 112 100" fill="none" xmlns="http://www.w3.org/2000/svg">
<rect x="1" y="1" width="110" height="98" rx="6" fill="white" stroke="#0065A1" stroke-width="2"/>
<g clip-path="url(#clip0_258_1154)">
<g clip-path="url(#clip1_258_1154)">
<path d="M116.658 46.1269L78.5103 47.3862L100.087 22.4964L116.658 46.1269Z" fill="#018057" fill-opacity="0.2"/>
<path d="M116.658 46.1269L78.5103 47.3862L100.087 22.4964L116.658 46.1269Z" fill="#018057" fill-opacity="0.2"/>
<path d="M54.0831 11.9786L88.4915 17.3233L62.2903 47.5475L54.0831 11.9786Z" fill="#FFC013" fill-opacity="0.2"/>
<path d="M106.322 2.28952L97.5713 22.7501L83 1.74638L106.322 2.28952Z" fill="#0065A1" fill-opacity="0.2"/>
</g>
<g filter="url(#filter0_d_258_1154)">
<path d="M-6 68.8876L0.406593 54L33.6044 58.1685L47 77.2247L37.6813 101.64L17.8791 107L-6 92.7079V68.8876Z" fill="#006FB4"/>
<g filter="url(#filter1_d_258_1154)">
<path d="M0.457031 54L33.6548 58.1685L36.5669 62.3371L15.5999 61.1461L0.457031 54Z" fill="#0065A1"/>
</g>
<g filter="url(#filter2_d_258_1154)">
<path d="M-6 92.8789L20.0073 96.1799L37.5846 101.682L17.8549 107L-6 92.8789Z" fill="#006FB4"/>
</g>
<g filter="url(#filter3_d_258_1154)">
<path d="M20.5425 88.4262H15.3025L14.4625 90.9062H10.8825L15.9625 76.8662H19.9225L25.0025 90.9062H21.3825L20.5425 88.4262ZM19.6625 85.7862L17.9225 80.6462L16.2025 85.7862H19.6625ZM26.3286 80.4262C26.3819 78.9996 26.8486 77.8996 27.7286 77.1262C28.6086 76.3529 29.8019 75.9662 31.3086 75.9662C32.3086 75.9662 33.1619 76.1396 33.8686 76.4862C34.5886 76.8329 35.1286 77.3062 35.4886 77.9062C35.8619 78.5062 36.0486 79.1796 36.0486 79.9262C36.0486 80.8062 35.8286 81.5262 35.3886 82.0862C34.9486 82.6329 34.4353 83.0062 33.8486 83.2062V83.2862C34.6086 83.5396 35.2086 83.9596 35.6486 84.5462C36.0886 85.1329 36.3086 85.8862 36.3086 86.8062C36.3086 87.6329 36.1153 88.3662 35.7286 89.0062C35.3553 89.6329 34.8019 90.1262 34.0686 90.4862C33.3486 90.8462 32.4886 91.0263 31.4886 91.0263C29.8886 91.0263 28.6086 90.6329 27.6486 89.8462C26.7019 89.0596 26.2019 87.8729 26.1486 86.2862H29.4686C29.4819 86.8729 29.6486 87.3396 29.9686 87.6862C30.2886 88.0196 30.7553 88.1862 31.3686 88.1862C31.8886 88.1862 32.2886 88.0396 32.5686 87.7462C32.8619 87.4396 33.0086 87.0396 33.0086 86.5462C33.0086 85.9062 32.8019 85.4462 32.3886 85.1662C31.9886 84.8729 31.3419 84.7262 30.4486 84.7262H29.8086V81.9462H30.4486C31.1286 81.9462 31.6753 81.8329 32.0886 81.6062C32.5153 81.3662 32.7286 80.9462 32.7286 80.3463C32.7286 79.8662 32.5953 79.4929 32.3286 79.2262C32.0619 78.9596 31.6953 78.8262 31.2286 78.8262C30.7219 78.8262 30.3419 78.9796 30.0886 79.2862C29.8486 79.5929 29.7086 79.9729 29.6686 80.4262H26.3286Z" fill="#28282A"/>
</g>
</g>
</g>
<defs>
<filter id="filter0_d_258_1154" x="-8" y="52" width="61" height="61" filterUnits="userSpaceOnUse" color-interpolation-filters="sRGB">
<feFlood flood-opacity="0" result="BackgroundImageFix"/>
<feColorMatrix in="SourceAlpha" type="matrix" values="0 0 0 0 0 0 0 0 0 0 0 0 0 0 0 0 0 0 127 0" result="hardAlpha"/>
<feOffset dx="2" dy="2"/>
<feGaussianBlur stdDeviation="2"/>
<feComposite in2="hardAlpha" operator="out"/>
<feColorMatrix type="matrix" values="0 0 0 0 0 0 0 0 0 0.396078 0 0 0 0 0.631373 0 0 0 0.2 0"/>
<feBlend mode="normal" in2="BackgroundImageFix" result="effect1_dropShadow_258_1154"/>
<feBlend mode="normal" in="SourceGraphic" in2="effect1_dropShadow_258_1154" result="shape"/>
</filter>
<filter id="filter1_d_258_1154" x="0.457031" y="54" width="48.1099" height="29.3369" filterUnits="userSpaceOnUse" color-interpolation-filters="sRGB">
<feFlood flood-opacity="0" result="BackgroundImageFix"/>
<feColorMatrix in="SourceAlpha" type="matrix" values="0 0 0 0 0 0 0 0 0 0 0 0 0 0 0 0 0 0 127 0" result="hardAlpha"/>
<feOffset dx="8" dy="17"/>
<feGaussianBlur stdDeviation="2"/>
<feComposite in2="hardAlpha" operator="out"/>
<feColorMatrix type="matrix" values="0 0 0 0 0 0 0 0 0 0.396078 0 0 0 0 0.631373 0 0 0 0.2 0"/>
<feBlend mode="normal" in2="BackgroundImageFix" result="effect1_dropShadow_258_1154"/>
<feBlend mode="normal" in="SourceGraphic" in2="effect1_dropShadow_258_1154" result="shape"/>
</filter>
<filter id="filter2_d_258_1154" x="-6" y="92.8789" width="55.5845" height="35.1211" filterUnits="userSpaceOnUse" color-interpolation-filters="sRGB">
<feFlood flood-opacity="0" result="BackgroundImageFix"/>
<feColorMatrix in="SourceAlpha" type="matrix" values="0 0 0 0 0 0 0 0 0 0 0 0 0 0 0 0 0 0 127 0" result="hardAlpha"/>
<feOffset dx="8" dy="17"/>
<feGaussianBlur stdDeviation="2"/>
<feComposite in2="hardAlpha" operator="out"/>
<feColorMatrix type="matrix" values="0 0 0 0 0 0 0 0 0 0.396078 0 0 0 0 0.631373 0 0 0 0.2 0"/>
<feBlend mode="normal" in2="BackgroundImageFix" result="effect1_dropShadow_258_1154"/>
<feBlend mode="normal" in="SourceGraphic" in2="effect1_dropShadow_258_1154" result="shape"/>
</filter>
<filter id="filter3_d_258_1154" x="10.8823" y="75.9663" width="37.4263" height="36.0601" filterUnits="userSpaceOnUse" color-interpolation-filters="sRGB">
<feFlood flood-opacity="0" result="BackgroundImageFix"/>
<feColorMatrix in="SourceAlpha" type="matrix" values="0 0 0 0 0 0 0 0 0 0 0 0 0 0 0 0 0 0 127 0" result="hardAlpha"/>
<feOffset dx="8" dy="17"/>
<feGaussianBlur stdDeviation="2"/>
<feComposite in2="hardAlpha" operator="out"/>
<feColorMatrix type="matrix" values="0 0 0 0 0 0 0 0 0 0.396078 0 0 0 0 0.631373 0 0 0 0.2 0"/>
<feBlend mode="normal" in2="BackgroundImageFix" result="effect1_dropShadow_258_1154"/>
<feBlend mode="normal" in="SourceGraphic" in2="effect1_dropShadow_258_1154" result="shape"/>
</filter>
<clipPath id="clip0_258_1154">
<rect width="108" height="96" fill="white" transform="translate(2 2)"/>
</clipPath>
<clipPath id="clip1_258_1154">
<rect width="81.2168" height="74.7355" fill="white" transform="translate(40 -9)"/>
</clipPath>
</defs>
</svg>
