<svg width="112" height="100" viewBox="0 0 112 100" fill="none" xmlns="http://www.w3.org/2000/svg">
<rect x="1" y="1" width="110" height="98" rx="6" fill="white" stroke="black" stroke-width="2"/>
<g clip-path="url(#clip0_258_1262)">
<g clip-path="url(#clip1_258_1262)">
<path d="M116.658 46.1269L78.5103 47.3862L100.087 22.4964L116.658 46.1269Z" fill="#018057" fill-opacity="0.2"/>
<path d="M116.658 46.1269L78.5103 47.3862L100.087 22.4964L116.658 46.1269Z" fill="#018057" fill-opacity="0.2"/>
<path d="M54.0831 11.9786L88.4915 17.3233L62.2903 47.5475L54.0831 11.9786Z" fill="#FFC013" fill-opacity="0.2"/>
<path d="M106.322 2.28952L97.5713 22.7501L83 1.74638L106.322 2.28952Z" fill="#0065A1" fill-opacity="0.2"/>
</g>
<g filter="url(#filter0_d_258_1262)">
<path d="M-6 68.8876L0.406593 54L33.6044 58.1685L47 77.2247L37.6813 101.64L17.8791 107L-6 92.7079V68.8876Z" fill="#28282A"/>
<g filter="url(#filter1_d_258_1262)">
<path d="M0.457031 54L33.6548 58.1685L36.5669 62.3371L15.5999 61.1461L0.457031 54Z" fill="black"/>
</g>
<g filter="url(#filter2_d_258_1262)">
<path d="M-6 92.8789L20.0073 96.1799L37.5846 101.682L17.8549 107L-6 92.8789Z" fill="#28282A"/>
</g>
<g filter="url(#filter3_d_258_1262)">
<path d="M20.5425 88.4262H15.3025L14.4625 90.9062H10.8825L15.9625 76.8662H19.9225L25.0025 90.9062H21.3825L20.5425 88.4262ZM19.6625 85.7862L17.9225 80.6462L16.2025 85.7862H19.6625ZM36.4886 79.2862H30.2486V82.0462C30.5153 81.7529 30.8886 81.5129 31.3686 81.3262C31.8486 81.1396 32.3686 81.0462 32.9286 81.0462C33.9286 81.0462 34.7553 81.2729 35.4086 81.7262C36.0753 82.1796 36.5619 82.7662 36.8686 83.4862C37.1753 84.2062 37.3286 84.9862 37.3286 85.8262C37.3286 87.3862 36.8886 88.6262 36.0086 89.5462C35.1286 90.4529 33.8886 90.9062 32.2886 90.9062C31.2219 90.9062 30.2953 90.7262 29.5086 90.3662C28.7219 89.9929 28.1153 89.4796 27.6886 88.8262C27.2619 88.1729 27.0286 87.4196 26.9886 86.5662H30.3286C30.4086 86.9796 30.6019 87.3262 30.9086 87.6062C31.2153 87.8729 31.6353 88.0062 32.1686 88.0062C32.7953 88.0062 33.2619 87.8062 33.5686 87.4062C33.8753 87.0062 34.0286 86.4729 34.0286 85.8062C34.0286 85.1529 33.8686 84.6529 33.5486 84.3062C33.2286 83.9596 32.7619 83.7862 32.1486 83.7862C31.6953 83.7862 31.3219 83.8996 31.0286 84.1262C30.7353 84.3396 30.5419 84.6262 30.4486 84.9862H27.1486V76.2862H36.4886V79.2862Z" fill="white"/>
</g>
</g>
</g>
<defs>
<filter id="filter0_d_258_1262" x="-8" y="52" width="61" height="61" filterUnits="userSpaceOnUse" color-interpolation-filters="sRGB">
<feFlood flood-opacity="0" result="BackgroundImageFix"/>
<feColorMatrix in="SourceAlpha" type="matrix" values="0 0 0 0 0 0 0 0 0 0 0 0 0 0 0 0 0 0 127 0" result="hardAlpha"/>
<feOffset dx="2" dy="2"/>
<feGaussianBlur stdDeviation="2"/>
<feComposite in2="hardAlpha" operator="out"/>
<feColorMatrix type="matrix" values="0 0 0 0 0 0 0 0 0 0.396078 0 0 0 0 0.631373 0 0 0 0.2 0"/>
<feBlend mode="normal" in2="BackgroundImageFix" result="effect1_dropShadow_258_1262"/>
<feBlend mode="normal" in="SourceGraphic" in2="effect1_dropShadow_258_1262" result="shape"/>
</filter>
<filter id="filter1_d_258_1262" x="0.457031" y="54" width="48.1099" height="29.3369" filterUnits="userSpaceOnUse" color-interpolation-filters="sRGB">
<feFlood flood-opacity="0" result="BackgroundImageFix"/>
<feColorMatrix in="SourceAlpha" type="matrix" values="0 0 0 0 0 0 0 0 0 0 0 0 0 0 0 0 0 0 127 0" result="hardAlpha"/>
<feOffset dx="8" dy="17"/>
<feGaussianBlur stdDeviation="2"/>
<feComposite in2="hardAlpha" operator="out"/>
<feColorMatrix type="matrix" values="0 0 0 0 0 0 0 0 0 0.396078 0 0 0 0 0.631373 0 0 0 0.2 0"/>
<feBlend mode="normal" in2="BackgroundImageFix" result="effect1_dropShadow_258_1262"/>
<feBlend mode="normal" in="SourceGraphic" in2="effect1_dropShadow_258_1262" result="shape"/>
</filter>
<filter id="filter2_d_258_1262" x="-6" y="92.8789" width="55.5845" height="35.1211" filterUnits="userSpaceOnUse" color-interpolation-filters="sRGB">
<feFlood flood-opacity="0" result="BackgroundImageFix"/>
<feColorMatrix in="SourceAlpha" type="matrix" values="0 0 0 0 0 0 0 0 0 0 0 0 0 0 0 0 0 0 127 0" result="hardAlpha"/>
<feOffset dx="8" dy="17"/>
<feGaussianBlur stdDeviation="2"/>
<feComposite in2="hardAlpha" operator="out"/>
<feColorMatrix type="matrix" values="0 0 0 0 0 0 0 0 0 0.396078 0 0 0 0 0.631373 0 0 0 0.2 0"/>
<feBlend mode="normal" in2="BackgroundImageFix" result="effect1_dropShadow_258_1262"/>
<feBlend mode="normal" in="SourceGraphic" in2="effect1_dropShadow_258_1262" result="shape"/>
</filter>
<filter id="filter3_d_258_1262" x="10.8823" y="76.2861" width="38.4463" height="35.6201" filterUnits="userSpaceOnUse" color-interpolation-filters="sRGB">
<feFlood flood-opacity="0" result="BackgroundImageFix"/>
<feColorMatrix in="SourceAlpha" type="matrix" values="0 0 0 0 0 0 0 0 0 0 0 0 0 0 0 0 0 0 127 0" result="hardAlpha"/>
<feOffset dx="8" dy="17"/>
<feGaussianBlur stdDeviation="2"/>
<feComposite in2="hardAlpha" operator="out"/>
<feColorMatrix type="matrix" values="0 0 0 0 0 0 0 0 0 0.396078 0 0 0 0 0.631373 0 0 0 0.2 0"/>
<feBlend mode="normal" in2="BackgroundImageFix" result="effect1_dropShadow_258_1262"/>
<feBlend mode="normal" in="SourceGraphic" in2="effect1_dropShadow_258_1262" result="shape"/>
</filter>
<clipPath id="clip0_258_1262">
<rect width="108" height="96" fill="white" transform="translate(2 2)"/>
</clipPath>
<clipPath id="clip1_258_1262">
<rect width="81.2168" height="74.7355" fill="white" transform="translate(40 -9)"/>
</clipPath>
</defs>
</svg>
