<svg width="112" height="100" viewBox="0 0 112 100" fill="none" xmlns="http://www.w3.org/2000/svg">
<rect x="1" y="1" width="110" height="98" rx="6" fill="white" stroke="#018057" stroke-width="2"/>
<g clip-path="url(#clip0_258_1316)">
<g clip-path="url(#clip1_258_1316)">
<path d="M116.658 46.1269L78.5103 47.3862L100.087 22.4964L116.658 46.1269Z" fill="#018057" fill-opacity="0.2"/>
<path d="M116.658 46.1269L78.5103 47.3862L100.087 22.4964L116.658 46.1269Z" fill="#018057" fill-opacity="0.2"/>
<path d="M54.0831 11.9786L88.4915 17.3233L62.2903 47.5475L54.0831 11.9786Z" fill="#FFC013" fill-opacity="0.2"/>
<path d="M106.322 2.28952L97.5713 22.7501L83 1.74638L106.322 2.28952Z" fill="#0065A1" fill-opacity="0.2"/>
</g>
<g filter="url(#filter0_d_258_1316)">
<path d="M-6 68.8876L0.406593 54L33.6044 58.1685L47 77.2247L37.6813 101.64L17.8791 107L-6 92.7079V68.8876Z" fill="#009663"/>
<g filter="url(#filter1_d_258_1316)">
<path d="M0.457031 54L33.6548 58.1685L36.5669 62.3371L15.5999 61.1461L0.457031 54Z" fill="#028158"/>
</g>
<g filter="url(#filter2_d_258_1316)">
<path d="M-6 92.8789L20.0073 96.1799L37.5846 101.682L17.8549 107L-6 92.8789Z" fill="#009663"/>
</g>
<g filter="url(#filter3_d_258_1316)">
<path d="M20.5425 88.4262H15.3025L14.4625 90.9062H10.8825L15.9625 76.8662H19.9225L25.0025 90.9062H21.3825L20.5425 88.4262ZM19.6625 85.7862L17.9225 80.6462L16.2025 85.7862H19.6625ZM33.4286 80.2462C33.3219 79.7529 33.1353 79.3862 32.8686 79.1463C32.6019 78.8929 32.2219 78.7662 31.7286 78.7662C30.9686 78.7662 30.4219 79.0996 30.0886 79.7662C29.7553 80.4196 29.5819 81.4596 29.5686 82.8862C29.8619 82.4196 30.2819 82.0529 30.8286 81.7862C31.3886 81.5196 32.0019 81.3862 32.6686 81.3862C33.9753 81.3862 35.0219 81.7996 35.8086 82.6262C36.6086 83.4529 37.0086 84.6062 37.0086 86.0862C37.0086 87.0596 36.8086 87.9129 36.4086 88.6462C36.0219 89.3796 35.4486 89.9529 34.6886 90.3662C33.9419 90.7796 33.0553 90.9863 32.0286 90.9863C29.9753 90.9863 28.5486 90.3462 27.7486 89.0662C26.9486 87.7729 26.5486 85.9196 26.5486 83.5062C26.5486 80.9729 26.9686 79.0929 27.8086 77.8662C28.6619 76.6262 30.0219 76.0062 31.8886 76.0062C32.8886 76.0062 33.7286 76.2062 34.4086 76.6062C35.1019 76.9929 35.6219 77.5062 35.9686 78.1462C36.3286 78.7862 36.5419 79.4862 36.6086 80.2462H33.4286ZM31.8486 84.0862C31.2753 84.0862 30.7953 84.2596 30.4086 84.6062C30.0353 84.9396 29.8486 85.4196 29.8486 86.0462C29.8486 86.6862 30.0219 87.1862 30.3686 87.5462C30.7286 87.9062 31.2353 88.0862 31.8886 88.0862C32.4753 88.0862 32.9353 87.9129 33.2686 87.5662C33.6153 87.2062 33.7886 86.7196 33.7886 86.1062C33.7886 85.4796 33.6219 84.9862 33.2886 84.6262C32.9553 84.2662 32.4753 84.0862 31.8486 84.0862Z" fill="#28282A"/>
</g>
</g>
</g>
<defs>
<filter id="filter0_d_258_1316" x="-8" y="52" width="61" height="61" filterUnits="userSpaceOnUse" color-interpolation-filters="sRGB">
<feFlood flood-opacity="0" result="BackgroundImageFix"/>
<feColorMatrix in="SourceAlpha" type="matrix" values="0 0 0 0 0 0 0 0 0 0 0 0 0 0 0 0 0 0 127 0" result="hardAlpha"/>
<feOffset dx="2" dy="2"/>
<feGaussianBlur stdDeviation="2"/>
<feComposite in2="hardAlpha" operator="out"/>
<feColorMatrix type="matrix" values="0 0 0 0 0 0 0 0 0 0.396078 0 0 0 0 0.631373 0 0 0 0.2 0"/>
<feBlend mode="normal" in2="BackgroundImageFix" result="effect1_dropShadow_258_1316"/>
<feBlend mode="normal" in="SourceGraphic" in2="effect1_dropShadow_258_1316" result="shape"/>
</filter>
<filter id="filter1_d_258_1316" x="0.457031" y="54" width="48.1099" height="29.3369" filterUnits="userSpaceOnUse" color-interpolation-filters="sRGB">
<feFlood flood-opacity="0" result="BackgroundImageFix"/>
<feColorMatrix in="SourceAlpha" type="matrix" values="0 0 0 0 0 0 0 0 0 0 0 0 0 0 0 0 0 0 127 0" result="hardAlpha"/>
<feOffset dx="8" dy="17"/>
<feGaussianBlur stdDeviation="2"/>
<feComposite in2="hardAlpha" operator="out"/>
<feColorMatrix type="matrix" values="0 0 0 0 0 0 0 0 0 0.396078 0 0 0 0 0.631373 0 0 0 0.2 0"/>
<feBlend mode="normal" in2="BackgroundImageFix" result="effect1_dropShadow_258_1316"/>
<feBlend mode="normal" in="SourceGraphic" in2="effect1_dropShadow_258_1316" result="shape"/>
</filter>
<filter id="filter2_d_258_1316" x="-6" y="92.8789" width="55.5845" height="35.1211" filterUnits="userSpaceOnUse" color-interpolation-filters="sRGB">
<feFlood flood-opacity="0" result="BackgroundImageFix"/>
<feColorMatrix in="SourceAlpha" type="matrix" values="0 0 0 0 0 0 0 0 0 0 0 0 0 0 0 0 0 0 127 0" result="hardAlpha"/>
<feOffset dx="8" dy="17"/>
<feGaussianBlur stdDeviation="2"/>
<feComposite in2="hardAlpha" operator="out"/>
<feColorMatrix type="matrix" values="0 0 0 0 0 0 0 0 0 0.396078 0 0 0 0 0.631373 0 0 0 0.2 0"/>
<feBlend mode="normal" in2="BackgroundImageFix" result="effect1_dropShadow_258_1316"/>
<feBlend mode="normal" in="SourceGraphic" in2="effect1_dropShadow_258_1316" result="shape"/>
</filter>
<filter id="filter3_d_258_1316" x="10.8823" y="76.0063" width="38.1265" height="35.98" filterUnits="userSpaceOnUse" color-interpolation-filters="sRGB">
<feFlood flood-opacity="0" result="BackgroundImageFix"/>
<feColorMatrix in="SourceAlpha" type="matrix" values="0 0 0 0 0 0 0 0 0 0 0 0 0 0 0 0 0 0 127 0" result="hardAlpha"/>
<feOffset dx="8" dy="17"/>
<feGaussianBlur stdDeviation="2"/>
<feComposite in2="hardAlpha" operator="out"/>
<feColorMatrix type="matrix" values="0 0 0 0 0 0 0 0 0 0.396078 0 0 0 0 0.631373 0 0 0 0.2 0"/>
<feBlend mode="normal" in2="BackgroundImageFix" result="effect1_dropShadow_258_1316"/>
<feBlend mode="normal" in="SourceGraphic" in2="effect1_dropShadow_258_1316" result="shape"/>
</filter>
<clipPath id="clip0_258_1316">
<rect width="108" height="96" fill="white" transform="translate(2 2)"/>
</clipPath>
<clipPath id="clip1_258_1316">
<rect width="81.2168" height="74.7355" fill="white" transform="translate(40 -9)"/>
</clipPath>
</defs>
</svg>
