<svg width="112" height="100" viewBox="0 0 112 100" fill="none" xmlns="http://www.w3.org/2000/svg">
<rect x="1" y="1" width="110" height="98" rx="6" fill="white" stroke="#0065A1" stroke-width="2"/>
<g clip-path="url(#clip0_258_1412)">
<g clip-path="url(#clip1_258_1412)">
<path d="M116.658 46.1269L78.5103 47.3862L100.087 22.4964L116.658 46.1269Z" fill="#018057" fill-opacity="0.2"/>
<path d="M116.658 46.1269L78.5103 47.3862L100.087 22.4964L116.658 46.1269Z" fill="#018057" fill-opacity="0.2"/>
<path d="M54.0831 11.9786L88.4915 17.3233L62.2903 47.5475L54.0831 11.9786Z" fill="#FFC013" fill-opacity="0.2"/>
<path d="M106.322 2.28952L97.5713 22.7501L83 1.74638L106.322 2.28952Z" fill="#0065A1" fill-opacity="0.2"/>
</g>
<g filter="url(#filter0_d_258_1412)">
<path d="M-6 68.8876L0.406593 54L33.6044 58.1685L47 77.2247L37.6813 101.64L17.8791 107L-6 92.7079V68.8876Z" fill="#006FB4"/>
<g filter="url(#filter1_d_258_1412)">
<path d="M0.457031 54L33.6548 58.1685L36.5669 62.3371L15.5999 61.1461L0.457031 54Z" fill="#0065A1"/>
</g>
<g filter="url(#filter2_d_258_1412)">
<path d="M-6 92.8789L20.0073 96.1799L37.5846 101.682L17.8549 107L-6 92.8789Z" fill="#006FB4"/>
</g>
<g filter="url(#filter3_d_258_1412)">
<path d="M20.5425 88.4262H15.3025L14.4625 90.9062H10.8825L15.9625 76.8662H19.9225L25.0025 90.9062H21.3825L20.5425 88.4262ZM19.6625 85.7862L17.9225 80.6462L16.2025 85.7862H19.6625ZM28.6086 83.0662C27.3553 82.3996 26.7286 81.3529 26.7286 79.9262C26.7286 79.2062 26.9153 78.5529 27.2886 77.9662C27.6619 77.3662 28.2286 76.8929 28.9886 76.5462C29.7486 76.1862 30.6819 76.0062 31.7886 76.0062C32.8953 76.0062 33.8219 76.1862 34.5686 76.5462C35.3286 76.8929 35.8953 77.3662 36.2686 77.9662C36.6419 78.5529 36.8286 79.2062 36.8286 79.9262C36.8286 80.6462 36.6553 81.2729 36.3086 81.8062C35.9753 82.3396 35.5219 82.7596 34.9486 83.0662C35.6686 83.4129 36.2219 83.8929 36.6086 84.5062C36.9953 85.1062 37.1886 85.8129 37.1886 86.6262C37.1886 87.5729 36.9486 88.3929 36.4686 89.0862C35.9886 89.7662 35.3353 90.2862 34.5086 90.6462C33.6953 91.0063 32.7886 91.1863 31.7886 91.1863C30.7886 91.1863 29.8753 91.0063 29.0486 90.6462C28.2353 90.2862 27.5886 89.7662 27.1086 89.0862C26.6286 88.3929 26.3886 87.5729 26.3886 86.6262C26.3886 85.7996 26.5819 85.0862 26.9686 84.4862C27.3553 83.8729 27.9019 83.3996 28.6086 83.0662ZM33.5086 80.4462C33.5086 79.8996 33.3486 79.4796 33.0286 79.1862C32.7219 78.8796 32.3086 78.7262 31.7886 78.7262C31.2686 78.7262 30.8486 78.8796 30.5286 79.1862C30.2219 79.4929 30.0686 79.9196 30.0686 80.4662C30.0686 80.9862 30.2286 81.3996 30.5486 81.7062C30.8686 81.9996 31.2819 82.1462 31.7886 82.1462C32.2953 82.1462 32.7086 81.9929 33.0286 81.6862C33.3486 81.3796 33.5086 80.9662 33.5086 80.4462ZM31.7886 84.5462C31.1619 84.5462 30.6553 84.7196 30.2686 85.0662C29.8819 85.3996 29.6886 85.8662 29.6886 86.4662C29.6886 87.0262 29.8753 87.4862 30.2486 87.8462C30.6353 88.2062 31.1486 88.3862 31.7886 88.3862C32.4286 88.3862 32.9286 88.2062 33.2886 87.8462C33.6619 87.4862 33.8486 87.0262 33.8486 86.4662C33.8486 85.8796 33.6553 85.4129 33.2686 85.0662C32.8953 84.7196 32.4019 84.5462 31.7886 84.5462Z" fill="#28282A"/>
</g>
</g>
</g>
<defs>
<filter id="filter0_d_258_1412" x="-8" y="52" width="61" height="61" filterUnits="userSpaceOnUse" color-interpolation-filters="sRGB">
<feFlood flood-opacity="0" result="BackgroundImageFix"/>
<feColorMatrix in="SourceAlpha" type="matrix" values="0 0 0 0 0 0 0 0 0 0 0 0 0 0 0 0 0 0 127 0" result="hardAlpha"/>
<feOffset dx="2" dy="2"/>
<feGaussianBlur stdDeviation="2"/>
<feComposite in2="hardAlpha" operator="out"/>
<feColorMatrix type="matrix" values="0 0 0 0 0 0 0 0 0 0.396078 0 0 0 0 0.631373 0 0 0 0.2 0"/>
<feBlend mode="normal" in2="BackgroundImageFix" result="effect1_dropShadow_258_1412"/>
<feBlend mode="normal" in="SourceGraphic" in2="effect1_dropShadow_258_1412" result="shape"/>
</filter>
<filter id="filter1_d_258_1412" x="0.457031" y="54" width="48.1099" height="29.3369" filterUnits="userSpaceOnUse" color-interpolation-filters="sRGB">
<feFlood flood-opacity="0" result="BackgroundImageFix"/>
<feColorMatrix in="SourceAlpha" type="matrix" values="0 0 0 0 0 0 0 0 0 0 0 0 0 0 0 0 0 0 127 0" result="hardAlpha"/>
<feOffset dx="8" dy="17"/>
<feGaussianBlur stdDeviation="2"/>
<feComposite in2="hardAlpha" operator="out"/>
<feColorMatrix type="matrix" values="0 0 0 0 0 0 0 0 0 0.396078 0 0 0 0 0.631373 0 0 0 0.2 0"/>
<feBlend mode="normal" in2="BackgroundImageFix" result="effect1_dropShadow_258_1412"/>
<feBlend mode="normal" in="SourceGraphic" in2="effect1_dropShadow_258_1412" result="shape"/>
</filter>
<filter id="filter2_d_258_1412" x="-6" y="92.8789" width="55.5845" height="35.1211" filterUnits="userSpaceOnUse" color-interpolation-filters="sRGB">
<feFlood flood-opacity="0" result="BackgroundImageFix"/>
<feColorMatrix in="SourceAlpha" type="matrix" values="0 0 0 0 0 0 0 0 0 0 0 0 0 0 0 0 0 0 127 0" result="hardAlpha"/>
<feOffset dx="8" dy="17"/>
<feGaussianBlur stdDeviation="2"/>
<feComposite in2="hardAlpha" operator="out"/>
<feColorMatrix type="matrix" values="0 0 0 0 0 0 0 0 0 0.396078 0 0 0 0 0.631373 0 0 0 0.2 0"/>
<feBlend mode="normal" in2="BackgroundImageFix" result="effect1_dropShadow_258_1412"/>
<feBlend mode="normal" in="SourceGraphic" in2="effect1_dropShadow_258_1412" result="shape"/>
</filter>
<filter id="filter3_d_258_1412" x="10.8823" y="76.0063" width="38.3062" height="36.1797" filterUnits="userSpaceOnUse" color-interpolation-filters="sRGB">
<feFlood flood-opacity="0" result="BackgroundImageFix"/>
<feColorMatrix in="SourceAlpha" type="matrix" values="0 0 0 0 0 0 0 0 0 0 0 0 0 0 0 0 0 0 127 0" result="hardAlpha"/>
<feOffset dx="8" dy="17"/>
<feGaussianBlur stdDeviation="2"/>
<feComposite in2="hardAlpha" operator="out"/>
<feColorMatrix type="matrix" values="0 0 0 0 0 0 0 0 0 0.396078 0 0 0 0 0.631373 0 0 0 0.2 0"/>
<feBlend mode="normal" in2="BackgroundImageFix" result="effect1_dropShadow_258_1412"/>
<feBlend mode="normal" in="SourceGraphic" in2="effect1_dropShadow_258_1412" result="shape"/>
</filter>
<clipPath id="clip0_258_1412">
<rect width="108" height="96" fill="white" transform="translate(2 2)"/>
</clipPath>
<clipPath id="clip1_258_1412">
<rect width="81.2168" height="74.7355" fill="white" transform="translate(40 -9)"/>
</clipPath>
</defs>
</svg>
