<svg width="112" height="100" viewBox="0 0 112 100" fill="none" xmlns="http://www.w3.org/2000/svg">
<rect x="1" y="1" width="110" height="98" rx="6" fill="white" stroke="#E5A419" stroke-width="2"/>
<g clip-path="url(#clip0_258_1418)">
<g clip-path="url(#clip1_258_1418)">
<path d="M116.658 46.1269L78.5103 47.3862L100.087 22.4964L116.658 46.1269Z" fill="#018057" fill-opacity="0.2"/>
<path d="M116.658 46.1269L78.5103 47.3862L100.087 22.4964L116.658 46.1269Z" fill="#018057" fill-opacity="0.2"/>
<path d="M54.0831 11.9786L88.4915 17.3233L62.2903 47.5475L54.0831 11.9786Z" fill="#FFC013" fill-opacity="0.2"/>
<path d="M106.322 2.28952L97.5713 22.7501L83 1.74638L106.322 2.28952Z" fill="#0065A1" fill-opacity="0.2"/>
</g>
<g filter="url(#filter0_d_258_1418)">
<path d="M-6 68.8876L0.406593 54L33.6044 58.1685L47 77.2247L37.6813 101.64L17.8791 107L-6 92.7079V68.8876Z" fill="#FFC013"/>
<g filter="url(#filter1_d_258_1418)">
<path d="M0.457031 54L33.6548 58.1685L36.5669 62.3371L15.5999 61.1461L0.457031 54Z" fill="#E5A419"/>
</g>
<g filter="url(#filter2_d_258_1418)">
<path d="M-6 92.8789L20.0073 96.1799L37.5846 101.682L17.8549 107L-6 92.8789Z" fill="#FFC013"/>
</g>
<g filter="url(#filter3_d_258_1418)">
<path d="M20.5425 88.4262H15.3025L14.4625 90.9062H10.8825L15.9625 76.8662H19.9225L25.0025 90.9062H21.3825L20.5425 88.4262ZM19.6625 85.7862L17.9225 80.6462L16.2025 85.7862H19.6625ZM29.8886 86.6262C30.0886 87.6796 30.7019 88.2062 31.7286 88.2062C32.4353 88.2062 32.9353 87.8929 33.2286 87.2662C33.5219 86.6396 33.6686 85.6196 33.6686 84.2062C33.3753 84.6196 32.9753 84.9396 32.4686 85.1662C31.9619 85.3929 31.3953 85.5062 30.7686 85.5062C29.9153 85.5062 29.1553 85.3329 28.4886 84.9862C27.8219 84.6262 27.2953 84.0996 26.9086 83.4062C26.5353 82.6996 26.3486 81.8462 26.3486 80.8462C26.3486 79.8596 26.5486 78.9996 26.9486 78.2662C27.3619 77.5329 27.9419 76.9662 28.6886 76.5662C29.4486 76.1662 30.3419 75.9662 31.3686 75.9662C33.3419 75.9662 34.7219 76.5796 35.5086 77.8062C36.2953 79.0329 36.6886 80.8396 36.6886 83.2262C36.6886 84.9596 36.5286 86.3929 36.2086 87.5262C35.9019 88.6462 35.3753 89.4996 34.6286 90.0862C33.8953 90.6729 32.8886 90.9663 31.6086 90.9663C30.5953 90.9663 29.7286 90.7662 29.0086 90.3662C28.3019 89.9662 27.7553 89.4396 27.3686 88.7862C26.9953 88.1329 26.7819 87.4129 26.7286 86.6262H29.8886ZM31.5486 82.8062C32.1086 82.8062 32.5553 82.6396 32.8886 82.3062C33.2219 81.9596 33.3886 81.4929 33.3886 80.9062C33.3886 80.2662 33.2153 79.7729 32.8686 79.4262C32.5219 79.0796 32.0553 78.9062 31.4686 78.9062C30.8819 78.9062 30.4153 79.0862 30.0686 79.4462C29.7353 79.7929 29.5686 80.2729 29.5686 80.8862C29.5686 81.4596 29.7353 81.9262 30.0686 82.2862C30.4153 82.6329 30.9086 82.8062 31.5486 82.8062Z" fill="#28282A"/>
</g>
</g>
</g>
<defs>
<filter id="filter0_d_258_1418" x="-8" y="52" width="61" height="61" filterUnits="userSpaceOnUse" color-interpolation-filters="sRGB">
<feFlood flood-opacity="0" result="BackgroundImageFix"/>
<feColorMatrix in="SourceAlpha" type="matrix" values="0 0 0 0 0 0 0 0 0 0 0 0 0 0 0 0 0 0 127 0" result="hardAlpha"/>
<feOffset dx="2" dy="2"/>
<feGaussianBlur stdDeviation="2"/>
<feComposite in2="hardAlpha" operator="out"/>
<feColorMatrix type="matrix" values="0 0 0 0 0 0 0 0 0 0.396078 0 0 0 0 0.631373 0 0 0 0.2 0"/>
<feBlend mode="normal" in2="BackgroundImageFix" result="effect1_dropShadow_258_1418"/>
<feBlend mode="normal" in="SourceGraphic" in2="effect1_dropShadow_258_1418" result="shape"/>
</filter>
<filter id="filter1_d_258_1418" x="0.457031" y="54" width="48.1099" height="29.3369" filterUnits="userSpaceOnUse" color-interpolation-filters="sRGB">
<feFlood flood-opacity="0" result="BackgroundImageFix"/>
<feColorMatrix in="SourceAlpha" type="matrix" values="0 0 0 0 0 0 0 0 0 0 0 0 0 0 0 0 0 0 127 0" result="hardAlpha"/>
<feOffset dx="8" dy="17"/>
<feGaussianBlur stdDeviation="2"/>
<feComposite in2="hardAlpha" operator="out"/>
<feColorMatrix type="matrix" values="0 0 0 0 0 0 0 0 0 0.396078 0 0 0 0 0.631373 0 0 0 0.2 0"/>
<feBlend mode="normal" in2="BackgroundImageFix" result="effect1_dropShadow_258_1418"/>
<feBlend mode="normal" in="SourceGraphic" in2="effect1_dropShadow_258_1418" result="shape"/>
</filter>
<filter id="filter2_d_258_1418" x="-6" y="92.8789" width="55.5845" height="35.1211" filterUnits="userSpaceOnUse" color-interpolation-filters="sRGB">
<feFlood flood-opacity="0" result="BackgroundImageFix"/>
<feColorMatrix in="SourceAlpha" type="matrix" values="0 0 0 0 0 0 0 0 0 0 0 0 0 0 0 0 0 0 127 0" result="hardAlpha"/>
<feOffset dx="8" dy="17"/>
<feGaussianBlur stdDeviation="2"/>
<feComposite in2="hardAlpha" operator="out"/>
<feColorMatrix type="matrix" values="0 0 0 0 0 0 0 0 0 0.396078 0 0 0 0 0.631373 0 0 0 0.2 0"/>
<feBlend mode="normal" in2="BackgroundImageFix" result="effect1_dropShadow_258_1418"/>
<feBlend mode="normal" in="SourceGraphic" in2="effect1_dropShadow_258_1418" result="shape"/>
</filter>
<filter id="filter3_d_258_1418" x="10.8823" y="75.9663" width="37.8062" height="36" filterUnits="userSpaceOnUse" color-interpolation-filters="sRGB">
<feFlood flood-opacity="0" result="BackgroundImageFix"/>
<feColorMatrix in="SourceAlpha" type="matrix" values="0 0 0 0 0 0 0 0 0 0 0 0 0 0 0 0 0 0 127 0" result="hardAlpha"/>
<feOffset dx="8" dy="17"/>
<feGaussianBlur stdDeviation="2"/>
<feComposite in2="hardAlpha" operator="out"/>
<feColorMatrix type="matrix" values="0 0 0 0 0 0 0 0 0 0.396078 0 0 0 0 0.631373 0 0 0 0.2 0"/>
<feBlend mode="normal" in2="BackgroundImageFix" result="effect1_dropShadow_258_1418"/>
<feBlend mode="normal" in="SourceGraphic" in2="effect1_dropShadow_258_1418" result="shape"/>
</filter>
<clipPath id="clip0_258_1418">
<rect width="108" height="96" fill="white" transform="translate(2 2)"/>
</clipPath>
<clipPath id="clip1_258_1418">
<rect width="81.2168" height="74.7355" fill="white" transform="translate(40 -9)"/>
</clipPath>
</defs>
</svg>
