<svg width="112" height="100" viewBox="0 0 112 100" fill="none" xmlns="http://www.w3.org/2000/svg">
<rect x="1" y="1" width="110" height="98" rx="6" fill="white" stroke="#0065A1" stroke-width="2"/>
<g clip-path="url(#clip0_258_1166)">
<g clip-path="url(#clip1_258_1166)">
<path d="M116.658 46.1269L78.5103 47.3862L100.087 22.4964L116.658 46.1269Z" fill="#018057" fill-opacity="0.2"/>
<path d="M116.658 46.1269L78.5103 47.3862L100.087 22.4964L116.658 46.1269Z" fill="#018057" fill-opacity="0.2"/>
<path d="M54.0831 11.9786L88.4915 17.3233L62.2903 47.5475L54.0831 11.9786Z" fill="#FFC013" fill-opacity="0.2"/>
<path d="M106.322 2.28952L97.5713 22.7501L83 1.74638L106.322 2.28952Z" fill="#0065A1" fill-opacity="0.2"/>
</g>
<g filter="url(#filter0_d_258_1166)">
<path d="M-6 68.8876L0.406593 54L33.6044 58.1685L47 77.2247L37.6813 101.64L17.8791 107L-6 92.7079V68.8876Z" fill="#006FB4"/>
<g filter="url(#filter1_d_258_1166)">
<path d="M0.457031 54L33.6548 58.1685L36.5669 62.3371L15.5999 61.1461L0.457031 54Z" fill="#0065A1"/>
</g>
<g filter="url(#filter2_d_258_1166)">
<path d="M-6 92.8789L20.0073 96.1799L37.5846 101.682L17.8549 107L-6 92.8789Z" fill="#006FB4"/>
</g>
<g filter="url(#filter3_d_258_1166)">
<path d="M19.6705 82.3902C20.4145 82.5582 21.0025 82.9302 21.4345 83.5062C21.8785 84.0702 22.1005 84.7182 22.1005 85.4502C22.1005 86.5302 21.7285 87.3762 20.9845 87.9882C20.2405 88.6002 19.1965 88.9062 17.8525 88.9062H11.5705V76.2162H17.6545C18.9505 76.2162 19.9645 76.5042 20.6965 77.0802C21.4405 77.6562 21.8125 78.4662 21.8125 79.5102C21.8125 80.2542 21.6145 80.8782 21.2185 81.3822C20.8345 81.8742 20.3185 82.2102 19.6705 82.3902ZM15.0985 81.2562H16.8805C17.7685 81.2562 18.2125 80.8902 18.2125 80.1582C18.2125 79.4022 17.7685 79.0242 16.8805 79.0242H15.0985V81.2562ZM17.1505 86.0622C18.0385 86.0622 18.4825 85.6902 18.4825 84.9462C18.4825 84.5622 18.3625 84.2682 18.1225 84.0642C17.8945 83.8602 17.5645 83.7582 17.1325 83.7582H15.0985V86.0622H17.1505ZM22.9627 79.0602V75.7482H28.5067V88.9062H24.8167V79.0602H22.9627ZM30.3016 82.1382C30.3016 80.0742 30.7216 78.4482 31.5616 77.2602C32.4016 76.0722 33.7216 75.4782 35.5216 75.4782C37.3216 75.4782 38.6416 76.0722 39.4816 77.2602C40.3336 78.4482 40.7596 80.0742 40.7596 82.1382C40.7596 84.2262 40.3396 85.8642 39.4996 87.0522C38.6596 88.2402 37.3336 88.8342 35.5216 88.8342C33.7096 88.8342 32.3836 88.2402 31.5436 87.0522C30.7156 85.8642 30.3016 84.2262 30.3016 82.1382ZM37.2676 82.1382C37.2676 81.0582 37.1536 80.2362 36.9256 79.6722C36.6976 79.0962 36.2296 78.8082 35.5216 78.8082C34.8136 78.8082 34.3456 79.0962 34.1176 79.6722C33.8896 80.2362 33.7756 81.0582 33.7756 82.1382C33.7756 83.2422 33.8836 84.0822 34.0996 84.6582C34.3276 85.2222 34.8016 85.5042 35.5216 85.5042C36.2416 85.5042 36.7096 85.2222 36.9256 84.6582C37.1536 84.0822 37.2676 83.2422 37.2676 82.1382Z" fill="#28282A"/>
</g>
</g>
</g>
<defs>
<filter id="filter0_d_258_1166" x="-8" y="52" width="61" height="61" filterUnits="userSpaceOnUse" color-interpolation-filters="sRGB">
<feFlood flood-opacity="0" result="BackgroundImageFix"/>
<feColorMatrix in="SourceAlpha" type="matrix" values="0 0 0 0 0 0 0 0 0 0 0 0 0 0 0 0 0 0 127 0" result="hardAlpha"/>
<feOffset dx="2" dy="2"/>
<feGaussianBlur stdDeviation="2"/>
<feComposite in2="hardAlpha" operator="out"/>
<feColorMatrix type="matrix" values="0 0 0 0 0 0 0 0 0 0.396078 0 0 0 0 0.631373 0 0 0 0.2 0"/>
<feBlend mode="normal" in2="BackgroundImageFix" result="effect1_dropShadow_258_1166"/>
<feBlend mode="normal" in="SourceGraphic" in2="effect1_dropShadow_258_1166" result="shape"/>
</filter>
<filter id="filter1_d_258_1166" x="0.457031" y="54" width="48.1099" height="29.3369" filterUnits="userSpaceOnUse" color-interpolation-filters="sRGB">
<feFlood flood-opacity="0" result="BackgroundImageFix"/>
<feColorMatrix in="SourceAlpha" type="matrix" values="0 0 0 0 0 0 0 0 0 0 0 0 0 0 0 0 0 0 127 0" result="hardAlpha"/>
<feOffset dx="8" dy="17"/>
<feGaussianBlur stdDeviation="2"/>
<feComposite in2="hardAlpha" operator="out"/>
<feColorMatrix type="matrix" values="0 0 0 0 0 0 0 0 0 0.396078 0 0 0 0 0.631373 0 0 0 0.2 0"/>
<feBlend mode="normal" in2="BackgroundImageFix" result="effect1_dropShadow_258_1166"/>
<feBlend mode="normal" in="SourceGraphic" in2="effect1_dropShadow_258_1166" result="shape"/>
</filter>
<filter id="filter2_d_258_1166" x="-6" y="92.8789" width="55.5845" height="35.1211" filterUnits="userSpaceOnUse" color-interpolation-filters="sRGB">
<feFlood flood-opacity="0" result="BackgroundImageFix"/>
<feColorMatrix in="SourceAlpha" type="matrix" values="0 0 0 0 0 0 0 0 0 0 0 0 0 0 0 0 0 0 127 0" result="hardAlpha"/>
<feOffset dx="8" dy="17"/>
<feGaussianBlur stdDeviation="2"/>
<feComposite in2="hardAlpha" operator="out"/>
<feColorMatrix type="matrix" values="0 0 0 0 0 0 0 0 0 0.396078 0 0 0 0 0.631373 0 0 0 0.2 0"/>
<feBlend mode="normal" in2="BackgroundImageFix" result="effect1_dropShadow_258_1166"/>
<feBlend mode="normal" in="SourceGraphic" in2="effect1_dropShadow_258_1166" result="shape"/>
</filter>
<filter id="filter3_d_258_1166" x="11.5703" y="75.478" width="41.1895" height="34.4282" filterUnits="userSpaceOnUse" color-interpolation-filters="sRGB">
<feFlood flood-opacity="0" result="BackgroundImageFix"/>
<feColorMatrix in="SourceAlpha" type="matrix" values="0 0 0 0 0 0 0 0 0 0 0 0 0 0 0 0 0 0 127 0" result="hardAlpha"/>
<feOffset dx="8" dy="17"/>
<feGaussianBlur stdDeviation="2"/>
<feComposite in2="hardAlpha" operator="out"/>
<feColorMatrix type="matrix" values="0 0 0 0 0 0 0 0 0 0.396078 0 0 0 0 0.631373 0 0 0 0.2 0"/>
<feBlend mode="normal" in2="BackgroundImageFix" result="effect1_dropShadow_258_1166"/>
<feBlend mode="normal" in="SourceGraphic" in2="effect1_dropShadow_258_1166" result="shape"/>
</filter>
<clipPath id="clip0_258_1166">
<rect width="108" height="96" fill="white" transform="translate(2 2)"/>
</clipPath>
<clipPath id="clip1_258_1166">
<rect width="81.2168" height="74.7355" fill="white" transform="translate(40 -9)"/>
</clipPath>
</defs>
</svg>
