<svg width="112" height="100" viewBox="0 0 112 100" fill="none" xmlns="http://www.w3.org/2000/svg">
<rect x="1" y="1" width="110" height="98" rx="6" fill="white" stroke="#E5A419" stroke-width="2"/>
<g clip-path="url(#clip0_258_1424)">
<g clip-path="url(#clip1_258_1424)">
<path d="M116.658 46.1269L78.5103 47.3862L100.087 22.4964L116.658 46.1269Z" fill="#018057" fill-opacity="0.2"/>
<path d="M116.658 46.1269L78.5103 47.3862L100.087 22.4964L116.658 46.1269Z" fill="#018057" fill-opacity="0.2"/>
<path d="M54.0831 11.9786L88.4915 17.3233L62.2903 47.5475L54.0831 11.9786Z" fill="#FFC013" fill-opacity="0.2"/>
<path d="M106.322 2.28952L97.5713 22.7501L83 1.74638L106.322 2.28952Z" fill="#0065A1" fill-opacity="0.2"/>
</g>
<g filter="url(#filter0_d_258_1424)">
<path d="M-6 68.8876L0.406593 54L33.6044 58.1685L47 77.2247L37.6813 101.64L17.8791 107L-6 92.7079V68.8876Z" fill="#FFC013"/>
<g filter="url(#filter1_d_258_1424)">
<path d="M0.457031 54L33.6548 58.1685L36.5669 62.3371L15.5999 61.1461L0.457031 54Z" fill="#E5A419"/>
</g>
<g filter="url(#filter2_d_258_1424)">
<path d="M-6 92.8789L20.0073 96.1799L37.5846 101.682L17.8549 107L-6 92.8789Z" fill="#FFC013"/>
</g>
<g filter="url(#filter3_d_258_1424)">
<path d="M20.3025 83.7062C21.1158 83.8796 21.7692 84.2862 22.2625 84.9262C22.7558 85.5529 23.0025 86.2729 23.0025 87.0862C23.0025 88.2596 22.5892 89.1929 21.7625 89.8862C20.9492 90.5662 19.8092 90.9062 18.3425 90.9062H11.8025V76.8662H18.1225C19.5492 76.8662 20.6625 77.1929 21.4625 77.8462C22.2758 78.4996 22.6825 79.3862 22.6825 80.5062C22.6825 81.3329 22.4625 82.0196 22.0225 82.5662C21.5958 83.1129 21.0225 83.4929 20.3025 83.7062ZM15.2225 82.5462H17.4625C18.0225 82.5462 18.4492 82.4262 18.7425 82.1862C19.0492 81.9329 19.2025 81.5662 19.2025 81.0862C19.2025 80.6062 19.0492 80.2396 18.7425 79.9862C18.4492 79.7329 18.0225 79.6063 17.4625 79.6063H15.2225V82.5462ZM17.7425 88.1462C18.3158 88.1462 18.7558 88.0196 19.0625 87.7662C19.3825 87.4996 19.5425 87.1196 19.5425 86.6262C19.5425 86.1329 19.3758 85.7462 19.0425 85.4662C18.7225 85.1862 18.2758 85.0462 17.7025 85.0462H15.2225V88.1462H17.7425ZM24.7661 80.4262C24.8194 78.9996 25.2861 77.8996 26.1661 77.1262C27.0461 76.3529 28.2394 75.9662 29.7461 75.9662C30.7461 75.9662 31.5994 76.1396 32.3061 76.4862C33.0261 76.8329 33.5661 77.3062 33.9261 77.9062C34.2994 78.5062 34.4861 79.1796 34.4861 79.9262C34.4861 80.8062 34.2661 81.5262 33.8261 82.0862C33.3861 82.6329 32.8728 83.0062 32.2861 83.2062V83.2862C33.0461 83.5396 33.6461 83.9596 34.0861 84.5462C34.5261 85.1329 34.7461 85.8862 34.7461 86.8062C34.7461 87.6329 34.5528 88.3662 34.1661 89.0062C33.7928 89.6329 33.2394 90.1262 32.5061 90.4862C31.7861 90.8462 30.9261 91.0263 29.9261 91.0263C28.3261 91.0263 27.0461 90.6329 26.0861 89.8462C25.1394 89.0596 24.6394 87.8729 24.5861 86.2862H27.9061C27.9194 86.8729 28.0861 87.3396 28.4061 87.6862C28.7261 88.0196 29.1928 88.1862 29.8061 88.1862C30.3261 88.1862 30.7261 88.0396 31.0061 87.7462C31.2994 87.4396 31.4461 87.0396 31.4461 86.5462C31.4461 85.9062 31.2394 85.4462 30.8261 85.1662C30.4261 84.8729 29.7794 84.7262 28.8861 84.7262H28.2461V81.9462H28.8861C29.5661 81.9462 30.1128 81.8329 30.5261 81.6062C30.9528 81.3662 31.1661 80.9462 31.1661 80.3463C31.1661 79.8662 31.0328 79.4929 30.7661 79.2262C30.4994 78.9596 30.1328 78.8262 29.6661 78.8262C29.1594 78.8262 28.7794 78.9796 28.5261 79.2862C28.2861 79.5929 28.1461 79.9729 28.1061 80.4262H24.7661Z" fill="#28282A"/>
</g>
</g>
</g>
<defs>
<filter id="filter0_d_258_1424" x="-8" y="52" width="61" height="61" filterUnits="userSpaceOnUse" color-interpolation-filters="sRGB">
<feFlood flood-opacity="0" result="BackgroundImageFix"/>
<feColorMatrix in="SourceAlpha" type="matrix" values="0 0 0 0 0 0 0 0 0 0 0 0 0 0 0 0 0 0 127 0" result="hardAlpha"/>
<feOffset dx="2" dy="2"/>
<feGaussianBlur stdDeviation="2"/>
<feComposite in2="hardAlpha" operator="out"/>
<feColorMatrix type="matrix" values="0 0 0 0 0 0 0 0 0 0.396078 0 0 0 0 0.631373 0 0 0 0.2 0"/>
<feBlend mode="normal" in2="BackgroundImageFix" result="effect1_dropShadow_258_1424"/>
<feBlend mode="normal" in="SourceGraphic" in2="effect1_dropShadow_258_1424" result="shape"/>
</filter>
<filter id="filter1_d_258_1424" x="0.457031" y="54" width="48.1099" height="29.3369" filterUnits="userSpaceOnUse" color-interpolation-filters="sRGB">
<feFlood flood-opacity="0" result="BackgroundImageFix"/>
<feColorMatrix in="SourceAlpha" type="matrix" values="0 0 0 0 0 0 0 0 0 0 0 0 0 0 0 0 0 0 127 0" result="hardAlpha"/>
<feOffset dx="8" dy="17"/>
<feGaussianBlur stdDeviation="2"/>
<feComposite in2="hardAlpha" operator="out"/>
<feColorMatrix type="matrix" values="0 0 0 0 0 0 0 0 0 0.396078 0 0 0 0 0.631373 0 0 0 0.2 0"/>
<feBlend mode="normal" in2="BackgroundImageFix" result="effect1_dropShadow_258_1424"/>
<feBlend mode="normal" in="SourceGraphic" in2="effect1_dropShadow_258_1424" result="shape"/>
</filter>
<filter id="filter2_d_258_1424" x="-6" y="92.8789" width="55.5845" height="35.1211" filterUnits="userSpaceOnUse" color-interpolation-filters="sRGB">
<feFlood flood-opacity="0" result="BackgroundImageFix"/>
<feColorMatrix in="SourceAlpha" type="matrix" values="0 0 0 0 0 0 0 0 0 0 0 0 0 0 0 0 0 0 127 0" result="hardAlpha"/>
<feOffset dx="8" dy="17"/>
<feGaussianBlur stdDeviation="2"/>
<feComposite in2="hardAlpha" operator="out"/>
<feColorMatrix type="matrix" values="0 0 0 0 0 0 0 0 0 0.396078 0 0 0 0 0.631373 0 0 0 0.2 0"/>
<feBlend mode="normal" in2="BackgroundImageFix" result="effect1_dropShadow_258_1424"/>
<feBlend mode="normal" in="SourceGraphic" in2="effect1_dropShadow_258_1424" result="shape"/>
</filter>
<filter id="filter3_d_258_1424" x="11.8027" y="75.9663" width="34.9434" height="36.0601" filterUnits="userSpaceOnUse" color-interpolation-filters="sRGB">
<feFlood flood-opacity="0" result="BackgroundImageFix"/>
<feColorMatrix in="SourceAlpha" type="matrix" values="0 0 0 0 0 0 0 0 0 0 0 0 0 0 0 0 0 0 127 0" result="hardAlpha"/>
<feOffset dx="8" dy="17"/>
<feGaussianBlur stdDeviation="2"/>
<feComposite in2="hardAlpha" operator="out"/>
<feColorMatrix type="matrix" values="0 0 0 0 0 0 0 0 0 0.396078 0 0 0 0 0.631373 0 0 0 0.2 0"/>
<feBlend mode="normal" in2="BackgroundImageFix" result="effect1_dropShadow_258_1424"/>
<feBlend mode="normal" in="SourceGraphic" in2="effect1_dropShadow_258_1424" result="shape"/>
</filter>
<clipPath id="clip0_258_1424">
<rect width="108" height="96" fill="white" transform="translate(2 2)"/>
</clipPath>
<clipPath id="clip1_258_1424">
<rect width="81.2168" height="74.7355" fill="white" transform="translate(40 -9)"/>
</clipPath>
</defs>
</svg>
