<svg width="112" height="100" viewBox="0 0 112 100" fill="none" xmlns="http://www.w3.org/2000/svg">
<rect x="1" y="1" width="110" height="98" rx="6" fill="white" stroke="black" stroke-width="2"/>
<g clip-path="url(#clip0_258_1304)">
<g clip-path="url(#clip1_258_1304)">
<path d="M116.658 46.1269L78.5103 47.3862L100.087 22.4964L116.658 46.1269Z" fill="#018057" fill-opacity="0.2"/>
<path d="M116.658 46.1269L78.5103 47.3862L100.087 22.4964L116.658 46.1269Z" fill="#018057" fill-opacity="0.2"/>
<path d="M54.0831 11.9786L88.4915 17.3233L62.2903 47.5475L54.0831 11.9786Z" fill="#FFC013" fill-opacity="0.2"/>
<path d="M106.322 2.28952L97.5713 22.7501L83 1.74638L106.322 2.28952Z" fill="#0065A1" fill-opacity="0.2"/>
</g>
<g filter="url(#filter0_d_258_1304)">
<path d="M-6 68.8876L0.406593 54L33.6044 58.1685L47 77.2247L37.6813 101.64L17.8791 107L-6 92.7079V68.8876Z" fill="#28282A"/>
<g filter="url(#filter1_d_258_1304)">
<path d="M0.457031 54L33.6548 58.1685L36.5669 62.3371L15.5999 61.1461L0.457031 54Z" fill="black"/>
</g>
<g filter="url(#filter2_d_258_1304)">
<path d="M-6 92.8789L20.0073 96.1799L37.5846 101.682L17.8549 107L-6 92.8789Z" fill="#28282A"/>
</g>
<g filter="url(#filter3_d_258_1304)">
<path d="M20.3025 83.7062C21.1158 83.8796 21.7692 84.2862 22.2625 84.9262C22.7558 85.5529 23.0025 86.2729 23.0025 87.0862C23.0025 88.2596 22.5892 89.1929 21.7625 89.8862C20.9492 90.5662 19.8092 90.9062 18.3425 90.9062H11.8025V76.8662H18.1225C19.5492 76.8662 20.6625 77.1929 21.4625 77.8462C22.2758 78.4996 22.6825 79.3862 22.6825 80.5062C22.6825 81.3329 22.4625 82.0196 22.0225 82.5662C21.5958 83.1129 21.0225 83.4929 20.3025 83.7062ZM15.2225 82.5462H17.4625C18.0225 82.5462 18.4492 82.4262 18.7425 82.1862C19.0492 81.9329 19.2025 81.5662 19.2025 81.0862C19.2025 80.6062 19.0492 80.2396 18.7425 79.9862C18.4492 79.7329 18.0225 79.6063 17.4625 79.6063H15.2225V82.5462ZM17.7425 88.1462C18.3158 88.1462 18.7558 88.0196 19.0625 87.7662C19.3825 87.4996 19.5425 87.1196 19.5425 86.6262C19.5425 86.1329 19.3758 85.7462 19.0425 85.4662C18.7225 85.1862 18.2758 85.0462 17.7025 85.0462H15.2225V88.1462H17.7425ZM24.7261 88.3062V85.5462L31.0461 76.5062H34.8661V85.3462H36.5061V88.3062H34.8661V90.9062H31.4461V88.3062H24.7261ZM31.6861 80.2662L28.3261 85.3462H31.6861V80.2662Z" fill="white"/>
</g>
</g>
</g>
<defs>
<filter id="filter0_d_258_1304" x="-8" y="52" width="61" height="61" filterUnits="userSpaceOnUse" color-interpolation-filters="sRGB">
<feFlood flood-opacity="0" result="BackgroundImageFix"/>
<feColorMatrix in="SourceAlpha" type="matrix" values="0 0 0 0 0 0 0 0 0 0 0 0 0 0 0 0 0 0 127 0" result="hardAlpha"/>
<feOffset dx="2" dy="2"/>
<feGaussianBlur stdDeviation="2"/>
<feComposite in2="hardAlpha" operator="out"/>
<feColorMatrix type="matrix" values="0 0 0 0 0 0 0 0 0 0.396078 0 0 0 0 0.631373 0 0 0 0.2 0"/>
<feBlend mode="normal" in2="BackgroundImageFix" result="effect1_dropShadow_258_1304"/>
<feBlend mode="normal" in="SourceGraphic" in2="effect1_dropShadow_258_1304" result="shape"/>
</filter>
<filter id="filter1_d_258_1304" x="0.457031" y="54" width="48.1099" height="29.3369" filterUnits="userSpaceOnUse" color-interpolation-filters="sRGB">
<feFlood flood-opacity="0" result="BackgroundImageFix"/>
<feColorMatrix in="SourceAlpha" type="matrix" values="0 0 0 0 0 0 0 0 0 0 0 0 0 0 0 0 0 0 127 0" result="hardAlpha"/>
<feOffset dx="8" dy="17"/>
<feGaussianBlur stdDeviation="2"/>
<feComposite in2="hardAlpha" operator="out"/>
<feColorMatrix type="matrix" values="0 0 0 0 0 0 0 0 0 0.396078 0 0 0 0 0.631373 0 0 0 0.2 0"/>
<feBlend mode="normal" in2="BackgroundImageFix" result="effect1_dropShadow_258_1304"/>
<feBlend mode="normal" in="SourceGraphic" in2="effect1_dropShadow_258_1304" result="shape"/>
</filter>
<filter id="filter2_d_258_1304" x="-6" y="92.8789" width="55.5845" height="35.1211" filterUnits="userSpaceOnUse" color-interpolation-filters="sRGB">
<feFlood flood-opacity="0" result="BackgroundImageFix"/>
<feColorMatrix in="SourceAlpha" type="matrix" values="0 0 0 0 0 0 0 0 0 0 0 0 0 0 0 0 0 0 127 0" result="hardAlpha"/>
<feOffset dx="8" dy="17"/>
<feGaussianBlur stdDeviation="2"/>
<feComposite in2="hardAlpha" operator="out"/>
<feColorMatrix type="matrix" values="0 0 0 0 0 0 0 0 0 0.396078 0 0 0 0 0.631373 0 0 0 0.2 0"/>
<feBlend mode="normal" in2="BackgroundImageFix" result="effect1_dropShadow_258_1304"/>
<feBlend mode="normal" in="SourceGraphic" in2="effect1_dropShadow_258_1304" result="shape"/>
</filter>
<filter id="filter3_d_258_1304" x="11.8027" y="76.5063" width="36.7031" height="35.3999" filterUnits="userSpaceOnUse" color-interpolation-filters="sRGB">
<feFlood flood-opacity="0" result="BackgroundImageFix"/>
<feColorMatrix in="SourceAlpha" type="matrix" values="0 0 0 0 0 0 0 0 0 0 0 0 0 0 0 0 0 0 127 0" result="hardAlpha"/>
<feOffset dx="8" dy="17"/>
<feGaussianBlur stdDeviation="2"/>
<feComposite in2="hardAlpha" operator="out"/>
<feColorMatrix type="matrix" values="0 0 0 0 0 0 0 0 0 0.396078 0 0 0 0 0.631373 0 0 0 0.2 0"/>
<feBlend mode="normal" in2="BackgroundImageFix" result="effect1_dropShadow_258_1304"/>
<feBlend mode="normal" in="SourceGraphic" in2="effect1_dropShadow_258_1304" result="shape"/>
</filter>
<clipPath id="clip0_258_1304">
<rect width="108" height="96" fill="white" transform="translate(2 2)"/>
</clipPath>
<clipPath id="clip1_258_1304">
<rect width="81.2168" height="74.7355" fill="white" transform="translate(40 -9)"/>
</clipPath>
</defs>
</svg>
