<svg width="112" height="100" viewBox="0 0 112 100" fill="none" xmlns="http://www.w3.org/2000/svg">
<rect x="1" y="1" width="110" height="98" rx="6" fill="white" stroke="black" stroke-width="2"/>
<g clip-path="url(#clip0_258_1268)">
<g clip-path="url(#clip1_258_1268)">
<path d="M116.658 46.1269L78.5103 47.3862L100.087 22.4964L116.658 46.1269Z" fill="#018057" fill-opacity="0.2"/>
<path d="M116.658 46.1269L78.5103 47.3862L100.087 22.4964L116.658 46.1269Z" fill="#018057" fill-opacity="0.2"/>
<path d="M54.0831 11.9786L88.4915 17.3233L62.2903 47.5475L54.0831 11.9786Z" fill="#FFC013" fill-opacity="0.2"/>
<path d="M106.322 2.28952L97.5713 22.7501L83 1.74638L106.322 2.28952Z" fill="#0065A1" fill-opacity="0.2"/>
</g>
<g filter="url(#filter0_d_258_1268)">
<path d="M-6 68.8876L0.406593 54L33.6044 58.1685L47 77.2247L37.6813 101.64L17.8791 107L-6 92.7079V68.8876Z" fill="#28282A"/>
<g filter="url(#filter1_d_258_1268)">
<path d="M0.457031 54L33.6548 58.1685L36.5669 62.3371L15.5999 61.1461L0.457031 54Z" fill="black"/>
</g>
<g filter="url(#filter2_d_258_1268)">
<path d="M-6 92.8789L20.0073 96.1799L37.5846 101.682L17.8549 107L-6 92.8789Z" fill="#28282A"/>
</g>
<g filter="url(#filter3_d_258_1268)">
<path d="M20.3025 83.7062C21.1158 83.8796 21.7692 84.2862 22.2625 84.9262C22.7558 85.5529 23.0025 86.2729 23.0025 87.0862C23.0025 88.2596 22.5892 89.1929 21.7625 89.8862C20.9492 90.5662 19.8092 90.9062 18.3425 90.9062H11.8025V76.8662H18.1225C19.5492 76.8662 20.6625 77.1929 21.4625 77.8462C22.2758 78.4996 22.6825 79.3862 22.6825 80.5062C22.6825 81.3329 22.4625 82.0196 22.0225 82.5662C21.5958 83.1129 21.0225 83.4929 20.3025 83.7062ZM15.2225 82.5462H17.4625C18.0225 82.5462 18.4492 82.4262 18.7425 82.1862C19.0492 81.9329 19.2025 81.5662 19.2025 81.0862C19.2025 80.6062 19.0492 80.2396 18.7425 79.9862C18.4492 79.7329 18.0225 79.6063 17.4625 79.6063H15.2225V82.5462ZM17.7425 88.1462C18.3158 88.1462 18.7558 88.0196 19.0625 87.7662C19.3825 87.4996 19.5425 87.1196 19.5425 86.6262C19.5425 86.1329 19.3758 85.7462 19.0425 85.4662C18.7225 85.1862 18.2758 85.0462 17.7025 85.0462H15.2225V88.1462H17.7425ZM27.0461 83.0662C25.7928 82.3996 25.1661 81.3529 25.1661 79.9262C25.1661 79.2062 25.3528 78.5529 25.7261 77.9662C26.0994 77.3662 26.6661 76.8929 27.4261 76.5462C28.1861 76.1862 29.1194 76.0062 30.2261 76.0062C31.3328 76.0062 32.2594 76.1862 33.0061 76.5462C33.7661 76.8929 34.3328 77.3662 34.7061 77.9662C35.0794 78.5529 35.2661 79.2062 35.2661 79.9262C35.2661 80.6462 35.0928 81.2729 34.7461 81.8062C34.4128 82.3396 33.9594 82.7596 33.3861 83.0662C34.1061 83.4129 34.6594 83.8929 35.0461 84.5062C35.4328 85.1062 35.6261 85.8129 35.6261 86.6262C35.6261 87.5729 35.3861 88.3929 34.9061 89.0862C34.4261 89.7662 33.7728 90.2862 32.9461 90.6462C32.1328 91.0063 31.2261 91.1863 30.2261 91.1863C29.2261 91.1863 28.3128 91.0063 27.4861 90.6462C26.6728 90.2862 26.0261 89.7662 25.5461 89.0862C25.0661 88.3929 24.8261 87.5729 24.8261 86.6262C24.8261 85.7996 25.0194 85.0862 25.4061 84.4862C25.7928 83.8729 26.3394 83.3996 27.0461 83.0662ZM31.9461 80.4462C31.9461 79.8996 31.7861 79.4796 31.4661 79.1862C31.1594 78.8796 30.7461 78.7262 30.2261 78.7262C29.7061 78.7262 29.2861 78.8796 28.9661 79.1862C28.6594 79.4929 28.5061 79.9196 28.5061 80.4662C28.5061 80.9862 28.6661 81.3996 28.9861 81.7062C29.3061 81.9996 29.7194 82.1462 30.2261 82.1462C30.7328 82.1462 31.1461 81.9929 31.4661 81.6862C31.7861 81.3796 31.9461 80.9662 31.9461 80.4462ZM30.2261 84.5462C29.5994 84.5462 29.0928 84.7196 28.7061 85.0662C28.3194 85.3996 28.1261 85.8662 28.1261 86.4662C28.1261 87.0262 28.3128 87.4862 28.6861 87.8462C29.0728 88.2062 29.5861 88.3862 30.2261 88.3862C30.8661 88.3862 31.3661 88.2062 31.7261 87.8462C32.0994 87.4862 32.2861 87.0262 32.2861 86.4662C32.2861 85.8796 32.0928 85.4129 31.7061 85.0662C31.3328 84.7196 30.8394 84.5462 30.2261 84.5462Z" fill="white"/>
</g>
</g>
</g>
<defs>
<filter id="filter0_d_258_1268" x="-8" y="52" width="61" height="61" filterUnits="userSpaceOnUse" color-interpolation-filters="sRGB">
<feFlood flood-opacity="0" result="BackgroundImageFix"/>
<feColorMatrix in="SourceAlpha" type="matrix" values="0 0 0 0 0 0 0 0 0 0 0 0 0 0 0 0 0 0 127 0" result="hardAlpha"/>
<feOffset dx="2" dy="2"/>
<feGaussianBlur stdDeviation="2"/>
<feComposite in2="hardAlpha" operator="out"/>
<feColorMatrix type="matrix" values="0 0 0 0 0 0 0 0 0 0.396078 0 0 0 0 0.631373 0 0 0 0.2 0"/>
<feBlend mode="normal" in2="BackgroundImageFix" result="effect1_dropShadow_258_1268"/>
<feBlend mode="normal" in="SourceGraphic" in2="effect1_dropShadow_258_1268" result="shape"/>
</filter>
<filter id="filter1_d_258_1268" x="0.457031" y="54" width="48.1099" height="29.3369" filterUnits="userSpaceOnUse" color-interpolation-filters="sRGB">
<feFlood flood-opacity="0" result="BackgroundImageFix"/>
<feColorMatrix in="SourceAlpha" type="matrix" values="0 0 0 0 0 0 0 0 0 0 0 0 0 0 0 0 0 0 127 0" result="hardAlpha"/>
<feOffset dx="8" dy="17"/>
<feGaussianBlur stdDeviation="2"/>
<feComposite in2="hardAlpha" operator="out"/>
<feColorMatrix type="matrix" values="0 0 0 0 0 0 0 0 0 0.396078 0 0 0 0 0.631373 0 0 0 0.2 0"/>
<feBlend mode="normal" in2="BackgroundImageFix" result="effect1_dropShadow_258_1268"/>
<feBlend mode="normal" in="SourceGraphic" in2="effect1_dropShadow_258_1268" result="shape"/>
</filter>
<filter id="filter2_d_258_1268" x="-6" y="92.8789" width="55.5845" height="35.1211" filterUnits="userSpaceOnUse" color-interpolation-filters="sRGB">
<feFlood flood-opacity="0" result="BackgroundImageFix"/>
<feColorMatrix in="SourceAlpha" type="matrix" values="0 0 0 0 0 0 0 0 0 0 0 0 0 0 0 0 0 0 127 0" result="hardAlpha"/>
<feOffset dx="8" dy="17"/>
<feGaussianBlur stdDeviation="2"/>
<feComposite in2="hardAlpha" operator="out"/>
<feColorMatrix type="matrix" values="0 0 0 0 0 0 0 0 0 0.396078 0 0 0 0 0.631373 0 0 0 0.2 0"/>
<feBlend mode="normal" in2="BackgroundImageFix" result="effect1_dropShadow_258_1268"/>
<feBlend mode="normal" in="SourceGraphic" in2="effect1_dropShadow_258_1268" result="shape"/>
</filter>
<filter id="filter3_d_258_1268" x="11.8027" y="76.0063" width="35.8232" height="36.1797" filterUnits="userSpaceOnUse" color-interpolation-filters="sRGB">
<feFlood flood-opacity="0" result="BackgroundImageFix"/>
<feColorMatrix in="SourceAlpha" type="matrix" values="0 0 0 0 0 0 0 0 0 0 0 0 0 0 0 0 0 0 127 0" result="hardAlpha"/>
<feOffset dx="8" dy="17"/>
<feGaussianBlur stdDeviation="2"/>
<feComposite in2="hardAlpha" operator="out"/>
<feColorMatrix type="matrix" values="0 0 0 0 0 0 0 0 0 0.396078 0 0 0 0 0.631373 0 0 0 0.2 0"/>
<feBlend mode="normal" in2="BackgroundImageFix" result="effect1_dropShadow_258_1268"/>
<feBlend mode="normal" in="SourceGraphic" in2="effect1_dropShadow_258_1268" result="shape"/>
</filter>
<clipPath id="clip0_258_1268">
<rect width="108" height="96" fill="white" transform="translate(2 2)"/>
</clipPath>
<clipPath id="clip1_258_1268">
<rect width="81.2168" height="74.7355" fill="white" transform="translate(40 -9)"/>
</clipPath>
</defs>
</svg>
