<svg width="112" height="100" viewBox="0 0 112 100" fill="none" xmlns="http://www.w3.org/2000/svg">
<rect x="1" y="1" width="110" height="98" rx="6" fill="white" stroke="#C3451E" stroke-width="2"/>
<g clip-path="url(#clip0_258_1394)">
<g clip-path="url(#clip1_258_1394)">
<path d="M116.658 46.1269L78.5103 47.3862L100.087 22.4964L116.658 46.1269Z" fill="#018057" fill-opacity="0.2"/>
<path d="M116.658 46.1269L78.5103 47.3862L100.087 22.4964L116.658 46.1269Z" fill="#018057" fill-opacity="0.2"/>
<path d="M54.0831 11.9786L88.4915 17.3233L62.2903 47.5475L54.0831 11.9786Z" fill="#FFC013" fill-opacity="0.2"/>
<path d="M106.322 2.28952L97.5713 22.7501L83 1.74638L106.322 2.28952Z" fill="#0065A1" fill-opacity="0.2"/>
</g>
<g filter="url(#filter0_d_258_1394)">
<path d="M-6 68.8876L0.406593 54L33.6044 58.1685L47 77.2247L37.6813 101.64L17.8791 107L-6 92.7079V68.8876Z" fill="#F4522C"/>
<g filter="url(#filter1_d_258_1394)">
<path d="M0.457031 54L33.6548 58.1685L36.5669 62.3371L15.5999 61.1461L0.457031 54Z" fill="#B8431A"/>
</g>
<g filter="url(#filter2_d_258_1394)">
<path d="M-6 92.8789L20.0073 96.1799L37.5846 101.682L17.8549 107L-6 92.8789Z" fill="#F4522C"/>
</g>
<g filter="url(#filter3_d_258_1394)">
<path d="M20.3025 83.7062C21.1158 83.8796 21.7692 84.2862 22.2625 84.9262C22.7558 85.5529 23.0025 86.2729 23.0025 87.0862C23.0025 88.2596 22.5892 89.1929 21.7625 89.8862C20.9492 90.5662 19.8092 90.9062 18.3425 90.9062H11.8025V76.8662H18.1225C19.5492 76.8662 20.6625 77.1929 21.4625 77.8462C22.2758 78.4996 22.6825 79.3862 22.6825 80.5062C22.6825 81.3329 22.4625 82.0196 22.0225 82.5662C21.5958 83.1129 21.0225 83.4929 20.3025 83.7062ZM15.2225 82.5462H17.4625C18.0225 82.5462 18.4492 82.4262 18.7425 82.1862C19.0492 81.9329 19.2025 81.5662 19.2025 81.0862C19.2025 80.6062 19.0492 80.2396 18.7425 79.9862C18.4492 79.7329 18.0225 79.6063 17.4625 79.6063H15.2225V82.5462ZM17.7425 88.1462C18.3158 88.1462 18.7558 88.0196 19.0625 87.7662C19.3825 87.4996 19.5425 87.1196 19.5425 86.6262C19.5425 86.1329 19.3758 85.7462 19.0425 85.4662C18.7225 85.1862 18.2758 85.0462 17.7025 85.0462H15.2225V88.1462H17.7425ZM28.3261 86.6262C28.5261 87.6796 29.1394 88.2062 30.1661 88.2062C30.8728 88.2062 31.3728 87.8929 31.6661 87.2662C31.9594 86.6396 32.1061 85.6196 32.1061 84.2062C31.8128 84.6196 31.4128 84.9396 30.9061 85.1662C30.3994 85.3929 29.8328 85.5062 29.2061 85.5062C28.3528 85.5062 27.5928 85.3329 26.9261 84.9862C26.2594 84.6262 25.7328 84.0996 25.3461 83.4062C24.9728 82.6996 24.7861 81.8462 24.7861 80.8462C24.7861 79.8596 24.9861 78.9996 25.3861 78.2662C25.7994 77.5329 26.3794 76.9662 27.1261 76.5662C27.8861 76.1662 28.7794 75.9662 29.8061 75.9662C31.7794 75.9662 33.1594 76.5796 33.9461 77.8062C34.7328 79.0329 35.1261 80.8396 35.1261 83.2262C35.1261 84.9596 34.9661 86.3929 34.6461 87.5262C34.3394 88.6462 33.8128 89.4996 33.0661 90.0862C32.3328 90.6729 31.3261 90.9663 30.0461 90.9663C29.0328 90.9663 28.1661 90.7662 27.4461 90.3662C26.7394 89.9662 26.1928 89.4396 25.8061 88.7862C25.4328 88.1329 25.2194 87.4129 25.1661 86.6262H28.3261ZM29.9861 82.8062C30.5461 82.8062 30.9928 82.6396 31.3261 82.3062C31.6594 81.9596 31.8261 81.4929 31.8261 80.9062C31.8261 80.2662 31.6528 79.7729 31.3061 79.4262C30.9594 79.0796 30.4928 78.9062 29.9061 78.9062C29.3194 78.9062 28.8528 79.0862 28.5061 79.4462C28.1728 79.7929 28.0061 80.2729 28.0061 80.8862C28.0061 81.4596 28.1728 81.9262 28.5061 82.2862C28.8528 82.6329 29.3461 82.8062 29.9861 82.8062Z" fill="#28282A"/>
</g>
</g>
</g>
<defs>
<filter id="filter0_d_258_1394" x="-8" y="52" width="61" height="61" filterUnits="userSpaceOnUse" color-interpolation-filters="sRGB">
<feFlood flood-opacity="0" result="BackgroundImageFix"/>
<feColorMatrix in="SourceAlpha" type="matrix" values="0 0 0 0 0 0 0 0 0 0 0 0 0 0 0 0 0 0 127 0" result="hardAlpha"/>
<feOffset dx="2" dy="2"/>
<feGaussianBlur stdDeviation="2"/>
<feComposite in2="hardAlpha" operator="out"/>
<feColorMatrix type="matrix" values="0 0 0 0 0 0 0 0 0 0.396078 0 0 0 0 0.631373 0 0 0 0.2 0"/>
<feBlend mode="normal" in2="BackgroundImageFix" result="effect1_dropShadow_258_1394"/>
<feBlend mode="normal" in="SourceGraphic" in2="effect1_dropShadow_258_1394" result="shape"/>
</filter>
<filter id="filter1_d_258_1394" x="0.457031" y="54" width="48.1099" height="29.3369" filterUnits="userSpaceOnUse" color-interpolation-filters="sRGB">
<feFlood flood-opacity="0" result="BackgroundImageFix"/>
<feColorMatrix in="SourceAlpha" type="matrix" values="0 0 0 0 0 0 0 0 0 0 0 0 0 0 0 0 0 0 127 0" result="hardAlpha"/>
<feOffset dx="8" dy="17"/>
<feGaussianBlur stdDeviation="2"/>
<feComposite in2="hardAlpha" operator="out"/>
<feColorMatrix type="matrix" values="0 0 0 0 0 0 0 0 0 0.396078 0 0 0 0 0.631373 0 0 0 0.2 0"/>
<feBlend mode="normal" in2="BackgroundImageFix" result="effect1_dropShadow_258_1394"/>
<feBlend mode="normal" in="SourceGraphic" in2="effect1_dropShadow_258_1394" result="shape"/>
</filter>
<filter id="filter2_d_258_1394" x="-6" y="92.8789" width="55.5845" height="35.1211" filterUnits="userSpaceOnUse" color-interpolation-filters="sRGB">
<feFlood flood-opacity="0" result="BackgroundImageFix"/>
<feColorMatrix in="SourceAlpha" type="matrix" values="0 0 0 0 0 0 0 0 0 0 0 0 0 0 0 0 0 0 127 0" result="hardAlpha"/>
<feOffset dx="8" dy="17"/>
<feGaussianBlur stdDeviation="2"/>
<feComposite in2="hardAlpha" operator="out"/>
<feColorMatrix type="matrix" values="0 0 0 0 0 0 0 0 0 0.396078 0 0 0 0 0.631373 0 0 0 0.2 0"/>
<feBlend mode="normal" in2="BackgroundImageFix" result="effect1_dropShadow_258_1394"/>
<feBlend mode="normal" in="SourceGraphic" in2="effect1_dropShadow_258_1394" result="shape"/>
</filter>
<filter id="filter3_d_258_1394" x="11.8027" y="75.9663" width="35.3232" height="36" filterUnits="userSpaceOnUse" color-interpolation-filters="sRGB">
<feFlood flood-opacity="0" result="BackgroundImageFix"/>
<feColorMatrix in="SourceAlpha" type="matrix" values="0 0 0 0 0 0 0 0 0 0 0 0 0 0 0 0 0 0 127 0" result="hardAlpha"/>
<feOffset dx="8" dy="17"/>
<feGaussianBlur stdDeviation="2"/>
<feComposite in2="hardAlpha" operator="out"/>
<feColorMatrix type="matrix" values="0 0 0 0 0 0 0 0 0 0.396078 0 0 0 0 0.631373 0 0 0 0.2 0"/>
<feBlend mode="normal" in2="BackgroundImageFix" result="effect1_dropShadow_258_1394"/>
<feBlend mode="normal" in="SourceGraphic" in2="effect1_dropShadow_258_1394" result="shape"/>
</filter>
<clipPath id="clip0_258_1394">
<rect width="108" height="96" fill="white" transform="translate(2 2)"/>
</clipPath>
<clipPath id="clip1_258_1394">
<rect width="81.2168" height="74.7355" fill="white" transform="translate(40 -9)"/>
</clipPath>
</defs>
</svg>
