<svg width="112" height="100" viewBox="0 0 112 100" fill="none" xmlns="http://www.w3.org/2000/svg">
<rect x="1" y="1" width="110" height="98" rx="6" fill="white" stroke="#C3451E" stroke-width="2"/>
<g clip-path="url(#clip0_258_1376)">
<g clip-path="url(#clip1_258_1376)">
<path d="M116.658 46.1269L78.5103 47.3862L100.087 22.4964L116.658 46.1269Z" fill="#018057" fill-opacity="0.2"/>
<path d="M116.658 46.1269L78.5103 47.3862L100.087 22.4964L116.658 46.1269Z" fill="#018057" fill-opacity="0.2"/>
<path d="M54.0831 11.9786L88.4915 17.3233L62.2903 47.5475L54.0831 11.9786Z" fill="#FFC013" fill-opacity="0.2"/>
<path d="M106.322 2.28952L97.5713 22.7501L83 1.74638L106.322 2.28952Z" fill="#0065A1" fill-opacity="0.2"/>
</g>
<g filter="url(#filter0_d_258_1376)">
<path d="M-6 68.8876L0.406593 54L33.6044 58.1685L47 77.2247L37.6813 101.64L17.8791 107L-6 92.7079V68.8876Z" fill="#F4522C"/>
<g filter="url(#filter1_d_258_1376)">
<path d="M0.457031 54L33.6548 58.1685L36.5669 62.3371L15.5999 61.1461L0.457031 54Z" fill="#B8431A"/>
</g>
<g filter="url(#filter2_d_258_1376)">
<path d="M-6 92.8789L20.0073 96.1799L37.5846 101.682L17.8549 107L-6 92.8789Z" fill="#F4522C"/>
</g>
<g filter="url(#filter3_d_258_1376)">
<path d="M11.2225 83.8662C11.2225 82.4796 11.5225 81.2462 12.1225 80.1662C12.7225 79.0729 13.5558 78.2262 14.6225 77.6262C15.7025 77.0129 16.9225 76.7062 18.2825 76.7062C19.9492 76.7062 21.3758 77.1462 22.5625 78.0262C23.7492 78.9062 24.5425 80.1062 24.9425 81.6262H21.1825C20.9025 81.0396 20.5025 80.5929 19.9825 80.2862C19.4758 79.9796 18.8958 79.8262 18.2425 79.8262C17.1892 79.8262 16.3358 80.1929 15.6825 80.9262C15.0292 81.6596 14.7025 82.6396 14.7025 83.8662C14.7025 85.0929 15.0292 86.0729 15.6825 86.8062C16.3358 87.5396 17.1892 87.9062 18.2425 87.9062C18.8958 87.9062 19.4758 87.7529 19.9825 87.4462C20.5025 87.1396 20.9025 86.6929 21.1825 86.1062H24.9425C24.5425 87.6262 23.7492 88.8262 22.5625 89.7062C21.3758 90.5729 19.9492 91.0063 18.2825 91.0063C16.9225 91.0063 15.7025 90.7062 14.6225 90.1062C13.5558 89.4929 12.7225 88.6462 12.1225 87.5662C11.5225 86.4862 11.2225 85.2529 11.2225 83.8662ZM26.8169 80.4262C26.8702 78.9996 27.3369 77.8996 28.2169 77.1262C29.0969 76.3529 30.2902 75.9662 31.7969 75.9662C32.7969 75.9662 33.6502 76.1396 34.3569 76.4862C35.0769 76.8329 35.6169 77.3062 35.9769 77.9062C36.3502 78.5062 36.5369 79.1796 36.5369 79.9262C36.5369 80.8062 36.3169 81.5262 35.8769 82.0862C35.4369 82.6329 34.9235 83.0062 34.3369 83.2062V83.2862C35.0969 83.5396 35.6969 83.9596 36.1369 84.5462C36.5769 85.1329 36.7969 85.8862 36.7969 86.8062C36.7969 87.6329 36.6035 88.3662 36.2169 89.0062C35.8435 89.6329 35.2902 90.1262 34.5569 90.4862C33.8369 90.8462 32.9769 91.0263 31.9769 91.0263C30.3769 91.0263 29.0969 90.6329 28.1369 89.8462C27.1902 89.0596 26.6902 87.8729 26.6369 86.2862H29.9569C29.9702 86.8729 30.1369 87.3396 30.4569 87.6862C30.7769 88.0196 31.2435 88.1862 31.8569 88.1862C32.3769 88.1862 32.7769 88.0396 33.0569 87.7462C33.3502 87.4396 33.4969 87.0396 33.4969 86.5462C33.4969 85.9062 33.2902 85.4462 32.8769 85.1662C32.4769 84.8729 31.8302 84.7262 30.9369 84.7262H30.2969V81.9462H30.9369C31.6169 81.9462 32.1635 81.8329 32.5769 81.6062C33.0035 81.3662 33.2169 80.9462 33.2169 80.3463C33.2169 79.8662 33.0835 79.4929 32.8169 79.2262C32.5502 78.9596 32.1835 78.8262 31.7169 78.8262C31.2102 78.8262 30.8302 78.9796 30.5769 79.2862C30.3369 79.5929 30.1969 79.9729 30.1569 80.4262H26.8169Z" fill="#28282A"/>
</g>
</g>
</g>
<defs>
<filter id="filter0_d_258_1376" x="-8" y="52" width="61" height="61" filterUnits="userSpaceOnUse" color-interpolation-filters="sRGB">
<feFlood flood-opacity="0" result="BackgroundImageFix"/>
<feColorMatrix in="SourceAlpha" type="matrix" values="0 0 0 0 0 0 0 0 0 0 0 0 0 0 0 0 0 0 127 0" result="hardAlpha"/>
<feOffset dx="2" dy="2"/>
<feGaussianBlur stdDeviation="2"/>
<feComposite in2="hardAlpha" operator="out"/>
<feColorMatrix type="matrix" values="0 0 0 0 0 0 0 0 0 0.396078 0 0 0 0 0.631373 0 0 0 0.2 0"/>
<feBlend mode="normal" in2="BackgroundImageFix" result="effect1_dropShadow_258_1376"/>
<feBlend mode="normal" in="SourceGraphic" in2="effect1_dropShadow_258_1376" result="shape"/>
</filter>
<filter id="filter1_d_258_1376" x="0.457031" y="54" width="48.1099" height="29.3369" filterUnits="userSpaceOnUse" color-interpolation-filters="sRGB">
<feFlood flood-opacity="0" result="BackgroundImageFix"/>
<feColorMatrix in="SourceAlpha" type="matrix" values="0 0 0 0 0 0 0 0 0 0 0 0 0 0 0 0 0 0 127 0" result="hardAlpha"/>
<feOffset dx="8" dy="17"/>
<feGaussianBlur stdDeviation="2"/>
<feComposite in2="hardAlpha" operator="out"/>
<feColorMatrix type="matrix" values="0 0 0 0 0 0 0 0 0 0.396078 0 0 0 0 0.631373 0 0 0 0.2 0"/>
<feBlend mode="normal" in2="BackgroundImageFix" result="effect1_dropShadow_258_1376"/>
<feBlend mode="normal" in="SourceGraphic" in2="effect1_dropShadow_258_1376" result="shape"/>
</filter>
<filter id="filter2_d_258_1376" x="-6" y="92.8789" width="55.5845" height="35.1211" filterUnits="userSpaceOnUse" color-interpolation-filters="sRGB">
<feFlood flood-opacity="0" result="BackgroundImageFix"/>
<feColorMatrix in="SourceAlpha" type="matrix" values="0 0 0 0 0 0 0 0 0 0 0 0 0 0 0 0 0 0 127 0" result="hardAlpha"/>
<feOffset dx="8" dy="17"/>
<feGaussianBlur stdDeviation="2"/>
<feComposite in2="hardAlpha" operator="out"/>
<feColorMatrix type="matrix" values="0 0 0 0 0 0 0 0 0 0.396078 0 0 0 0 0.631373 0 0 0 0.2 0"/>
<feBlend mode="normal" in2="BackgroundImageFix" result="effect1_dropShadow_258_1376"/>
<feBlend mode="normal" in="SourceGraphic" in2="effect1_dropShadow_258_1376" result="shape"/>
</filter>
<filter id="filter3_d_258_1376" x="11.2227" y="75.9663" width="37.5742" height="36.0601" filterUnits="userSpaceOnUse" color-interpolation-filters="sRGB">
<feFlood flood-opacity="0" result="BackgroundImageFix"/>
<feColorMatrix in="SourceAlpha" type="matrix" values="0 0 0 0 0 0 0 0 0 0 0 0 0 0 0 0 0 0 127 0" result="hardAlpha"/>
<feOffset dx="8" dy="17"/>
<feGaussianBlur stdDeviation="2"/>
<feComposite in2="hardAlpha" operator="out"/>
<feColorMatrix type="matrix" values="0 0 0 0 0 0 0 0 0 0.396078 0 0 0 0 0.631373 0 0 0 0.2 0"/>
<feBlend mode="normal" in2="BackgroundImageFix" result="effect1_dropShadow_258_1376"/>
<feBlend mode="normal" in="SourceGraphic" in2="effect1_dropShadow_258_1376" result="shape"/>
</filter>
<clipPath id="clip0_258_1376">
<rect width="108" height="96" fill="white" transform="translate(2 2)"/>
</clipPath>
<clipPath id="clip1_258_1376">
<rect width="81.2168" height="74.7355" fill="white" transform="translate(40 -9)"/>
</clipPath>
</defs>
</svg>
