<svg width="112" height="100" viewBox="0 0 112 100" fill="none" xmlns="http://www.w3.org/2000/svg">
<rect x="1" y="1" width="110" height="98" rx="6" fill="white" stroke="black" stroke-width="2"/>
<g clip-path="url(#clip0_258_1274)">
<g clip-path="url(#clip1_258_1274)">
<path d="M116.658 46.1269L78.5103 47.3862L100.087 22.4964L116.658 46.1269Z" fill="#018057" fill-opacity="0.2"/>
<path d="M116.658 46.1269L78.5103 47.3862L100.087 22.4964L116.658 46.1269Z" fill="#018057" fill-opacity="0.2"/>
<path d="M54.0831 11.9786L88.4915 17.3233L62.2903 47.5475L54.0831 11.9786Z" fill="#FFC013" fill-opacity="0.2"/>
<path d="M106.322 2.28952L97.5713 22.7501L83 1.74638L106.322 2.28952Z" fill="#0065A1" fill-opacity="0.2"/>
</g>
<g filter="url(#filter0_d_258_1274)">
<path d="M-6 68.8876L0.406593 54L33.6044 58.1685L47 77.2247L37.6813 101.64L17.8791 107L-6 92.7079V68.8876Z" fill="#28282A"/>
<g filter="url(#filter1_d_258_1274)">
<path d="M0.457031 54L33.6548 58.1685L36.5669 62.3371L15.5999 61.1461L0.457031 54Z" fill="black"/>
</g>
<g filter="url(#filter2_d_258_1274)">
<path d="M-6 92.8789L20.0073 96.1799L37.5846 101.682L17.8549 107L-6 92.8789Z" fill="#28282A"/>
</g>
<g filter="url(#filter3_d_258_1274)">
<path d="M11.2225 83.8662C11.2225 82.4796 11.5225 81.2462 12.1225 80.1662C12.7225 79.0729 13.5558 78.2262 14.6225 77.6262C15.7025 77.0129 16.9225 76.7062 18.2825 76.7062C19.9492 76.7062 21.3758 77.1462 22.5625 78.0262C23.7492 78.9062 24.5425 80.1062 24.9425 81.6262H21.1825C20.9025 81.0396 20.5025 80.5929 19.9825 80.2862C19.4758 79.9796 18.8958 79.8262 18.2425 79.8262C17.1892 79.8262 16.3358 80.1929 15.6825 80.9262C15.0292 81.6596 14.7025 82.6396 14.7025 83.8662C14.7025 85.0929 15.0292 86.0729 15.6825 86.8062C16.3358 87.5396 17.1892 87.9062 18.2425 87.9062C18.8958 87.9062 19.4758 87.7529 19.9825 87.4462C20.5025 87.1396 20.9025 86.6929 21.1825 86.1062H24.9425C24.5425 87.6262 23.7492 88.8262 22.5625 89.7062C21.3758 90.5729 19.9492 91.0063 18.2825 91.0063C16.9225 91.0063 15.7025 90.7062 14.6225 90.1062C13.5558 89.4929 12.7225 88.6462 12.1225 87.5662C11.5225 86.4862 11.2225 85.2529 11.2225 83.8662ZM33.9169 80.2462C33.8102 79.7529 33.6235 79.3862 33.3569 79.1463C33.0902 78.8929 32.7102 78.7662 32.2169 78.7662C31.4569 78.7662 30.9102 79.0996 30.5769 79.7662C30.2435 80.4196 30.0702 81.4596 30.0569 82.8862C30.3502 82.4196 30.7702 82.0529 31.3169 81.7862C31.8769 81.5196 32.4902 81.3862 33.1569 81.3862C34.4635 81.3862 35.5102 81.7996 36.2969 82.6262C37.0969 83.4529 37.4969 84.6062 37.4969 86.0862C37.4969 87.0596 37.2969 87.9129 36.8969 88.6462C36.5102 89.3796 35.9369 89.9529 35.1769 90.3662C34.4302 90.7796 33.5435 90.9863 32.5169 90.9863C30.4635 90.9863 29.0369 90.3462 28.2369 89.0662C27.4369 87.7729 27.0369 85.9196 27.0369 83.5062C27.0369 80.9729 27.4569 79.0929 28.2969 77.8662C29.1502 76.6262 30.5102 76.0062 32.3769 76.0062C33.3769 76.0062 34.2169 76.2062 34.8969 76.6062C35.5902 76.9929 36.1102 77.5062 36.4569 78.1462C36.8169 78.7862 37.0302 79.4862 37.0969 80.2462H33.9169ZM32.3369 84.0862C31.7635 84.0862 31.2835 84.2596 30.8969 84.6062C30.5235 84.9396 30.3369 85.4196 30.3369 86.0462C30.3369 86.6862 30.5102 87.1862 30.8569 87.5462C31.2169 87.9062 31.7235 88.0862 32.3769 88.0862C32.9635 88.0862 33.4235 87.9129 33.7569 87.5662C34.1035 87.2062 34.2769 86.7196 34.2769 86.1062C34.2769 85.4796 34.1102 84.9862 33.7769 84.6262C33.4435 84.2662 32.9635 84.0862 32.3369 84.0862Z" fill="white"/>
</g>
</g>
</g>
<defs>
<filter id="filter0_d_258_1274" x="-8" y="52" width="61" height="61" filterUnits="userSpaceOnUse" color-interpolation-filters="sRGB">
<feFlood flood-opacity="0" result="BackgroundImageFix"/>
<feColorMatrix in="SourceAlpha" type="matrix" values="0 0 0 0 0 0 0 0 0 0 0 0 0 0 0 0 0 0 127 0" result="hardAlpha"/>
<feOffset dx="2" dy="2"/>
<feGaussianBlur stdDeviation="2"/>
<feComposite in2="hardAlpha" operator="out"/>
<feColorMatrix type="matrix" values="0 0 0 0 0 0 0 0 0 0.396078 0 0 0 0 0.631373 0 0 0 0.2 0"/>
<feBlend mode="normal" in2="BackgroundImageFix" result="effect1_dropShadow_258_1274"/>
<feBlend mode="normal" in="SourceGraphic" in2="effect1_dropShadow_258_1274" result="shape"/>
</filter>
<filter id="filter1_d_258_1274" x="0.457031" y="54" width="48.1099" height="29.3369" filterUnits="userSpaceOnUse" color-interpolation-filters="sRGB">
<feFlood flood-opacity="0" result="BackgroundImageFix"/>
<feColorMatrix in="SourceAlpha" type="matrix" values="0 0 0 0 0 0 0 0 0 0 0 0 0 0 0 0 0 0 127 0" result="hardAlpha"/>
<feOffset dx="8" dy="17"/>
<feGaussianBlur stdDeviation="2"/>
<feComposite in2="hardAlpha" operator="out"/>
<feColorMatrix type="matrix" values="0 0 0 0 0 0 0 0 0 0.396078 0 0 0 0 0.631373 0 0 0 0.2 0"/>
<feBlend mode="normal" in2="BackgroundImageFix" result="effect1_dropShadow_258_1274"/>
<feBlend mode="normal" in="SourceGraphic" in2="effect1_dropShadow_258_1274" result="shape"/>
</filter>
<filter id="filter2_d_258_1274" x="-6" y="92.8789" width="55.5845" height="35.1211" filterUnits="userSpaceOnUse" color-interpolation-filters="sRGB">
<feFlood flood-opacity="0" result="BackgroundImageFix"/>
<feColorMatrix in="SourceAlpha" type="matrix" values="0 0 0 0 0 0 0 0 0 0 0 0 0 0 0 0 0 0 127 0" result="hardAlpha"/>
<feOffset dx="8" dy="17"/>
<feGaussianBlur stdDeviation="2"/>
<feComposite in2="hardAlpha" operator="out"/>
<feColorMatrix type="matrix" values="0 0 0 0 0 0 0 0 0 0.396078 0 0 0 0 0.631373 0 0 0 0.2 0"/>
<feBlend mode="normal" in2="BackgroundImageFix" result="effect1_dropShadow_258_1274"/>
<feBlend mode="normal" in="SourceGraphic" in2="effect1_dropShadow_258_1274" result="shape"/>
</filter>
<filter id="filter3_d_258_1274" x="11.2227" y="76.0063" width="38.2744" height="36" filterUnits="userSpaceOnUse" color-interpolation-filters="sRGB">
<feFlood flood-opacity="0" result="BackgroundImageFix"/>
<feColorMatrix in="SourceAlpha" type="matrix" values="0 0 0 0 0 0 0 0 0 0 0 0 0 0 0 0 0 0 127 0" result="hardAlpha"/>
<feOffset dx="8" dy="17"/>
<feGaussianBlur stdDeviation="2"/>
<feComposite in2="hardAlpha" operator="out"/>
<feColorMatrix type="matrix" values="0 0 0 0 0 0 0 0 0 0.396078 0 0 0 0 0.631373 0 0 0 0.2 0"/>
<feBlend mode="normal" in2="BackgroundImageFix" result="effect1_dropShadow_258_1274"/>
<feBlend mode="normal" in="SourceGraphic" in2="effect1_dropShadow_258_1274" result="shape"/>
</filter>
<clipPath id="clip0_258_1274">
<rect width="108" height="96" fill="white" transform="translate(2 2)"/>
</clipPath>
<clipPath id="clip1_258_1274">
<rect width="81.2168" height="74.7355" fill="white" transform="translate(40 -9)"/>
</clipPath>
</defs>
</svg>
