<svg width="112" height="100" viewBox="0 0 112 100" fill="none" xmlns="http://www.w3.org/2000/svg">
<rect x="1" y="1" width="110" height="98" rx="6" fill="white" stroke="#C3451E" stroke-width="2"/>
<g clip-path="url(#clip0_258_1400)">
<g clip-path="url(#clip1_258_1400)">
<path d="M116.658 46.1269L78.5103 47.3862L100.087 22.4964L116.658 46.1269Z" fill="#018057" fill-opacity="0.2"/>
<path d="M116.658 46.1269L78.5103 47.3862L100.087 22.4964L116.658 46.1269Z" fill="#018057" fill-opacity="0.2"/>
<path d="M54.0831 11.9786L88.4915 17.3233L62.2903 47.5475L54.0831 11.9786Z" fill="#FFC013" fill-opacity="0.2"/>
<path d="M106.322 2.28952L97.5713 22.7501L83 1.74638L106.322 2.28952Z" fill="#0065A1" fill-opacity="0.2"/>
</g>
<g filter="url(#filter0_d_258_1400)">
<path d="M-6 68.8876L0.406593 54L33.6044 58.1685L47 77.2247L37.6813 101.64L17.8791 107L-6 92.7079V68.8876Z" fill="#F4522C"/>
<g filter="url(#filter1_d_258_1400)">
<path d="M0.457031 54L33.6548 58.1685L36.5669 62.3371L15.5999 61.1461L0.457031 54Z" fill="#B8431A"/>
</g>
<g filter="url(#filter2_d_258_1400)">
<path d="M-6 92.8789L20.0073 96.1799L37.5846 101.682L17.8549 107L-6 92.8789Z" fill="#F4522C"/>
</g>
<g filter="url(#filter3_d_258_1400)">
<path d="M11.2225 83.8662C11.2225 82.4796 11.5225 81.2462 12.1225 80.1662C12.7225 79.0729 13.5558 78.2262 14.6225 77.6262C15.7025 77.0129 16.9225 76.7062 18.2825 76.7062C19.9492 76.7062 21.3758 77.1462 22.5625 78.0262C23.7492 78.9062 24.5425 80.1062 24.9425 81.6262H21.1825C20.9025 81.0396 20.5025 80.5929 19.9825 80.2862C19.4758 79.9796 18.8958 79.8262 18.2425 79.8262C17.1892 79.8262 16.3358 80.1929 15.6825 80.9262C15.0292 81.6596 14.7025 82.6396 14.7025 83.8662C14.7025 85.0929 15.0292 86.0729 15.6825 86.8062C16.3358 87.5396 17.1892 87.9062 18.2425 87.9062C18.8958 87.9062 19.4758 87.7529 19.9825 87.4462C20.5025 87.1396 20.9025 86.6929 21.1825 86.1062H24.9425C24.5425 87.6262 23.7492 88.8262 22.5625 89.7062C21.3758 90.5729 19.9492 91.0063 18.2825 91.0063C16.9225 91.0063 15.7025 90.7062 14.6225 90.1062C13.5558 89.4929 12.7225 88.6462 12.1225 87.5662C11.5225 86.4862 11.2225 85.2529 11.2225 83.8662ZM29.0969 83.0662C27.8435 82.3996 27.2169 81.3529 27.2169 79.9262C27.2169 79.2062 27.4035 78.5529 27.7769 77.9662C28.1502 77.3662 28.7169 76.8929 29.4769 76.5462C30.2369 76.1862 31.1702 76.0062 32.2769 76.0062C33.3835 76.0062 34.3102 76.1862 35.0569 76.5462C35.8169 76.8929 36.3835 77.3662 36.7569 77.9662C37.1302 78.5529 37.3169 79.2062 37.3169 79.9262C37.3169 80.6462 37.1435 81.2729 36.7969 81.8062C36.4635 82.3396 36.0102 82.7596 35.4369 83.0662C36.1569 83.4129 36.7102 83.8929 37.0969 84.5062C37.4835 85.1062 37.6769 85.8129 37.6769 86.6262C37.6769 87.5729 37.4369 88.3929 36.9569 89.0862C36.4769 89.7662 35.8235 90.2862 34.9969 90.6462C34.1835 91.0063 33.2769 91.1863 32.2769 91.1863C31.2769 91.1863 30.3635 91.0063 29.5369 90.6462C28.7235 90.2862 28.0769 89.7662 27.5969 89.0862C27.1169 88.3929 26.8769 87.5729 26.8769 86.6262C26.8769 85.7996 27.0702 85.0862 27.4569 84.4862C27.8435 83.8729 28.3902 83.3996 29.0969 83.0662ZM33.9969 80.4462C33.9969 79.8996 33.8369 79.4796 33.5169 79.1862C33.2102 78.8796 32.7969 78.7262 32.2769 78.7262C31.7569 78.7262 31.3369 78.8796 31.0169 79.1862C30.7102 79.4929 30.5569 79.9196 30.5569 80.4662C30.5569 80.9862 30.7169 81.3996 31.0369 81.7062C31.3569 81.9996 31.7702 82.1462 32.2769 82.1462C32.7835 82.1462 33.1969 81.9929 33.5169 81.6862C33.8369 81.3796 33.9969 80.9662 33.9969 80.4462ZM32.2769 84.5462C31.6502 84.5462 31.1435 84.7196 30.7569 85.0662C30.3702 85.3996 30.1769 85.8662 30.1769 86.4662C30.1769 87.0262 30.3635 87.4862 30.7369 87.8462C31.1235 88.2062 31.6369 88.3862 32.2769 88.3862C32.9169 88.3862 33.4169 88.2062 33.7769 87.8462C34.1502 87.4862 34.3369 87.0262 34.3369 86.4662C34.3369 85.8796 34.1435 85.4129 33.7569 85.0662C33.3835 84.7196 32.8902 84.5462 32.2769 84.5462Z" fill="#28282A"/>
</g>
</g>
</g>
<defs>
<filter id="filter0_d_258_1400" x="-8" y="52" width="61" height="61" filterUnits="userSpaceOnUse" color-interpolation-filters="sRGB">
<feFlood flood-opacity="0" result="BackgroundImageFix"/>
<feColorMatrix in="SourceAlpha" type="matrix" values="0 0 0 0 0 0 0 0 0 0 0 0 0 0 0 0 0 0 127 0" result="hardAlpha"/>
<feOffset dx="2" dy="2"/>
<feGaussianBlur stdDeviation="2"/>
<feComposite in2="hardAlpha" operator="out"/>
<feColorMatrix type="matrix" values="0 0 0 0 0 0 0 0 0 0.396078 0 0 0 0 0.631373 0 0 0 0.2 0"/>
<feBlend mode="normal" in2="BackgroundImageFix" result="effect1_dropShadow_258_1400"/>
<feBlend mode="normal" in="SourceGraphic" in2="effect1_dropShadow_258_1400" result="shape"/>
</filter>
<filter id="filter1_d_258_1400" x="0.457031" y="54" width="48.1099" height="29.3369" filterUnits="userSpaceOnUse" color-interpolation-filters="sRGB">
<feFlood flood-opacity="0" result="BackgroundImageFix"/>
<feColorMatrix in="SourceAlpha" type="matrix" values="0 0 0 0 0 0 0 0 0 0 0 0 0 0 0 0 0 0 127 0" result="hardAlpha"/>
<feOffset dx="8" dy="17"/>
<feGaussianBlur stdDeviation="2"/>
<feComposite in2="hardAlpha" operator="out"/>
<feColorMatrix type="matrix" values="0 0 0 0 0 0 0 0 0 0.396078 0 0 0 0 0.631373 0 0 0 0.2 0"/>
<feBlend mode="normal" in2="BackgroundImageFix" result="effect1_dropShadow_258_1400"/>
<feBlend mode="normal" in="SourceGraphic" in2="effect1_dropShadow_258_1400" result="shape"/>
</filter>
<filter id="filter2_d_258_1400" x="-6" y="92.8789" width="55.5845" height="35.1211" filterUnits="userSpaceOnUse" color-interpolation-filters="sRGB">
<feFlood flood-opacity="0" result="BackgroundImageFix"/>
<feColorMatrix in="SourceAlpha" type="matrix" values="0 0 0 0 0 0 0 0 0 0 0 0 0 0 0 0 0 0 127 0" result="hardAlpha"/>
<feOffset dx="8" dy="17"/>
<feGaussianBlur stdDeviation="2"/>
<feComposite in2="hardAlpha" operator="out"/>
<feColorMatrix type="matrix" values="0 0 0 0 0 0 0 0 0 0.396078 0 0 0 0 0.631373 0 0 0 0.2 0"/>
<feBlend mode="normal" in2="BackgroundImageFix" result="effect1_dropShadow_258_1400"/>
<feBlend mode="normal" in="SourceGraphic" in2="effect1_dropShadow_258_1400" result="shape"/>
</filter>
<filter id="filter3_d_258_1400" x="11.2227" y="76.0063" width="38.4541" height="36.1797" filterUnits="userSpaceOnUse" color-interpolation-filters="sRGB">
<feFlood flood-opacity="0" result="BackgroundImageFix"/>
<feColorMatrix in="SourceAlpha" type="matrix" values="0 0 0 0 0 0 0 0 0 0 0 0 0 0 0 0 0 0 127 0" result="hardAlpha"/>
<feOffset dx="8" dy="17"/>
<feGaussianBlur stdDeviation="2"/>
<feComposite in2="hardAlpha" operator="out"/>
<feColorMatrix type="matrix" values="0 0 0 0 0 0 0 0 0 0.396078 0 0 0 0 0.631373 0 0 0 0.2 0"/>
<feBlend mode="normal" in2="BackgroundImageFix" result="effect1_dropShadow_258_1400"/>
<feBlend mode="normal" in="SourceGraphic" in2="effect1_dropShadow_258_1400" result="shape"/>
</filter>
<clipPath id="clip0_258_1400">
<rect width="108" height="96" fill="white" transform="translate(2 2)"/>
</clipPath>
<clipPath id="clip1_258_1400">
<rect width="81.2168" height="74.7355" fill="white" transform="translate(40 -9)"/>
</clipPath>
</defs>
</svg>
