<svg width="112" height="100" viewBox="0 0 112 100" fill="none" xmlns="http://www.w3.org/2000/svg">
<rect x="1" y="1" width="110" height="98" rx="6" fill="white" stroke="#0065A1" stroke-width="2"/>
<g clip-path="url(#clip0_258_1172)">
<g clip-path="url(#clip1_258_1172)">
<path d="M116.658 46.1269L78.5103 47.3862L100.087 22.4964L116.658 46.1269Z" fill="#018057" fill-opacity="0.2"/>
<path d="M116.658 46.1269L78.5103 47.3862L100.087 22.4964L116.658 46.1269Z" fill="#018057" fill-opacity="0.2"/>
<path d="M54.0831 11.9786L88.4915 17.3233L62.2903 47.5475L54.0831 11.9786Z" fill="#FFC013" fill-opacity="0.2"/>
<path d="M106.322 2.28952L97.5713 22.7501L83 1.74638L106.322 2.28952Z" fill="#0065A1" fill-opacity="0.2"/>
</g>
<g filter="url(#filter0_d_258_1172)">
<path d="M-6 68.8876L0.406593 54L33.6044 58.1685L47 77.2247L37.6813 101.64L17.8791 107L-6 92.7079V68.8876Z" fill="#006FB4"/>
<g filter="url(#filter1_d_258_1172)">
<path d="M0.457031 54L33.6548 58.1685L36.5669 62.3371L15.5999 61.1461L0.457031 54Z" fill="#0065A1"/>
</g>
<g filter="url(#filter2_d_258_1172)">
<path d="M-6 92.8789L20.0073 96.1799L37.5846 101.682L17.8549 107L-6 92.8789Z" fill="#006FB4"/>
</g>
<g filter="url(#filter3_d_258_1172)">
<path d="M11.2225 83.8662C11.2225 82.4796 11.5225 81.2462 12.1225 80.1662C12.7225 79.0729 13.5558 78.2262 14.6225 77.6262C15.7025 77.0129 16.9225 76.7062 18.2825 76.7062C19.9492 76.7062 21.3758 77.1462 22.5625 78.0262C23.7492 78.9062 24.5425 80.1062 24.9425 81.6262H21.1825C20.9025 81.0396 20.5025 80.5929 19.9825 80.2862C19.4758 79.9796 18.8958 79.8262 18.2425 79.8262C17.1892 79.8262 16.3358 80.1929 15.6825 80.9262C15.0292 81.6596 14.7025 82.6396 14.7025 83.8662C14.7025 85.0929 15.0292 86.0729 15.6825 86.8062C16.3358 87.5396 17.1892 87.9062 18.2425 87.9062C18.8958 87.9062 19.4758 87.7529 19.9825 87.4462C20.5025 87.1396 20.9025 86.6929 21.1825 86.1062H24.9425C24.5425 87.6262 23.7492 88.8262 22.5625 89.7062C21.3758 90.5729 19.9492 91.0063 18.2825 91.0063C16.9225 91.0063 15.7025 90.7062 14.6225 90.1062C13.5558 89.4929 12.7225 88.6462 12.1225 87.5662C11.5225 86.4862 11.2225 85.2529 11.2225 83.8662ZM30.3769 86.6262C30.5769 87.6796 31.1902 88.2062 32.2169 88.2062C32.9235 88.2062 33.4235 87.8929 33.7169 87.2662C34.0102 86.6396 34.1569 85.6196 34.1569 84.2062C33.8635 84.6196 33.4635 84.9396 32.9569 85.1662C32.4502 85.3929 31.8835 85.5062 31.2569 85.5062C30.4035 85.5062 29.6435 85.3329 28.9769 84.9862C28.3102 84.6262 27.7835 84.0996 27.3969 83.4062C27.0235 82.6996 26.8369 81.8462 26.8369 80.8462C26.8369 79.8596 27.0369 78.9996 27.4369 78.2662C27.8502 77.5329 28.4302 76.9662 29.1769 76.5662C29.9369 76.1662 30.8302 75.9662 31.8569 75.9662C33.8302 75.9662 35.2102 76.5796 35.9969 77.8062C36.7835 79.0329 37.1769 80.8396 37.1769 83.2262C37.1769 84.9596 37.0169 86.3929 36.6969 87.5262C36.3902 88.6462 35.8635 89.4996 35.1169 90.0862C34.3835 90.6729 33.3769 90.9663 32.0969 90.9663C31.0835 90.9663 30.2169 90.7662 29.4969 90.3662C28.7902 89.9662 28.2435 89.4396 27.8569 88.7862C27.4835 88.1329 27.2702 87.4129 27.2169 86.6262H30.3769ZM32.0369 82.8062C32.5969 82.8062 33.0435 82.6396 33.3769 82.3062C33.7102 81.9596 33.8769 81.4929 33.8769 80.9062C33.8769 80.2662 33.7035 79.7729 33.3569 79.4262C33.0102 79.0796 32.5435 78.9062 31.9569 78.9062C31.3702 78.9062 30.9035 79.0862 30.5569 79.4462C30.2235 79.7929 30.0569 80.2729 30.0569 80.8862C30.0569 81.4596 30.2235 81.9262 30.5569 82.2862C30.9035 82.6329 31.3969 82.8062 32.0369 82.8062Z" fill="#28282A"/>
</g>
</g>
</g>
<defs>
<filter id="filter0_d_258_1172" x="-8" y="52" width="61" height="61" filterUnits="userSpaceOnUse" color-interpolation-filters="sRGB">
<feFlood flood-opacity="0" result="BackgroundImageFix"/>
<feColorMatrix in="SourceAlpha" type="matrix" values="0 0 0 0 0 0 0 0 0 0 0 0 0 0 0 0 0 0 127 0" result="hardAlpha"/>
<feOffset dx="2" dy="2"/>
<feGaussianBlur stdDeviation="2"/>
<feComposite in2="hardAlpha" operator="out"/>
<feColorMatrix type="matrix" values="0 0 0 0 0 0 0 0 0 0.396078 0 0 0 0 0.631373 0 0 0 0.2 0"/>
<feBlend mode="normal" in2="BackgroundImageFix" result="effect1_dropShadow_258_1172"/>
<feBlend mode="normal" in="SourceGraphic" in2="effect1_dropShadow_258_1172" result="shape"/>
</filter>
<filter id="filter1_d_258_1172" x="0.457031" y="54" width="48.1099" height="29.3369" filterUnits="userSpaceOnUse" color-interpolation-filters="sRGB">
<feFlood flood-opacity="0" result="BackgroundImageFix"/>
<feColorMatrix in="SourceAlpha" type="matrix" values="0 0 0 0 0 0 0 0 0 0 0 0 0 0 0 0 0 0 127 0" result="hardAlpha"/>
<feOffset dx="8" dy="17"/>
<feGaussianBlur stdDeviation="2"/>
<feComposite in2="hardAlpha" operator="out"/>
<feColorMatrix type="matrix" values="0 0 0 0 0 0 0 0 0 0.396078 0 0 0 0 0.631373 0 0 0 0.2 0"/>
<feBlend mode="normal" in2="BackgroundImageFix" result="effect1_dropShadow_258_1172"/>
<feBlend mode="normal" in="SourceGraphic" in2="effect1_dropShadow_258_1172" result="shape"/>
</filter>
<filter id="filter2_d_258_1172" x="-6" y="92.8789" width="55.5845" height="35.1211" filterUnits="userSpaceOnUse" color-interpolation-filters="sRGB">
<feFlood flood-opacity="0" result="BackgroundImageFix"/>
<feColorMatrix in="SourceAlpha" type="matrix" values="0 0 0 0 0 0 0 0 0 0 0 0 0 0 0 0 0 0 127 0" result="hardAlpha"/>
<feOffset dx="8" dy="17"/>
<feGaussianBlur stdDeviation="2"/>
<feComposite in2="hardAlpha" operator="out"/>
<feColorMatrix type="matrix" values="0 0 0 0 0 0 0 0 0 0.396078 0 0 0 0 0.631373 0 0 0 0.2 0"/>
<feBlend mode="normal" in2="BackgroundImageFix" result="effect1_dropShadow_258_1172"/>
<feBlend mode="normal" in="SourceGraphic" in2="effect1_dropShadow_258_1172" result="shape"/>
</filter>
<filter id="filter3_d_258_1172" x="11.2227" y="75.9663" width="37.9541" height="36.04" filterUnits="userSpaceOnUse" color-interpolation-filters="sRGB">
<feFlood flood-opacity="0" result="BackgroundImageFix"/>
<feColorMatrix in="SourceAlpha" type="matrix" values="0 0 0 0 0 0 0 0 0 0 0 0 0 0 0 0 0 0 127 0" result="hardAlpha"/>
<feOffset dx="8" dy="17"/>
<feGaussianBlur stdDeviation="2"/>
<feComposite in2="hardAlpha" operator="out"/>
<feColorMatrix type="matrix" values="0 0 0 0 0 0 0 0 0 0.396078 0 0 0 0 0.631373 0 0 0 0.2 0"/>
<feBlend mode="normal" in2="BackgroundImageFix" result="effect1_dropShadow_258_1172"/>
<feBlend mode="normal" in="SourceGraphic" in2="effect1_dropShadow_258_1172" result="shape"/>
</filter>
<clipPath id="clip0_258_1172">
<rect width="108" height="96" fill="white" transform="translate(2 2)"/>
</clipPath>
<clipPath id="clip1_258_1172">
<rect width="81.2168" height="74.7355" fill="white" transform="translate(40 -9)"/>
</clipPath>
</defs>
</svg>
