<svg width="112" height="100" viewBox="0 0 112 100" fill="none" xmlns="http://www.w3.org/2000/svg">
<rect x="1" y="1" width="110" height="98" rx="6" fill="white" stroke="#018057" stroke-width="2"/>
<g clip-path="url(#clip0_258_1358)">
<g clip-path="url(#clip1_258_1358)">
<path d="M116.658 46.1269L78.5103 47.3862L100.087 22.4964L116.658 46.1269Z" fill="#018057" fill-opacity="0.2"/>
<path d="M116.658 46.1269L78.5103 47.3862L100.087 22.4964L116.658 46.1269Z" fill="#018057" fill-opacity="0.2"/>
<path d="M54.0831 11.9786L88.4915 17.3233L62.2903 47.5475L54.0831 11.9786Z" fill="#FFC013" fill-opacity="0.2"/>
<path d="M106.322 2.28952L97.5713 22.7501L83 1.74638L106.322 2.28952Z" fill="#0065A1" fill-opacity="0.2"/>
</g>
<g filter="url(#filter0_d_258_1358)">
<path d="M-6 68.8876L0.406593 54L33.6044 58.1685L47 77.2247L37.6813 101.64L17.8791 107L-6 92.7079V68.8876Z" fill="#009663"/>
<g filter="url(#filter1_d_258_1358)">
<path d="M0.457031 54L33.6548 58.1685L36.5669 62.3371L15.5999 61.1461L0.457031 54Z" fill="#028158"/>
</g>
<g filter="url(#filter2_d_258_1358)">
<path d="M-6 92.8789L20.0073 96.1799L37.5846 101.682L17.8549 107L-6 92.8789Z" fill="#009663"/>
</g>
<g filter="url(#filter3_d_258_1358)">
<path d="M16.5925 76.2162C17.9245 76.2162 19.0885 76.4862 20.0845 77.0262C21.0925 77.5542 21.8665 78.2982 22.4065 79.2582C22.9465 80.2182 23.2165 81.3162 23.2165 82.5522C23.2165 83.7762 22.9405 84.8682 22.3885 85.8282C21.8485 86.7882 21.0745 87.5442 20.0665 88.0962C19.0705 88.6362 17.9125 88.9062 16.5925 88.9062H11.5705V76.2162H16.5925ZM16.3225 85.7922C17.3545 85.7922 18.1645 85.5102 18.7525 84.9462C19.3405 84.3822 19.6345 83.5842 19.6345 82.5522C19.6345 81.5082 19.3405 80.7042 18.7525 80.1402C18.1645 79.5642 17.3545 79.2762 16.3225 79.2762H15.0985V85.7922H16.3225ZM24.1228 79.0602V75.7482H29.6668V88.9062H25.9768V79.0602H24.1228ZM31.4618 82.1382C31.4618 80.0742 31.8818 78.4482 32.7218 77.2602C33.5618 76.0722 34.8818 75.4782 36.6818 75.4782C38.4818 75.4782 39.8018 76.0722 40.6418 77.2602C41.4938 78.4482 41.9198 80.0742 41.9198 82.1382C41.9198 84.2262 41.4998 85.8642 40.6598 87.0522C39.8198 88.2402 38.4938 88.8342 36.6818 88.8342C34.8698 88.8342 33.5438 88.2402 32.7038 87.0522C31.8758 85.8642 31.4618 84.2262 31.4618 82.1382ZM38.4278 82.1382C38.4278 81.0582 38.3138 80.2362 38.0858 79.6722C37.8578 79.0962 37.3898 78.8082 36.6818 78.8082C35.9738 78.8082 35.5058 79.0962 35.2778 79.6722C35.0498 80.2362 34.9358 81.0582 34.9358 82.1382C34.9358 83.2422 35.0438 84.0822 35.2598 84.6582C35.4878 85.2222 35.9618 85.5042 36.6818 85.5042C37.4018 85.5042 37.8698 85.2222 38.0858 84.6582C38.3138 84.0822 38.4278 83.2422 38.4278 82.1382Z" fill="#28282A"/>
</g>
</g>
</g>
<defs>
<filter id="filter0_d_258_1358" x="-8" y="52" width="61" height="61" filterUnits="userSpaceOnUse" color-interpolation-filters="sRGB">
<feFlood flood-opacity="0" result="BackgroundImageFix"/>
<feColorMatrix in="SourceAlpha" type="matrix" values="0 0 0 0 0 0 0 0 0 0 0 0 0 0 0 0 0 0 127 0" result="hardAlpha"/>
<feOffset dx="2" dy="2"/>
<feGaussianBlur stdDeviation="2"/>
<feComposite in2="hardAlpha" operator="out"/>
<feColorMatrix type="matrix" values="0 0 0 0 0 0 0 0 0 0.396078 0 0 0 0 0.631373 0 0 0 0.2 0"/>
<feBlend mode="normal" in2="BackgroundImageFix" result="effect1_dropShadow_258_1358"/>
<feBlend mode="normal" in="SourceGraphic" in2="effect1_dropShadow_258_1358" result="shape"/>
</filter>
<filter id="filter1_d_258_1358" x="0.457031" y="54" width="48.1099" height="29.3369" filterUnits="userSpaceOnUse" color-interpolation-filters="sRGB">
<feFlood flood-opacity="0" result="BackgroundImageFix"/>
<feColorMatrix in="SourceAlpha" type="matrix" values="0 0 0 0 0 0 0 0 0 0 0 0 0 0 0 0 0 0 127 0" result="hardAlpha"/>
<feOffset dx="8" dy="17"/>
<feGaussianBlur stdDeviation="2"/>
<feComposite in2="hardAlpha" operator="out"/>
<feColorMatrix type="matrix" values="0 0 0 0 0 0 0 0 0 0.396078 0 0 0 0 0.631373 0 0 0 0.2 0"/>
<feBlend mode="normal" in2="BackgroundImageFix" result="effect1_dropShadow_258_1358"/>
<feBlend mode="normal" in="SourceGraphic" in2="effect1_dropShadow_258_1358" result="shape"/>
</filter>
<filter id="filter2_d_258_1358" x="-6" y="92.8789" width="55.5845" height="35.1211" filterUnits="userSpaceOnUse" color-interpolation-filters="sRGB">
<feFlood flood-opacity="0" result="BackgroundImageFix"/>
<feColorMatrix in="SourceAlpha" type="matrix" values="0 0 0 0 0 0 0 0 0 0 0 0 0 0 0 0 0 0 127 0" result="hardAlpha"/>
<feOffset dx="8" dy="17"/>
<feGaussianBlur stdDeviation="2"/>
<feComposite in2="hardAlpha" operator="out"/>
<feColorMatrix type="matrix" values="0 0 0 0 0 0 0 0 0 0.396078 0 0 0 0 0.631373 0 0 0 0.2 0"/>
<feBlend mode="normal" in2="BackgroundImageFix" result="effect1_dropShadow_258_1358"/>
<feBlend mode="normal" in="SourceGraphic" in2="effect1_dropShadow_258_1358" result="shape"/>
</filter>
<filter id="filter3_d_258_1358" x="11.5703" y="75.478" width="42.3496" height="34.4282" filterUnits="userSpaceOnUse" color-interpolation-filters="sRGB">
<feFlood flood-opacity="0" result="BackgroundImageFix"/>
<feColorMatrix in="SourceAlpha" type="matrix" values="0 0 0 0 0 0 0 0 0 0 0 0 0 0 0 0 0 0 127 0" result="hardAlpha"/>
<feOffset dx="8" dy="17"/>
<feGaussianBlur stdDeviation="2"/>
<feComposite in2="hardAlpha" operator="out"/>
<feColorMatrix type="matrix" values="0 0 0 0 0 0 0 0 0 0.396078 0 0 0 0 0.631373 0 0 0 0.2 0"/>
<feBlend mode="normal" in2="BackgroundImageFix" result="effect1_dropShadow_258_1358"/>
<feBlend mode="normal" in="SourceGraphic" in2="effect1_dropShadow_258_1358" result="shape"/>
</filter>
<clipPath id="clip0_258_1358">
<rect width="108" height="96" fill="white" transform="translate(2 2)"/>
</clipPath>
<clipPath id="clip1_258_1358">
<rect width="81.2168" height="74.7355" fill="white" transform="translate(40 -9)"/>
</clipPath>
</defs>
</svg>
