<svg width="112" height="100" viewBox="0 0 112 100" fill="none" xmlns="http://www.w3.org/2000/svg">
<rect x="1" y="1" width="110" height="98" rx="6" fill="white" stroke="#E5A419" stroke-width="2"/>
<g clip-path="url(#clip0_258_1244)">
<g clip-path="url(#clip1_258_1244)">
<path d="M116.658 46.1269L78.5103 47.3862L100.087 22.4964L116.658 46.1269Z" fill="#018057" fill-opacity="0.2"/>
<path d="M116.658 46.1269L78.5103 47.3862L100.087 22.4964L116.658 46.1269Z" fill="#018057" fill-opacity="0.2"/>
<path d="M54.0831 11.9786L88.4915 17.3233L62.2903 47.5475L54.0831 11.9786Z" fill="#FFC013" fill-opacity="0.2"/>
<path d="M106.322 2.28952L97.5713 22.7501L83 1.74638L106.322 2.28952Z" fill="#0065A1" fill-opacity="0.2"/>
</g>
<g filter="url(#filter0_d_258_1244)">
<path d="M-6 68.8876L0.406593 54L33.6044 58.1685L47 77.2247L37.6813 101.64L17.8791 107L-6 92.7079V68.8876Z" fill="#FFC013"/>
<g filter="url(#filter1_d_258_1244)">
<path d="M0.457031 54L33.6548 58.1685L36.5669 62.3371L15.5999 61.1461L0.457031 54Z" fill="#E5A419"/>
</g>
<g filter="url(#filter2_d_258_1244)">
<path d="M-6 92.8789L20.0073 96.1799L37.5846 101.682L17.8549 107L-6 92.8789Z" fill="#FFC013"/>
</g>
<g filter="url(#filter3_d_258_1244)">
<path d="M17.0625 76.8662C18.5425 76.8662 19.8358 77.1596 20.9425 77.7462C22.0492 78.3329 22.9025 79.1596 23.5025 80.2262C24.1158 81.2796 24.4225 82.4996 24.4225 83.8862C24.4225 85.2596 24.1158 86.4796 23.5025 87.5462C22.9025 88.6129 22.0425 89.4396 20.9225 90.0262C19.8158 90.6129 18.5292 90.9062 17.0625 90.9062H11.8025V76.8662H17.0625ZM16.8425 87.9462C18.1358 87.9462 19.1425 87.5929 19.8625 86.8862C20.5825 86.1796 20.9425 85.1796 20.9425 83.8862C20.9425 82.5929 20.5825 81.5862 19.8625 80.8662C19.1425 80.1462 18.1358 79.7862 16.8425 79.7862H15.2225V87.9462H16.8425ZM26.1138 80.4262C26.1671 78.9996 26.6338 77.8996 27.5138 77.1262C28.3938 76.3529 29.5871 75.9662 31.0938 75.9662C32.0938 75.9662 32.9471 76.1396 33.6538 76.4862C34.3738 76.8329 34.9138 77.3062 35.2738 77.9062C35.6471 78.5062 35.8338 79.1796 35.8338 79.9262C35.8338 80.8062 35.6138 81.5262 35.1738 82.0862C34.7338 82.6329 34.2204 83.0062 33.6338 83.2062V83.2862C34.3938 83.5396 34.9938 83.9596 35.4338 84.5462C35.8738 85.1329 36.0938 85.8862 36.0938 86.8062C36.0938 87.6329 35.9004 88.3662 35.5138 89.0062C35.1404 89.6329 34.5871 90.1262 33.8538 90.4862C33.1338 90.8462 32.2738 91.0263 31.2738 91.0263C29.6738 91.0263 28.3938 90.6329 27.4338 89.8462C26.4871 89.0596 25.9871 87.8729 25.9338 86.2862H29.2538C29.2671 86.8729 29.4338 87.3396 29.7538 87.6862C30.0738 88.0196 30.5404 88.1862 31.1538 88.1862C31.6738 88.1862 32.0738 88.0396 32.3538 87.7462C32.6471 87.4396 32.7938 87.0396 32.7938 86.5462C32.7938 85.9062 32.5871 85.4462 32.1738 85.1662C31.7738 84.8729 31.1271 84.7262 30.2337 84.7262H29.5938V81.9462H30.2337C30.9138 81.9462 31.4604 81.8329 31.8738 81.6062C32.3004 81.3662 32.5138 80.9462 32.5138 80.3463C32.5138 79.8662 32.3804 79.4929 32.1138 79.2262C31.8471 78.9596 31.4804 78.8262 31.0138 78.8262C30.5071 78.8262 30.1271 78.9796 29.8738 79.2862C29.6338 79.5929 29.4938 79.9729 29.4538 80.4262H26.1138Z" fill="#28282A"/>
</g>
</g>
</g>
<defs>
<filter id="filter0_d_258_1244" x="-8" y="52" width="61" height="61" filterUnits="userSpaceOnUse" color-interpolation-filters="sRGB">
<feFlood flood-opacity="0" result="BackgroundImageFix"/>
<feColorMatrix in="SourceAlpha" type="matrix" values="0 0 0 0 0 0 0 0 0 0 0 0 0 0 0 0 0 0 127 0" result="hardAlpha"/>
<feOffset dx="2" dy="2"/>
<feGaussianBlur stdDeviation="2"/>
<feComposite in2="hardAlpha" operator="out"/>
<feColorMatrix type="matrix" values="0 0 0 0 0 0 0 0 0 0.396078 0 0 0 0 0.631373 0 0 0 0.2 0"/>
<feBlend mode="normal" in2="BackgroundImageFix" result="effect1_dropShadow_258_1244"/>
<feBlend mode="normal" in="SourceGraphic" in2="effect1_dropShadow_258_1244" result="shape"/>
</filter>
<filter id="filter1_d_258_1244" x="0.457031" y="54" width="48.1099" height="29.3369" filterUnits="userSpaceOnUse" color-interpolation-filters="sRGB">
<feFlood flood-opacity="0" result="BackgroundImageFix"/>
<feColorMatrix in="SourceAlpha" type="matrix" values="0 0 0 0 0 0 0 0 0 0 0 0 0 0 0 0 0 0 127 0" result="hardAlpha"/>
<feOffset dx="8" dy="17"/>
<feGaussianBlur stdDeviation="2"/>
<feComposite in2="hardAlpha" operator="out"/>
<feColorMatrix type="matrix" values="0 0 0 0 0 0 0 0 0 0.396078 0 0 0 0 0.631373 0 0 0 0.2 0"/>
<feBlend mode="normal" in2="BackgroundImageFix" result="effect1_dropShadow_258_1244"/>
<feBlend mode="normal" in="SourceGraphic" in2="effect1_dropShadow_258_1244" result="shape"/>
</filter>
<filter id="filter2_d_258_1244" x="-6" y="92.8789" width="55.5845" height="35.1211" filterUnits="userSpaceOnUse" color-interpolation-filters="sRGB">
<feFlood flood-opacity="0" result="BackgroundImageFix"/>
<feColorMatrix in="SourceAlpha" type="matrix" values="0 0 0 0 0 0 0 0 0 0 0 0 0 0 0 0 0 0 127 0" result="hardAlpha"/>
<feOffset dx="8" dy="17"/>
<feGaussianBlur stdDeviation="2"/>
<feComposite in2="hardAlpha" operator="out"/>
<feColorMatrix type="matrix" values="0 0 0 0 0 0 0 0 0 0.396078 0 0 0 0 0.631373 0 0 0 0.2 0"/>
<feBlend mode="normal" in2="BackgroundImageFix" result="effect1_dropShadow_258_1244"/>
<feBlend mode="normal" in="SourceGraphic" in2="effect1_dropShadow_258_1244" result="shape"/>
</filter>
<filter id="filter3_d_258_1244" x="11.8027" y="75.9663" width="36.291" height="36.0601" filterUnits="userSpaceOnUse" color-interpolation-filters="sRGB">
<feFlood flood-opacity="0" result="BackgroundImageFix"/>
<feColorMatrix in="SourceAlpha" type="matrix" values="0 0 0 0 0 0 0 0 0 0 0 0 0 0 0 0 0 0 127 0" result="hardAlpha"/>
<feOffset dx="8" dy="17"/>
<feGaussianBlur stdDeviation="2"/>
<feComposite in2="hardAlpha" operator="out"/>
<feColorMatrix type="matrix" values="0 0 0 0 0 0 0 0 0 0.396078 0 0 0 0 0.631373 0 0 0 0.2 0"/>
<feBlend mode="normal" in2="BackgroundImageFix" result="effect1_dropShadow_258_1244"/>
<feBlend mode="normal" in="SourceGraphic" in2="effect1_dropShadow_258_1244" result="shape"/>
</filter>
<clipPath id="clip0_258_1244">
<rect width="108" height="96" fill="white" transform="translate(2 2)"/>
</clipPath>
<clipPath id="clip1_258_1244">
<rect width="81.2168" height="74.7355" fill="white" transform="translate(40 -9)"/>
</clipPath>
</defs>
</svg>
