<svg width="112" height="100" viewBox="0 0 112 100" fill="none" xmlns="http://www.w3.org/2000/svg">
<rect x="1" y="1" width="110" height="98" rx="6" fill="white" stroke="#E5A419" stroke-width="2"/>
<g clip-path="url(#clip0_258_1226)">
<g clip-path="url(#clip1_258_1226)">
<path d="M116.658 46.1269L78.5103 47.3862L100.087 22.4964L116.658 46.1269Z" fill="#018057" fill-opacity="0.2"/>
<path d="M116.658 46.1269L78.5103 47.3862L100.087 22.4964L116.658 46.1269Z" fill="#018057" fill-opacity="0.2"/>
<path d="M54.0831 11.9786L88.4915 17.3233L62.2903 47.5475L54.0831 11.9786Z" fill="#FFC013" fill-opacity="0.2"/>
<path d="M106.322 2.28952L97.5713 22.7501L83 1.74638L106.322 2.28952Z" fill="#0065A1" fill-opacity="0.2"/>
</g>
<g filter="url(#filter0_d_258_1226)">
<path d="M-6 68.8876L0.406593 54L33.6044 58.1685L47 77.2247L37.6813 101.64L17.8791 107L-6 92.7079V68.8876Z" fill="#FFC013"/>
<g filter="url(#filter1_d_258_1226)">
<path d="M0.457031 54L33.6548 58.1685L36.5669 62.3371L15.5999 61.1461L0.457031 54Z" fill="#E5A419"/>
</g>
<g filter="url(#filter2_d_258_1226)">
<path d="M-6 92.8789L20.0073 96.1799L37.5846 101.682L17.8549 107L-6 92.8789Z" fill="#FFC013"/>
</g>
<g filter="url(#filter3_d_258_1226)">
<path d="M17.0625 76.8662C18.5425 76.8662 19.8358 77.1596 20.9425 77.7462C22.0492 78.3329 22.9025 79.1596 23.5025 80.2262C24.1158 81.2796 24.4225 82.4996 24.4225 83.8862C24.4225 85.2596 24.1158 86.4796 23.5025 87.5462C22.9025 88.6129 22.0425 89.4396 20.9225 90.0262C19.8158 90.6129 18.5292 90.9062 17.0625 90.9062H11.8025V76.8662H17.0625ZM16.8425 87.9462C18.1358 87.9462 19.1425 87.5929 19.8625 86.8862C20.5825 86.1796 20.9425 85.1796 20.9425 83.8862C20.9425 82.5929 20.5825 81.5862 19.8625 80.8662C19.1425 80.1462 18.1358 79.7862 16.8425 79.7862H15.2225V87.9462H16.8425ZM33.2138 80.2462C33.1071 79.7529 32.9204 79.3862 32.6538 79.1463C32.3871 78.8929 32.0071 78.7662 31.5138 78.7662C30.7538 78.7662 30.2071 79.0996 29.8738 79.7662C29.5404 80.4196 29.3671 81.4596 29.3538 82.8862C29.6471 82.4196 30.0671 82.0529 30.6138 81.7862C31.1738 81.5196 31.7871 81.3862 32.4538 81.3862C33.7604 81.3862 34.8071 81.7996 35.5938 82.6262C36.3938 83.4529 36.7938 84.6062 36.7938 86.0862C36.7938 87.0596 36.5938 87.9129 36.1938 88.6462C35.8071 89.3796 35.2338 89.9529 34.4738 90.3662C33.7271 90.7796 32.8404 90.9863 31.8138 90.9863C29.7604 90.9863 28.3338 90.3462 27.5338 89.0662C26.7338 87.7729 26.3338 85.9196 26.3338 83.5062C26.3338 80.9729 26.7538 79.0929 27.5938 77.8662C28.4471 76.6262 29.8071 76.0062 31.6738 76.0062C32.6738 76.0062 33.5138 76.2062 34.1938 76.6062C34.8871 76.9929 35.4071 77.5062 35.7538 78.1462C36.1138 78.7862 36.3271 79.4862 36.3937 80.2462H33.2138ZM31.6338 84.0862C31.0604 84.0862 30.5804 84.2596 30.1938 84.6062C29.8204 84.9396 29.6338 85.4196 29.6338 86.0462C29.6338 86.6862 29.8071 87.1862 30.1538 87.5462C30.5138 87.9062 31.0204 88.0862 31.6738 88.0862C32.2604 88.0862 32.7204 87.9129 33.0538 87.5662C33.4004 87.2062 33.5738 86.7196 33.5738 86.1062C33.5738 85.4796 33.4071 84.9862 33.0738 84.6262C32.7404 84.2662 32.2604 84.0862 31.6338 84.0862Z" fill="#28282A"/>
</g>
</g>
</g>
<defs>
<filter id="filter0_d_258_1226" x="-8" y="52" width="61" height="61" filterUnits="userSpaceOnUse" color-interpolation-filters="sRGB">
<feFlood flood-opacity="0" result="BackgroundImageFix"/>
<feColorMatrix in="SourceAlpha" type="matrix" values="0 0 0 0 0 0 0 0 0 0 0 0 0 0 0 0 0 0 127 0" result="hardAlpha"/>
<feOffset dx="2" dy="2"/>
<feGaussianBlur stdDeviation="2"/>
<feComposite in2="hardAlpha" operator="out"/>
<feColorMatrix type="matrix" values="0 0 0 0 0 0 0 0 0 0.396078 0 0 0 0 0.631373 0 0 0 0.2 0"/>
<feBlend mode="normal" in2="BackgroundImageFix" result="effect1_dropShadow_258_1226"/>
<feBlend mode="normal" in="SourceGraphic" in2="effect1_dropShadow_258_1226" result="shape"/>
</filter>
<filter id="filter1_d_258_1226" x="0.457031" y="54" width="48.1099" height="29.3369" filterUnits="userSpaceOnUse" color-interpolation-filters="sRGB">
<feFlood flood-opacity="0" result="BackgroundImageFix"/>
<feColorMatrix in="SourceAlpha" type="matrix" values="0 0 0 0 0 0 0 0 0 0 0 0 0 0 0 0 0 0 127 0" result="hardAlpha"/>
<feOffset dx="8" dy="17"/>
<feGaussianBlur stdDeviation="2"/>
<feComposite in2="hardAlpha" operator="out"/>
<feColorMatrix type="matrix" values="0 0 0 0 0 0 0 0 0 0.396078 0 0 0 0 0.631373 0 0 0 0.2 0"/>
<feBlend mode="normal" in2="BackgroundImageFix" result="effect1_dropShadow_258_1226"/>
<feBlend mode="normal" in="SourceGraphic" in2="effect1_dropShadow_258_1226" result="shape"/>
</filter>
<filter id="filter2_d_258_1226" x="-6" y="92.8789" width="55.5845" height="35.1211" filterUnits="userSpaceOnUse" color-interpolation-filters="sRGB">
<feFlood flood-opacity="0" result="BackgroundImageFix"/>
<feColorMatrix in="SourceAlpha" type="matrix" values="0 0 0 0 0 0 0 0 0 0 0 0 0 0 0 0 0 0 127 0" result="hardAlpha"/>
<feOffset dx="8" dy="17"/>
<feGaussianBlur stdDeviation="2"/>
<feComposite in2="hardAlpha" operator="out"/>
<feColorMatrix type="matrix" values="0 0 0 0 0 0 0 0 0 0.396078 0 0 0 0 0.631373 0 0 0 0.2 0"/>
<feBlend mode="normal" in2="BackgroundImageFix" result="effect1_dropShadow_258_1226"/>
<feBlend mode="normal" in="SourceGraphic" in2="effect1_dropShadow_258_1226" result="shape"/>
</filter>
<filter id="filter3_d_258_1226" x="11.8027" y="76.0063" width="36.9912" height="35.98" filterUnits="userSpaceOnUse" color-interpolation-filters="sRGB">
<feFlood flood-opacity="0" result="BackgroundImageFix"/>
<feColorMatrix in="SourceAlpha" type="matrix" values="0 0 0 0 0 0 0 0 0 0 0 0 0 0 0 0 0 0 127 0" result="hardAlpha"/>
<feOffset dx="8" dy="17"/>
<feGaussianBlur stdDeviation="2"/>
<feComposite in2="hardAlpha" operator="out"/>
<feColorMatrix type="matrix" values="0 0 0 0 0 0 0 0 0 0.396078 0 0 0 0 0.631373 0 0 0 0.2 0"/>
<feBlend mode="normal" in2="BackgroundImageFix" result="effect1_dropShadow_258_1226"/>
<feBlend mode="normal" in="SourceGraphic" in2="effect1_dropShadow_258_1226" result="shape"/>
</filter>
<clipPath id="clip0_258_1226">
<rect width="108" height="96" fill="white" transform="translate(2 2)"/>
</clipPath>
<clipPath id="clip1_258_1226">
<rect width="81.2168" height="74.7355" fill="white" transform="translate(40 -9)"/>
</clipPath>
</defs>
</svg>
