<svg width="112" height="100" viewBox="0 0 112 100" fill="none" xmlns="http://www.w3.org/2000/svg">
<rect x="1" y="1" width="110" height="98" rx="6" fill="white" stroke="#C3451E" stroke-width="2"/>
<g clip-path="url(#clip0_258_1406)">
<g clip-path="url(#clip1_258_1406)">
<path d="M116.658 46.1269L78.5103 47.3862L100.087 22.4964L116.658 46.1269Z" fill="#018057" fill-opacity="0.2"/>
<path d="M116.658 46.1269L78.5103 47.3862L100.087 22.4964L116.658 46.1269Z" fill="#018057" fill-opacity="0.2"/>
<path d="M54.0831 11.9786L88.4915 17.3233L62.2903 47.5475L54.0831 11.9786Z" fill="#FFC013" fill-opacity="0.2"/>
<path d="M106.322 2.28952L97.5713 22.7501L83 1.74638L106.322 2.28952Z" fill="#0065A1" fill-opacity="0.2"/>
</g>
<g filter="url(#filter0_d_258_1406)">
<path d="M-6 68.8876L0.406593 54L33.6044 58.1685L47 77.2247L37.6813 101.64L17.8791 107L-6 92.7079V68.8876Z" fill="#F4522C"/>
<g filter="url(#filter1_d_258_1406)">
<path d="M0.457031 54L33.6548 58.1685L36.5669 62.3371L15.5999 61.1461L0.457031 54Z" fill="#B8431A"/>
</g>
<g filter="url(#filter2_d_258_1406)">
<path d="M-6 92.8789L20.0073 96.1799L37.5846 101.682L17.8549 107L-6 92.8789Z" fill="#F4522C"/>
</g>
<g filter="url(#filter3_d_258_1406)">
<path d="M17.0625 76.8662C18.5425 76.8662 19.8358 77.1596 20.9425 77.7462C22.0492 78.3329 22.9025 79.1596 23.5025 80.2262C24.1158 81.2796 24.4225 82.4996 24.4225 83.8862C24.4225 85.2596 24.1158 86.4796 23.5025 87.5462C22.9025 88.6129 22.0425 89.4396 20.9225 90.0262C19.8158 90.6129 18.5292 90.9062 17.0625 90.9062H11.8025V76.8662H17.0625ZM16.8425 87.9462C18.1358 87.9462 19.1425 87.5929 19.8625 86.8862C20.5825 86.1796 20.9425 85.1796 20.9425 83.8862C20.9425 82.5929 20.5825 81.5862 19.8625 80.8662C19.1425 80.1462 18.1358 79.7862 16.8425 79.7862H15.2225V87.9462H16.8425ZM28.3938 83.0662C27.1404 82.3996 26.5138 81.3529 26.5138 79.9262C26.5138 79.2062 26.7004 78.5529 27.0738 77.9662C27.4471 77.3662 28.0138 76.8929 28.7738 76.5462C29.5338 76.1862 30.4671 76.0062 31.5738 76.0062C32.6804 76.0062 33.6071 76.1862 34.3538 76.5462C35.1138 76.8929 35.6804 77.3662 36.0538 77.9662C36.4271 78.5529 36.6138 79.2062 36.6138 79.9262C36.6138 80.6462 36.4404 81.2729 36.0938 81.8062C35.7604 82.3396 35.3071 82.7596 34.7338 83.0662C35.4538 83.4129 36.0071 83.8929 36.3937 84.5062C36.7804 85.1062 36.9738 85.8129 36.9738 86.6262C36.9738 87.5729 36.7338 88.3929 36.2538 89.0862C35.7738 89.7662 35.1204 90.2862 34.2938 90.6462C33.4804 91.0063 32.5738 91.1863 31.5738 91.1863C30.5738 91.1863 29.6604 91.0063 28.8338 90.6462C28.0204 90.2862 27.3738 89.7662 26.8938 89.0862C26.4138 88.3929 26.1738 87.5729 26.1738 86.6262C26.1738 85.7996 26.3671 85.0862 26.7538 84.4862C27.1404 83.8729 27.6871 83.3996 28.3938 83.0662ZM33.2938 80.4462C33.2938 79.8996 33.1338 79.4796 32.8138 79.1862C32.5071 78.8796 32.0938 78.7262 31.5738 78.7262C31.0538 78.7262 30.6338 78.8796 30.3138 79.1862C30.0071 79.4929 29.8538 79.9196 29.8538 80.4662C29.8538 80.9862 30.0138 81.3996 30.3338 81.7062C30.6538 81.9996 31.0671 82.1462 31.5738 82.1462C32.0804 82.1462 32.4938 81.9929 32.8138 81.6862C33.1338 81.3796 33.2938 80.9662 33.2938 80.4462ZM31.5738 84.5462C30.9471 84.5462 30.4404 84.7196 30.0538 85.0662C29.6671 85.3996 29.4738 85.8662 29.4738 86.4662C29.4738 87.0262 29.6604 87.4862 30.0338 87.8462C30.4204 88.2062 30.9338 88.3862 31.5738 88.3862C32.2138 88.3862 32.7138 88.2062 33.0738 87.8462C33.4471 87.4862 33.6338 87.0262 33.6338 86.4662C33.6338 85.8796 33.4404 85.4129 33.0538 85.0662C32.6804 84.7196 32.1871 84.5462 31.5738 84.5462Z" fill="#28282A"/>
</g>
</g>
</g>
<defs>
<filter id="filter0_d_258_1406" x="-8" y="52" width="61" height="61" filterUnits="userSpaceOnUse" color-interpolation-filters="sRGB">
<feFlood flood-opacity="0" result="BackgroundImageFix"/>
<feColorMatrix in="SourceAlpha" type="matrix" values="0 0 0 0 0 0 0 0 0 0 0 0 0 0 0 0 0 0 127 0" result="hardAlpha"/>
<feOffset dx="2" dy="2"/>
<feGaussianBlur stdDeviation="2"/>
<feComposite in2="hardAlpha" operator="out"/>
<feColorMatrix type="matrix" values="0 0 0 0 0 0 0 0 0 0.396078 0 0 0 0 0.631373 0 0 0 0.2 0"/>
<feBlend mode="normal" in2="BackgroundImageFix" result="effect1_dropShadow_258_1406"/>
<feBlend mode="normal" in="SourceGraphic" in2="effect1_dropShadow_258_1406" result="shape"/>
</filter>
<filter id="filter1_d_258_1406" x="0.457031" y="54" width="48.1099" height="29.3369" filterUnits="userSpaceOnUse" color-interpolation-filters="sRGB">
<feFlood flood-opacity="0" result="BackgroundImageFix"/>
<feColorMatrix in="SourceAlpha" type="matrix" values="0 0 0 0 0 0 0 0 0 0 0 0 0 0 0 0 0 0 127 0" result="hardAlpha"/>
<feOffset dx="8" dy="17"/>
<feGaussianBlur stdDeviation="2"/>
<feComposite in2="hardAlpha" operator="out"/>
<feColorMatrix type="matrix" values="0 0 0 0 0 0 0 0 0 0.396078 0 0 0 0 0.631373 0 0 0 0.2 0"/>
<feBlend mode="normal" in2="BackgroundImageFix" result="effect1_dropShadow_258_1406"/>
<feBlend mode="normal" in="SourceGraphic" in2="effect1_dropShadow_258_1406" result="shape"/>
</filter>
<filter id="filter2_d_258_1406" x="-6" y="92.8789" width="55.5845" height="35.1211" filterUnits="userSpaceOnUse" color-interpolation-filters="sRGB">
<feFlood flood-opacity="0" result="BackgroundImageFix"/>
<feColorMatrix in="SourceAlpha" type="matrix" values="0 0 0 0 0 0 0 0 0 0 0 0 0 0 0 0 0 0 127 0" result="hardAlpha"/>
<feOffset dx="8" dy="17"/>
<feGaussianBlur stdDeviation="2"/>
<feComposite in2="hardAlpha" operator="out"/>
<feColorMatrix type="matrix" values="0 0 0 0 0 0 0 0 0 0.396078 0 0 0 0 0.631373 0 0 0 0.2 0"/>
<feBlend mode="normal" in2="BackgroundImageFix" result="effect1_dropShadow_258_1406"/>
<feBlend mode="normal" in="SourceGraphic" in2="effect1_dropShadow_258_1406" result="shape"/>
</filter>
<filter id="filter3_d_258_1406" x="11.8027" y="76.0063" width="37.1709" height="36.1797" filterUnits="userSpaceOnUse" color-interpolation-filters="sRGB">
<feFlood flood-opacity="0" result="BackgroundImageFix"/>
<feColorMatrix in="SourceAlpha" type="matrix" values="0 0 0 0 0 0 0 0 0 0 0 0 0 0 0 0 0 0 127 0" result="hardAlpha"/>
<feOffset dx="8" dy="17"/>
<feGaussianBlur stdDeviation="2"/>
<feComposite in2="hardAlpha" operator="out"/>
<feColorMatrix type="matrix" values="0 0 0 0 0 0 0 0 0 0.396078 0 0 0 0 0.631373 0 0 0 0.2 0"/>
<feBlend mode="normal" in2="BackgroundImageFix" result="effect1_dropShadow_258_1406"/>
<feBlend mode="normal" in="SourceGraphic" in2="effect1_dropShadow_258_1406" result="shape"/>
</filter>
<clipPath id="clip0_258_1406">
<rect width="108" height="96" fill="white" transform="translate(2 2)"/>
</clipPath>
<clipPath id="clip1_258_1406">
<rect width="81.2168" height="74.7355" fill="white" transform="translate(40 -9)"/>
</clipPath>
</defs>
</svg>
