<svg width="112" height="100" viewBox="0 0 112 100" fill="none" xmlns="http://www.w3.org/2000/svg">
<rect x="1" y="1" width="110" height="98" rx="6" fill="white" stroke="black" stroke-width="2"/>
<g clip-path="url(#clip0_258_1292)">
<g clip-path="url(#clip1_258_1292)">
<path d="M116.658 46.1269L78.5103 47.3862L100.087 22.4964L116.658 46.1269Z" fill="#018057" fill-opacity="0.2"/>
<path d="M116.658 46.1269L78.5103 47.3862L100.087 22.4964L116.658 46.1269Z" fill="#018057" fill-opacity="0.2"/>
<path d="M54.0831 11.9786L88.4915 17.3233L62.2903 47.5475L54.0831 11.9786Z" fill="#FFC013" fill-opacity="0.2"/>
<path d="M106.322 2.28952L97.5713 22.7501L83 1.74638L106.322 2.28952Z" fill="#0065A1" fill-opacity="0.2"/>
</g>
<g filter="url(#filter0_d_258_1292)">
<path d="M-6 68.8876L0.406593 54L33.6044 58.1685L47 77.2247L37.6813 101.64L17.8791 107L-6 92.7079V68.8876Z" fill="#28282A"/>
<g filter="url(#filter1_d_258_1292)">
<path d="M0.457031 54L33.6548 58.1685L36.5669 62.3371L15.5999 61.1461L0.457031 54Z" fill="black"/>
</g>
<g filter="url(#filter2_d_258_1292)">
<path d="M-6 92.8789L20.0073 96.1799L37.5846 101.682L17.8549 107L-6 92.8789Z" fill="#28282A"/>
</g>
<g filter="url(#filter3_d_258_1292)">
<path d="M17.0625 76.8662C18.5425 76.8662 19.8358 77.1596 20.9425 77.7462C22.0492 78.3329 22.9025 79.1596 23.5025 80.2262C24.1158 81.2796 24.4225 82.4996 24.4225 83.8862C24.4225 85.2596 24.1158 86.4796 23.5025 87.5462C22.9025 88.6129 22.0425 89.4396 20.9225 90.0262C19.8158 90.6129 18.5292 90.9062 17.0625 90.9062H11.8025V76.8662H17.0625ZM16.8425 87.9462C18.1358 87.9462 19.1425 87.5929 19.8625 86.8862C20.5825 86.1796 20.9425 85.1796 20.9425 83.8862C20.9425 82.5929 20.5825 81.5862 19.8625 80.8662C19.1425 80.1462 18.1358 79.7862 16.8425 79.7862H15.2225V87.9462H16.8425ZM29.6738 86.6262C29.8738 87.6796 30.4871 88.2062 31.5138 88.2062C32.2204 88.2062 32.7204 87.8929 33.0138 87.2662C33.3071 86.6396 33.4538 85.6196 33.4538 84.2062C33.1604 84.6196 32.7604 84.9396 32.2538 85.1662C31.7471 85.3929 31.1804 85.5062 30.5538 85.5062C29.7004 85.5062 28.9404 85.3329 28.2738 84.9862C27.6071 84.6262 27.0804 84.0996 26.6938 83.4062C26.3204 82.6996 26.1338 81.8462 26.1338 80.8462C26.1338 79.8596 26.3338 78.9996 26.7338 78.2662C27.1471 77.5329 27.7271 76.9662 28.4738 76.5662C29.2338 76.1662 30.1271 75.9662 31.1538 75.9662C33.1271 75.9662 34.5071 76.5796 35.2938 77.8062C36.0804 79.0329 36.4738 80.8396 36.4738 83.2262C36.4738 84.9596 36.3138 86.3929 35.9938 87.5262C35.6871 88.6462 35.1604 89.4996 34.4138 90.0862C33.6804 90.6729 32.6738 90.9663 31.3938 90.9663C30.3804 90.9663 29.5138 90.7662 28.7938 90.3662C28.0871 89.9662 27.5404 89.4396 27.1538 88.7862C26.7804 88.1329 26.5671 87.4129 26.5138 86.6262H29.6738ZM31.3338 82.8062C31.8938 82.8062 32.3404 82.6396 32.6738 82.3062C33.0071 81.9596 33.1738 81.4929 33.1738 80.9062C33.1738 80.2662 33.0004 79.7729 32.6538 79.4262C32.3071 79.0796 31.8404 78.9062 31.2538 78.9062C30.6671 78.9062 30.2004 79.0862 29.8538 79.4462C29.5204 79.7929 29.3538 80.2729 29.3538 80.8862C29.3538 81.4596 29.5204 81.9262 29.8538 82.2862C30.2004 82.6329 30.6938 82.8062 31.3338 82.8062Z" fill="white"/>
</g>
</g>
</g>
<defs>
<filter id="filter0_d_258_1292" x="-8" y="52" width="61" height="61" filterUnits="userSpaceOnUse" color-interpolation-filters="sRGB">
<feFlood flood-opacity="0" result="BackgroundImageFix"/>
<feColorMatrix in="SourceAlpha" type="matrix" values="0 0 0 0 0 0 0 0 0 0 0 0 0 0 0 0 0 0 127 0" result="hardAlpha"/>
<feOffset dx="2" dy="2"/>
<feGaussianBlur stdDeviation="2"/>
<feComposite in2="hardAlpha" operator="out"/>
<feColorMatrix type="matrix" values="0 0 0 0 0 0 0 0 0 0.396078 0 0 0 0 0.631373 0 0 0 0.2 0"/>
<feBlend mode="normal" in2="BackgroundImageFix" result="effect1_dropShadow_258_1292"/>
<feBlend mode="normal" in="SourceGraphic" in2="effect1_dropShadow_258_1292" result="shape"/>
</filter>
<filter id="filter1_d_258_1292" x="0.457031" y="54" width="48.1099" height="29.3369" filterUnits="userSpaceOnUse" color-interpolation-filters="sRGB">
<feFlood flood-opacity="0" result="BackgroundImageFix"/>
<feColorMatrix in="SourceAlpha" type="matrix" values="0 0 0 0 0 0 0 0 0 0 0 0 0 0 0 0 0 0 127 0" result="hardAlpha"/>
<feOffset dx="8" dy="17"/>
<feGaussianBlur stdDeviation="2"/>
<feComposite in2="hardAlpha" operator="out"/>
<feColorMatrix type="matrix" values="0 0 0 0 0 0 0 0 0 0.396078 0 0 0 0 0.631373 0 0 0 0.2 0"/>
<feBlend mode="normal" in2="BackgroundImageFix" result="effect1_dropShadow_258_1292"/>
<feBlend mode="normal" in="SourceGraphic" in2="effect1_dropShadow_258_1292" result="shape"/>
</filter>
<filter id="filter2_d_258_1292" x="-6" y="92.8789" width="55.5845" height="35.1211" filterUnits="userSpaceOnUse" color-interpolation-filters="sRGB">
<feFlood flood-opacity="0" result="BackgroundImageFix"/>
<feColorMatrix in="SourceAlpha" type="matrix" values="0 0 0 0 0 0 0 0 0 0 0 0 0 0 0 0 0 0 127 0" result="hardAlpha"/>
<feOffset dx="8" dy="17"/>
<feGaussianBlur stdDeviation="2"/>
<feComposite in2="hardAlpha" operator="out"/>
<feColorMatrix type="matrix" values="0 0 0 0 0 0 0 0 0 0.396078 0 0 0 0 0.631373 0 0 0 0.2 0"/>
<feBlend mode="normal" in2="BackgroundImageFix" result="effect1_dropShadow_258_1292"/>
<feBlend mode="normal" in="SourceGraphic" in2="effect1_dropShadow_258_1292" result="shape"/>
</filter>
<filter id="filter3_d_258_1292" x="11.8027" y="75.9663" width="36.6709" height="36" filterUnits="userSpaceOnUse" color-interpolation-filters="sRGB">
<feFlood flood-opacity="0" result="BackgroundImageFix"/>
<feColorMatrix in="SourceAlpha" type="matrix" values="0 0 0 0 0 0 0 0 0 0 0 0 0 0 0 0 0 0 127 0" result="hardAlpha"/>
<feOffset dx="8" dy="17"/>
<feGaussianBlur stdDeviation="2"/>
<feComposite in2="hardAlpha" operator="out"/>
<feColorMatrix type="matrix" values="0 0 0 0 0 0 0 0 0 0.396078 0 0 0 0 0.631373 0 0 0 0.2 0"/>
<feBlend mode="normal" in2="BackgroundImageFix" result="effect1_dropShadow_258_1292"/>
<feBlend mode="normal" in="SourceGraphic" in2="effect1_dropShadow_258_1292" result="shape"/>
</filter>
<clipPath id="clip0_258_1292">
<rect width="108" height="96" fill="white" transform="translate(2 2)"/>
</clipPath>
<clipPath id="clip1_258_1292">
<rect width="81.2168" height="74.7355" fill="white" transform="translate(40 -9)"/>
</clipPath>
</defs>
</svg>
