<svg width="112" height="100" viewBox="0 0 112 100" fill="none" xmlns="http://www.w3.org/2000/svg">
<rect x="1" y="1" width="110" height="98" rx="6" fill="white" stroke="#E5A419" stroke-width="2"/>
<g clip-path="url(#clip0_258_1232)">
<g clip-path="url(#clip1_258_1232)">
<path d="M116.658 46.1269L78.5103 47.3862L100.087 22.4964L116.658 46.1269Z" fill="#018057" fill-opacity="0.2"/>
<path d="M116.658 46.1269L78.5103 47.3862L100.087 22.4964L116.658 46.1269Z" fill="#018057" fill-opacity="0.2"/>
<path d="M54.0831 11.9786L88.4915 17.3233L62.2903 47.5475L54.0831 11.9786Z" fill="#FFC013" fill-opacity="0.2"/>
<path d="M106.322 2.28952L97.5713 22.7501L83 1.74638L106.322 2.28952Z" fill="#0065A1" fill-opacity="0.2"/>
</g>
<g filter="url(#filter0_d_258_1232)">
<path d="M-6 68.8876L0.406593 54L33.6044 58.1685L47 77.2247L37.6813 101.64L17.8791 107L-6 92.7079V68.8876Z" fill="#FFC013"/>
<g filter="url(#filter1_d_258_1232)">
<path d="M0.457031 54L33.6548 58.1685L36.5669 62.3371L15.5999 61.1461L0.457031 54Z" fill="#E5A419"/>
</g>
<g filter="url(#filter2_d_258_1232)">
<path d="M-6 92.8789L20.0073 96.1799L37.5846 101.682L17.8549 107L-6 92.8789Z" fill="#FFC013"/>
</g>
<g filter="url(#filter3_d_258_1232)">
<path d="M15.2225 79.6063V82.4462H19.8025V85.0862H15.2225V88.1662H20.4025V90.9062H11.8025V76.8662H20.4025V79.6063H15.2225ZM21.9228 79.4862V76.3062H27.4628V90.9062H23.9028V79.4862H21.9228ZM29.8023 83.4062C29.8023 81.1129 30.2423 79.3062 31.1223 77.9862C32.0157 76.6662 33.449 76.0062 35.4223 76.0062C37.3957 76.0062 38.8223 76.6662 39.7023 77.9862C40.5957 79.3062 41.0423 81.1129 41.0423 83.4062C41.0423 85.7262 40.5957 87.5462 39.7023 88.8662C38.8223 90.1862 37.3957 90.8462 35.4223 90.8462C33.449 90.8462 32.0157 90.1862 31.1223 88.8662C30.2423 87.5462 29.8023 85.7262 29.8023 83.4062ZM37.6823 83.4062C37.6823 82.0596 37.5357 81.0262 37.2423 80.3062C36.949 79.5729 36.3423 79.2062 35.4223 79.2062C34.5023 79.2062 33.8957 79.5729 33.6023 80.3062C33.309 81.0262 33.1623 82.0596 33.1623 83.4062C33.1623 84.3129 33.2157 85.0662 33.3223 85.6662C33.429 86.2529 33.6423 86.7329 33.9623 87.1062C34.2957 87.4662 34.7823 87.6462 35.4223 87.6462C36.0623 87.6462 36.5423 87.4662 36.8623 87.1062C37.1957 86.7329 37.4157 86.2529 37.5223 85.6662C37.629 85.0662 37.6823 84.3129 37.6823 83.4062Z" fill="#28282A"/>
</g>
</g>
</g>
<defs>
<filter id="filter0_d_258_1232" x="-8" y="52" width="61" height="61" filterUnits="userSpaceOnUse" color-interpolation-filters="sRGB">
<feFlood flood-opacity="0" result="BackgroundImageFix"/>
<feColorMatrix in="SourceAlpha" type="matrix" values="0 0 0 0 0 0 0 0 0 0 0 0 0 0 0 0 0 0 127 0" result="hardAlpha"/>
<feOffset dx="2" dy="2"/>
<feGaussianBlur stdDeviation="2"/>
<feComposite in2="hardAlpha" operator="out"/>
<feColorMatrix type="matrix" values="0 0 0 0 0 0 0 0 0 0.396078 0 0 0 0 0.631373 0 0 0 0.2 0"/>
<feBlend mode="normal" in2="BackgroundImageFix" result="effect1_dropShadow_258_1232"/>
<feBlend mode="normal" in="SourceGraphic" in2="effect1_dropShadow_258_1232" result="shape"/>
</filter>
<filter id="filter1_d_258_1232" x="0.457031" y="54" width="48.1099" height="29.3369" filterUnits="userSpaceOnUse" color-interpolation-filters="sRGB">
<feFlood flood-opacity="0" result="BackgroundImageFix"/>
<feColorMatrix in="SourceAlpha" type="matrix" values="0 0 0 0 0 0 0 0 0 0 0 0 0 0 0 0 0 0 127 0" result="hardAlpha"/>
<feOffset dx="8" dy="17"/>
<feGaussianBlur stdDeviation="2"/>
<feComposite in2="hardAlpha" operator="out"/>
<feColorMatrix type="matrix" values="0 0 0 0 0 0 0 0 0 0.396078 0 0 0 0 0.631373 0 0 0 0.2 0"/>
<feBlend mode="normal" in2="BackgroundImageFix" result="effect1_dropShadow_258_1232"/>
<feBlend mode="normal" in="SourceGraphic" in2="effect1_dropShadow_258_1232" result="shape"/>
</filter>
<filter id="filter2_d_258_1232" x="-6" y="92.8789" width="55.5845" height="35.1211" filterUnits="userSpaceOnUse" color-interpolation-filters="sRGB">
<feFlood flood-opacity="0" result="BackgroundImageFix"/>
<feColorMatrix in="SourceAlpha" type="matrix" values="0 0 0 0 0 0 0 0 0 0 0 0 0 0 0 0 0 0 127 0" result="hardAlpha"/>
<feOffset dx="8" dy="17"/>
<feGaussianBlur stdDeviation="2"/>
<feComposite in2="hardAlpha" operator="out"/>
<feColorMatrix type="matrix" values="0 0 0 0 0 0 0 0 0 0.396078 0 0 0 0 0.631373 0 0 0 0.2 0"/>
<feBlend mode="normal" in2="BackgroundImageFix" result="effect1_dropShadow_258_1232"/>
<feBlend mode="normal" in="SourceGraphic" in2="effect1_dropShadow_258_1232" result="shape"/>
</filter>
<filter id="filter3_d_258_1232" x="11.8027" y="76.0063" width="41.2397" height="35.8999" filterUnits="userSpaceOnUse" color-interpolation-filters="sRGB">
<feFlood flood-opacity="0" result="BackgroundImageFix"/>
<feColorMatrix in="SourceAlpha" type="matrix" values="0 0 0 0 0 0 0 0 0 0 0 0 0 0 0 0 0 0 127 0" result="hardAlpha"/>
<feOffset dx="8" dy="17"/>
<feGaussianBlur stdDeviation="2"/>
<feComposite in2="hardAlpha" operator="out"/>
<feColorMatrix type="matrix" values="0 0 0 0 0 0 0 0 0 0.396078 0 0 0 0 0.631373 0 0 0 0.2 0"/>
<feBlend mode="normal" in2="BackgroundImageFix" result="effect1_dropShadow_258_1232"/>
<feBlend mode="normal" in="SourceGraphic" in2="effect1_dropShadow_258_1232" result="shape"/>
</filter>
<clipPath id="clip0_258_1232">
<rect width="108" height="96" fill="white" transform="translate(2 2)"/>
</clipPath>
<clipPath id="clip1_258_1232">
<rect width="81.2168" height="74.7355" fill="white" transform="translate(40 -9)"/>
</clipPath>
</defs>
</svg>
