<svg width="112" height="100" viewBox="0 0 112 100" fill="none" xmlns="http://www.w3.org/2000/svg">
<rect x="1" y="1" width="110" height="98" rx="6" fill="white" stroke="#C3451E" stroke-width="2"/>
<g clip-path="url(#clip0_258_1388)">
<g clip-path="url(#clip1_258_1388)">
<path d="M116.658 46.1269L78.5103 47.3862L100.087 22.4964L116.658 46.1269Z" fill="#018057" fill-opacity="0.2"/>
<path d="M116.658 46.1269L78.5103 47.3862L100.087 22.4964L116.658 46.1269Z" fill="#018057" fill-opacity="0.2"/>
<path d="M54.0831 11.9786L88.4915 17.3233L62.2903 47.5475L54.0831 11.9786Z" fill="#FFC013" fill-opacity="0.2"/>
<path d="M106.322 2.28952L97.5713 22.7501L83 1.74638L106.322 2.28952Z" fill="#0065A1" fill-opacity="0.2"/>
</g>
<g filter="url(#filter0_d_258_1388)">
<path d="M-6 68.8876L0.406593 54L33.6044 58.1685L47 77.2247L37.6813 101.64L17.8791 107L-6 92.7079V68.8876Z" fill="#F4522C"/>
<g filter="url(#filter1_d_258_1388)">
<path d="M0.457031 54L33.6548 58.1685L36.5669 62.3371L15.5999 61.1461L0.457031 54Z" fill="#B8431A"/>
</g>
<g filter="url(#filter2_d_258_1388)">
<path d="M-6 92.8789L20.0073 96.1799L37.5846 101.682L17.8549 107L-6 92.8789Z" fill="#F4522C"/>
</g>
<g filter="url(#filter3_d_258_1388)">
<path d="M15.2225 79.6063V82.4462H19.8025V85.0862H15.2225V88.1662H20.4025V90.9062H11.8025V76.8662H20.4025V79.6063H15.2225ZM29.5028 80.2462C29.3961 79.7529 29.2095 79.3862 28.9428 79.1463C28.6761 78.8929 28.2961 78.7662 27.8028 78.7662C27.0428 78.7662 26.4961 79.0996 26.1628 79.7662C25.8295 80.4196 25.6561 81.4596 25.6428 82.8862C25.9361 82.4196 26.3561 82.0529 26.9028 81.7862C27.4628 81.5196 28.0761 81.3862 28.7428 81.3862C30.0495 81.3862 31.0961 81.7996 31.8828 82.6262C32.6828 83.4529 33.0828 84.6062 33.0828 86.0862C33.0828 87.0596 32.8828 87.9129 32.4828 88.6462C32.0961 89.3796 31.5228 89.9529 30.7628 90.3662C30.0161 90.7796 29.1295 90.9863 28.1028 90.9863C26.0495 90.9863 24.6228 90.3462 23.8228 89.0662C23.0228 87.7729 22.6228 85.9196 22.6228 83.5062C22.6228 80.9729 23.0428 79.0929 23.8828 77.8662C24.7361 76.6262 26.0961 76.0062 27.9628 76.0062C28.9628 76.0062 29.8028 76.2062 30.4828 76.6062C31.1761 76.9929 31.6961 77.5062 32.0428 78.1462C32.4028 78.7862 32.6161 79.4862 32.6828 80.2462H29.5028ZM27.9228 84.0862C27.3495 84.0862 26.8695 84.2596 26.4828 84.6062C26.1095 84.9396 25.9228 85.4196 25.9228 86.0462C25.9228 86.6862 26.0961 87.1862 26.4428 87.5462C26.8028 87.9062 27.3095 88.0862 27.9628 88.0862C28.5495 88.0862 29.0095 87.9129 29.3428 87.5662C29.6895 87.2062 29.8628 86.7196 29.8628 86.1062C29.8628 85.4796 29.6961 84.9862 29.3628 84.6262C29.0295 84.2662 28.5495 84.0862 27.9228 84.0862Z" fill="#28282A"/>
</g>
</g>
</g>
<defs>
<filter id="filter0_d_258_1388" x="-8" y="52" width="61" height="61" filterUnits="userSpaceOnUse" color-interpolation-filters="sRGB">
<feFlood flood-opacity="0" result="BackgroundImageFix"/>
<feColorMatrix in="SourceAlpha" type="matrix" values="0 0 0 0 0 0 0 0 0 0 0 0 0 0 0 0 0 0 127 0" result="hardAlpha"/>
<feOffset dx="2" dy="2"/>
<feGaussianBlur stdDeviation="2"/>
<feComposite in2="hardAlpha" operator="out"/>
<feColorMatrix type="matrix" values="0 0 0 0 0 0 0 0 0 0.396078 0 0 0 0 0.631373 0 0 0 0.2 0"/>
<feBlend mode="normal" in2="BackgroundImageFix" result="effect1_dropShadow_258_1388"/>
<feBlend mode="normal" in="SourceGraphic" in2="effect1_dropShadow_258_1388" result="shape"/>
</filter>
<filter id="filter1_d_258_1388" x="0.457031" y="54" width="48.1099" height="29.3369" filterUnits="userSpaceOnUse" color-interpolation-filters="sRGB">
<feFlood flood-opacity="0" result="BackgroundImageFix"/>
<feColorMatrix in="SourceAlpha" type="matrix" values="0 0 0 0 0 0 0 0 0 0 0 0 0 0 0 0 0 0 127 0" result="hardAlpha"/>
<feOffset dx="8" dy="17"/>
<feGaussianBlur stdDeviation="2"/>
<feComposite in2="hardAlpha" operator="out"/>
<feColorMatrix type="matrix" values="0 0 0 0 0 0 0 0 0 0.396078 0 0 0 0 0.631373 0 0 0 0.2 0"/>
<feBlend mode="normal" in2="BackgroundImageFix" result="effect1_dropShadow_258_1388"/>
<feBlend mode="normal" in="SourceGraphic" in2="effect1_dropShadow_258_1388" result="shape"/>
</filter>
<filter id="filter2_d_258_1388" x="-6" y="92.8789" width="55.5845" height="35.1211" filterUnits="userSpaceOnUse" color-interpolation-filters="sRGB">
<feFlood flood-opacity="0" result="BackgroundImageFix"/>
<feColorMatrix in="SourceAlpha" type="matrix" values="0 0 0 0 0 0 0 0 0 0 0 0 0 0 0 0 0 0 127 0" result="hardAlpha"/>
<feOffset dx="8" dy="17"/>
<feGaussianBlur stdDeviation="2"/>
<feComposite in2="hardAlpha" operator="out"/>
<feColorMatrix type="matrix" values="0 0 0 0 0 0 0 0 0 0.396078 0 0 0 0 0.631373 0 0 0 0.2 0"/>
<feBlend mode="normal" in2="BackgroundImageFix" result="effect1_dropShadow_258_1388"/>
<feBlend mode="normal" in="SourceGraphic" in2="effect1_dropShadow_258_1388" result="shape"/>
</filter>
<filter id="filter3_d_258_1388" x="11.8027" y="76.0063" width="33.2803" height="35.98" filterUnits="userSpaceOnUse" color-interpolation-filters="sRGB">
<feFlood flood-opacity="0" result="BackgroundImageFix"/>
<feColorMatrix in="SourceAlpha" type="matrix" values="0 0 0 0 0 0 0 0 0 0 0 0 0 0 0 0 0 0 127 0" result="hardAlpha"/>
<feOffset dx="8" dy="17"/>
<feGaussianBlur stdDeviation="2"/>
<feComposite in2="hardAlpha" operator="out"/>
<feColorMatrix type="matrix" values="0 0 0 0 0 0 0 0 0 0.396078 0 0 0 0 0.631373 0 0 0 0.2 0"/>
<feBlend mode="normal" in2="BackgroundImageFix" result="effect1_dropShadow_258_1388"/>
<feBlend mode="normal" in="SourceGraphic" in2="effect1_dropShadow_258_1388" result="shape"/>
</filter>
<clipPath id="clip0_258_1388">
<rect width="108" height="96" fill="white" transform="translate(2 2)"/>
</clipPath>
<clipPath id="clip1_258_1388">
<rect width="81.2168" height="74.7355" fill="white" transform="translate(40 -9)"/>
</clipPath>
</defs>
</svg>
