<svg width="112" height="100" viewBox="0 0 112 100" fill="none" xmlns="http://www.w3.org/2000/svg">
<rect x="1" y="1" width="110" height="98" rx="6" fill="white" stroke="#0065A1" stroke-width="2"/>
<g clip-path="url(#clip0_258_1184)">
<g clip-path="url(#clip1_258_1184)">
<path d="M116.658 46.1269L78.5103 47.3862L100.087 22.4964L116.658 46.1269Z" fill="#018057" fill-opacity="0.2"/>
<path d="M116.658 46.1269L78.5103 47.3862L100.087 22.4964L116.658 46.1269Z" fill="#018057" fill-opacity="0.2"/>
<path d="M54.0831 11.9786L88.4915 17.3233L62.2903 47.5475L54.0831 11.9786Z" fill="#FFC013" fill-opacity="0.2"/>
<path d="M106.322 2.28952L97.5713 22.7501L83 1.74638L106.322 2.28952Z" fill="#0065A1" fill-opacity="0.2"/>
</g>
<g filter="url(#filter0_d_258_1184)">
<path d="M-6 68.8876L0.406593 54L33.6044 58.1685L47 77.2247L37.6813 101.64L17.8791 107L-6 92.7079V68.8876Z" fill="#006FB4"/>
<g filter="url(#filter1_d_258_1184)">
<path d="M0.457031 54L33.6548 58.1685L36.5669 62.3371L15.5999 61.1461L0.457031 54Z" fill="#0065A1"/>
</g>
<g filter="url(#filter2_d_258_1184)">
<path d="M-6 92.8789L20.0073 96.1799L37.5846 101.682L17.8549 107L-6 92.8789Z" fill="#006FB4"/>
</g>
<g filter="url(#filter3_d_258_1184)">
<path d="M15.2225 79.6063V82.4462H19.8025V85.0862H15.2225V88.1662H20.4025V90.9062H11.8025V76.8662H20.4025V79.6063H15.2225ZM24.6828 83.0662C23.4295 82.3996 22.8028 81.3529 22.8028 79.9262C22.8028 79.2062 22.9895 78.5529 23.3628 77.9662C23.7361 77.3662 24.3028 76.8929 25.0628 76.5462C25.8228 76.1862 26.7561 76.0062 27.8628 76.0062C28.9695 76.0062 29.8961 76.1862 30.6428 76.5462C31.4028 76.8929 31.9695 77.3662 32.3428 77.9662C32.7161 78.5529 32.9028 79.2062 32.9028 79.9262C32.9028 80.6462 32.7295 81.2729 32.3828 81.8062C32.0495 82.3396 31.5961 82.7596 31.0228 83.0662C31.7428 83.4129 32.2961 83.8929 32.6828 84.5062C33.0695 85.1062 33.2628 85.8129 33.2628 86.6262C33.2628 87.5729 33.0228 88.3929 32.5428 89.0862C32.0628 89.7662 31.4095 90.2862 30.5828 90.6462C29.7695 91.0063 28.8628 91.1863 27.8628 91.1863C26.8628 91.1863 25.9495 91.0063 25.1228 90.6462C24.3095 90.2862 23.6628 89.7662 23.1828 89.0862C22.7028 88.3929 22.4628 87.5729 22.4628 86.6262C22.4628 85.7996 22.6561 85.0862 23.0428 84.4862C23.4295 83.8729 23.9761 83.3996 24.6828 83.0662ZM29.5828 80.4462C29.5828 79.8996 29.4228 79.4796 29.1028 79.1862C28.7961 78.8796 28.3828 78.7262 27.8628 78.7262C27.3428 78.7262 26.9228 78.8796 26.6028 79.1862C26.2961 79.4929 26.1428 79.9196 26.1428 80.4662C26.1428 80.9862 26.3028 81.3996 26.6228 81.7062C26.9428 81.9996 27.3561 82.1462 27.8628 82.1462C28.3695 82.1462 28.7828 81.9929 29.1028 81.6862C29.4228 81.3796 29.5828 80.9662 29.5828 80.4462ZM27.8628 84.5462C27.2361 84.5462 26.7295 84.7196 26.3428 85.0662C25.9561 85.3996 25.7628 85.8662 25.7628 86.4662C25.7628 87.0262 25.9495 87.4862 26.3228 87.8462C26.7095 88.2062 27.2228 88.3862 27.8628 88.3862C28.5028 88.3862 29.0028 88.2062 29.3628 87.8462C29.7361 87.4862 29.9228 87.0262 29.9228 86.4662C29.9228 85.8796 29.7295 85.4129 29.3428 85.0662C28.9695 84.7196 28.4761 84.5462 27.8628 84.5462Z" fill="#28282A"/>
</g>
</g>
</g>
<defs>
<filter id="filter0_d_258_1184" x="-8" y="52" width="61" height="61" filterUnits="userSpaceOnUse" color-interpolation-filters="sRGB">
<feFlood flood-opacity="0" result="BackgroundImageFix"/>
<feColorMatrix in="SourceAlpha" type="matrix" values="0 0 0 0 0 0 0 0 0 0 0 0 0 0 0 0 0 0 127 0" result="hardAlpha"/>
<feOffset dx="2" dy="2"/>
<feGaussianBlur stdDeviation="2"/>
<feComposite in2="hardAlpha" operator="out"/>
<feColorMatrix type="matrix" values="0 0 0 0 0 0 0 0 0 0.396078 0 0 0 0 0.631373 0 0 0 0.2 0"/>
<feBlend mode="normal" in2="BackgroundImageFix" result="effect1_dropShadow_258_1184"/>
<feBlend mode="normal" in="SourceGraphic" in2="effect1_dropShadow_258_1184" result="shape"/>
</filter>
<filter id="filter1_d_258_1184" x="0.457031" y="54" width="48.1099" height="29.3369" filterUnits="userSpaceOnUse" color-interpolation-filters="sRGB">
<feFlood flood-opacity="0" result="BackgroundImageFix"/>
<feColorMatrix in="SourceAlpha" type="matrix" values="0 0 0 0 0 0 0 0 0 0 0 0 0 0 0 0 0 0 127 0" result="hardAlpha"/>
<feOffset dx="8" dy="17"/>
<feGaussianBlur stdDeviation="2"/>
<feComposite in2="hardAlpha" operator="out"/>
<feColorMatrix type="matrix" values="0 0 0 0 0 0 0 0 0 0.396078 0 0 0 0 0.631373 0 0 0 0.2 0"/>
<feBlend mode="normal" in2="BackgroundImageFix" result="effect1_dropShadow_258_1184"/>
<feBlend mode="normal" in="SourceGraphic" in2="effect1_dropShadow_258_1184" result="shape"/>
</filter>
<filter id="filter2_d_258_1184" x="-6" y="92.8789" width="55.5845" height="35.1211" filterUnits="userSpaceOnUse" color-interpolation-filters="sRGB">
<feFlood flood-opacity="0" result="BackgroundImageFix"/>
<feColorMatrix in="SourceAlpha" type="matrix" values="0 0 0 0 0 0 0 0 0 0 0 0 0 0 0 0 0 0 127 0" result="hardAlpha"/>
<feOffset dx="8" dy="17"/>
<feGaussianBlur stdDeviation="2"/>
<feComposite in2="hardAlpha" operator="out"/>
<feColorMatrix type="matrix" values="0 0 0 0 0 0 0 0 0 0.396078 0 0 0 0 0.631373 0 0 0 0.2 0"/>
<feBlend mode="normal" in2="BackgroundImageFix" result="effect1_dropShadow_258_1184"/>
<feBlend mode="normal" in="SourceGraphic" in2="effect1_dropShadow_258_1184" result="shape"/>
</filter>
<filter id="filter3_d_258_1184" x="11.8027" y="76.0063" width="33.46" height="36.1797" filterUnits="userSpaceOnUse" color-interpolation-filters="sRGB">
<feFlood flood-opacity="0" result="BackgroundImageFix"/>
<feColorMatrix in="SourceAlpha" type="matrix" values="0 0 0 0 0 0 0 0 0 0 0 0 0 0 0 0 0 0 127 0" result="hardAlpha"/>
<feOffset dx="8" dy="17"/>
<feGaussianBlur stdDeviation="2"/>
<feComposite in2="hardAlpha" operator="out"/>
<feColorMatrix type="matrix" values="0 0 0 0 0 0 0 0 0 0.396078 0 0 0 0 0.631373 0 0 0 0.2 0"/>
<feBlend mode="normal" in2="BackgroundImageFix" result="effect1_dropShadow_258_1184"/>
<feBlend mode="normal" in="SourceGraphic" in2="effect1_dropShadow_258_1184" result="shape"/>
</filter>
<clipPath id="clip0_258_1184">
<rect width="108" height="96" fill="white" transform="translate(2 2)"/>
</clipPath>
<clipPath id="clip1_258_1184">
<rect width="81.2168" height="74.7355" fill="white" transform="translate(40 -9)"/>
</clipPath>
</defs>
</svg>
