<svg width="112" height="100" viewBox="0 0 112 100" fill="none" xmlns="http://www.w3.org/2000/svg">
<rect x="1" y="1" width="110" height="98" rx="6" fill="white" stroke="#018057" stroke-width="2"/>
<g clip-path="url(#clip0_258_1352)">
<g clip-path="url(#clip1_258_1352)">
<path d="M116.658 46.1269L78.5103 47.3862L100.087 22.4964L116.658 46.1269Z" fill="#018057" fill-opacity="0.2"/>
<path d="M116.658 46.1269L78.5103 47.3862L100.087 22.4964L116.658 46.1269Z" fill="#018057" fill-opacity="0.2"/>
<path d="M54.0831 11.9786L88.4915 17.3233L62.2903 47.5475L54.0831 11.9786Z" fill="#FFC013" fill-opacity="0.2"/>
<path d="M106.322 2.28952L97.5713 22.7501L83 1.74638L106.322 2.28952Z" fill="#0065A1" fill-opacity="0.2"/>
</g>
<g filter="url(#filter0_d_258_1352)">
<path d="M-6 68.8876L0.406593 54L33.6044 58.1685L47 77.2247L37.6813 101.64L17.8791 107L-6 92.7079V68.8876Z" fill="#009663"/>
<g filter="url(#filter1_d_258_1352)">
<path d="M0.457031 54L33.6548 58.1685L36.5669 62.3371L15.5999 61.1461L0.457031 54Z" fill="#028158"/>
</g>
<g filter="url(#filter2_d_258_1352)">
<path d="M-6 92.8789L20.0073 96.1799L37.5846 101.682L17.8549 107L-6 92.8789Z" fill="#009663"/>
</g>
<g filter="url(#filter3_d_258_1352)">
<path d="M15.2225 79.6063V82.4462H19.8025V85.0862H15.2225V88.1662H20.4025V90.9062H11.8025V76.8662H20.4025V79.6063H15.2225ZM25.9628 86.6262C26.1628 87.6796 26.7761 88.2062 27.8028 88.2062C28.5095 88.2062 29.0095 87.8929 29.3028 87.2662C29.5961 86.6396 29.7428 85.6196 29.7428 84.2062C29.4495 84.6196 29.0495 84.9396 28.5428 85.1662C28.0361 85.3929 27.4695 85.5062 26.8428 85.5062C25.9895 85.5062 25.2295 85.3329 24.5628 84.9862C23.8961 84.6262 23.3695 84.0996 22.9828 83.4062C22.6095 82.6996 22.4228 81.8462 22.4228 80.8462C22.4228 79.8596 22.6228 78.9996 23.0228 78.2662C23.4361 77.5329 24.0161 76.9662 24.7628 76.5662C25.5228 76.1662 26.4161 75.9662 27.4428 75.9662C29.4161 75.9662 30.7961 76.5796 31.5828 77.8062C32.3695 79.0329 32.7628 80.8396 32.7628 83.2262C32.7628 84.9596 32.6028 86.3929 32.2828 87.5262C31.9761 88.6462 31.4495 89.4996 30.7028 90.0862C29.9695 90.6729 28.9628 90.9663 27.6828 90.9663C26.6695 90.9663 25.8028 90.7662 25.0828 90.3662C24.3761 89.9662 23.8295 89.4396 23.4428 88.7862C23.0695 88.1329 22.8561 87.4129 22.8028 86.6262H25.9628ZM27.6228 82.8062C28.1828 82.8062 28.6295 82.6396 28.9628 82.3062C29.2961 81.9596 29.4628 81.4929 29.4628 80.9062C29.4628 80.2662 29.2895 79.7729 28.9428 79.4262C28.5961 79.0796 28.1295 78.9062 27.5428 78.9062C26.9561 78.9062 26.4895 79.0862 26.1428 79.4462C25.8095 79.7929 25.6428 80.2729 25.6428 80.8862C25.6428 81.4596 25.8095 81.9262 26.1428 82.2862C26.4895 82.6329 26.9828 82.8062 27.6228 82.8062Z" fill="#28282A"/>
</g>
</g>
</g>
<defs>
<filter id="filter0_d_258_1352" x="-8" y="52" width="61" height="61" filterUnits="userSpaceOnUse" color-interpolation-filters="sRGB">
<feFlood flood-opacity="0" result="BackgroundImageFix"/>
<feColorMatrix in="SourceAlpha" type="matrix" values="0 0 0 0 0 0 0 0 0 0 0 0 0 0 0 0 0 0 127 0" result="hardAlpha"/>
<feOffset dx="2" dy="2"/>
<feGaussianBlur stdDeviation="2"/>
<feComposite in2="hardAlpha" operator="out"/>
<feColorMatrix type="matrix" values="0 0 0 0 0 0 0 0 0 0.396078 0 0 0 0 0.631373 0 0 0 0.2 0"/>
<feBlend mode="normal" in2="BackgroundImageFix" result="effect1_dropShadow_258_1352"/>
<feBlend mode="normal" in="SourceGraphic" in2="effect1_dropShadow_258_1352" result="shape"/>
</filter>
<filter id="filter1_d_258_1352" x="0.457031" y="54" width="48.1099" height="29.3369" filterUnits="userSpaceOnUse" color-interpolation-filters="sRGB">
<feFlood flood-opacity="0" result="BackgroundImageFix"/>
<feColorMatrix in="SourceAlpha" type="matrix" values="0 0 0 0 0 0 0 0 0 0 0 0 0 0 0 0 0 0 127 0" result="hardAlpha"/>
<feOffset dx="8" dy="17"/>
<feGaussianBlur stdDeviation="2"/>
<feComposite in2="hardAlpha" operator="out"/>
<feColorMatrix type="matrix" values="0 0 0 0 0 0 0 0 0 0.396078 0 0 0 0 0.631373 0 0 0 0.2 0"/>
<feBlend mode="normal" in2="BackgroundImageFix" result="effect1_dropShadow_258_1352"/>
<feBlend mode="normal" in="SourceGraphic" in2="effect1_dropShadow_258_1352" result="shape"/>
</filter>
<filter id="filter2_d_258_1352" x="-6" y="92.8789" width="55.5845" height="35.1211" filterUnits="userSpaceOnUse" color-interpolation-filters="sRGB">
<feFlood flood-opacity="0" result="BackgroundImageFix"/>
<feColorMatrix in="SourceAlpha" type="matrix" values="0 0 0 0 0 0 0 0 0 0 0 0 0 0 0 0 0 0 127 0" result="hardAlpha"/>
<feOffset dx="8" dy="17"/>
<feGaussianBlur stdDeviation="2"/>
<feComposite in2="hardAlpha" operator="out"/>
<feColorMatrix type="matrix" values="0 0 0 0 0 0 0 0 0 0.396078 0 0 0 0 0.631373 0 0 0 0.2 0"/>
<feBlend mode="normal" in2="BackgroundImageFix" result="effect1_dropShadow_258_1352"/>
<feBlend mode="normal" in="SourceGraphic" in2="effect1_dropShadow_258_1352" result="shape"/>
</filter>
<filter id="filter3_d_258_1352" x="11.8027" y="75.9663" width="32.96" height="36" filterUnits="userSpaceOnUse" color-interpolation-filters="sRGB">
<feFlood flood-opacity="0" result="BackgroundImageFix"/>
<feColorMatrix in="SourceAlpha" type="matrix" values="0 0 0 0 0 0 0 0 0 0 0 0 0 0 0 0 0 0 127 0" result="hardAlpha"/>
<feOffset dx="8" dy="17"/>
<feGaussianBlur stdDeviation="2"/>
<feComposite in2="hardAlpha" operator="out"/>
<feColorMatrix type="matrix" values="0 0 0 0 0 0 0 0 0 0.396078 0 0 0 0 0.631373 0 0 0 0.2 0"/>
<feBlend mode="normal" in2="BackgroundImageFix" result="effect1_dropShadow_258_1352"/>
<feBlend mode="normal" in="SourceGraphic" in2="effect1_dropShadow_258_1352" result="shape"/>
</filter>
<clipPath id="clip0_258_1352">
<rect width="108" height="96" fill="white" transform="translate(2 2)"/>
</clipPath>
<clipPath id="clip1_258_1352">
<rect width="81.2168" height="74.7355" fill="white" transform="translate(40 -9)"/>
</clipPath>
</defs>
</svg>
