<svg width="375" height="137" viewBox="0 0 375 137" fill="none" xmlns="http://www.w3.org/2000/svg">
<g clip-path="url(#clip0_214_222)">
<rect width="375" height="137" fill="white"/>
<path d="M0 -11.5488L86 137.451H3.51076L0 -11.5488Z" fill="#039063"/>
<path d="M74 103.451L65.5 -11.549L135.742 -11.549L74 103.451Z" fill="#FFC013"/>
<path d="M78 111.951L144 -11.5488L113.689 137.451H90.7111L78 111.951Z" fill="#F3522D"/>
<path d="M130.5 84.9512L192 -11.5488L161.924 137.451H139.124L130.5 84.9512Z" fill="#FFC013"/>
<path d="M8 -11.5488H57.5L68.5 95.4512L46.5 55.9512L8 -11.5488Z" fill="black"/>
<path d="M2 71.9512L51 137.451H3.5L2 71.9512Z" fill="#028058"/>
<path d="M96 -11.5218L67 11.9512L65.4994 -11.5218L96 -11.5218Z" fill="#E5A419"/>
<path d="M148 -11.5488H188L172.5 12.4512L130 78.4512L146 -1.04883L148 -11.5488Z" fill="#B8441A"/>
<path d="M127.5 84.9512L135.66 137.451H118.34L127.5 84.9512Z" fill="black"/>
<path d="M166.082 129.234L179.041 78.5663L193.969 78.5663L166.082 129.234Z" fill="black"/>
<path d="M200.5 78.4512H328L330.5 136H167L200.5 78.4512Z" fill="#039063"/>
<path d="M196.18 -11.3685L265 74.5186H178.5L196.18 -11.3685Z" fill="#28282A"/>
<path d="M273.999 73.3747L204 -10.6253L284.999 -10.6253L273.999 73.3747Z" fill="#FFC013"/>
<path d="M289.186 -10.6817L328.186 73.8183H277.686L289.186 -10.6817Z" fill="#039063"/>
<path d="M399 -10.4999L349 20.5L331.5 -10.5L399 -10.4999Z" fill="#28282A"/>
<path d="M324 -10.5L333.5 75L317 41.5L324 -10.5Z" fill="black"/>
<path d="M336 71.0001L326.5 -10.9999L345.155 21.878L336 71.0001Z" fill="#FFC013"/>
<path d="M315.682 37L292 -11L322 -11L315.682 37Z" fill="#008158"/>
<path d="M349.069 23.4643L398.001 -6.49998L388 36L346 36L349.069 23.4643Z" fill="#28282A"/>
<path d="M347.5 41.5L397 83L435 117L418 136.5H378.5L340 80.5L347.5 41.5Z" fill="#B8441A"/>
<path d="M334 79L371.5 136H337L334 79Z" fill="#018057"/>
<path d="M334 79L371.5 136H337L334 79Z" fill="#018057"/>
<path d="M435 42.4022L437 108.5L354.5 42.4022H435Z" fill="#039063"/>
<path d="M328 78L330.5 136H292.947L328 78Z" fill="#008158"/>
<path d="M293.003 136.387L290.5 78.3609L328.603 78.7217L293.003 136.387Z" fill="#009263"/>
<path d="M316 47.5L328.5 74H303.5L316 47.5Z" fill="#008158"/>
<path d="M388 36L349 23.5L398 -6.50009L388 36Z" fill="black"/>
</g>
<defs>
<clipPath id="clip0_214_222">
<rect width="375" height="137" fill="white"/>
</clipPath>
</defs>
</svg>
